# Blender 5.1.1
# www.blender.org
mtllib boneclaw horn.mtl
o 84051475823173
v -0.819107 -0.006963 0.233373
v -0.890453 0.031401 0.000000
v -0.885249 -0.077459 0.000000
v -0.839507 0.085700 0.179755
v -0.890453 0.031401 0.000000
v -0.839507 0.085700 -0.179756
v -0.819107 -0.006963 -0.233373
v -0.885249 -0.077459 0.000000
v 1.021409 0.520226 -0.000000
v 0.981942 0.534872 0.037943
v 0.997988 0.527853 0.056349
v 0.945841 0.548040 0.051648
v 0.944375 0.547408 0.076703
v 0.997712 0.529737 -0.000000
v 0.981942 0.534872 -0.037943
v 0.997988 0.527853 -0.056349
v 0.945841 0.548040 -0.051648
v 0.944375 0.547408 -0.076703
v 0.895539 0.568999 -0.052193
v 0.912957 0.562578 -0.035144
v 0.876317 0.578458 -0.000000
v 0.900014 0.568948 -0.000000
v 0.912957 0.562578 0.035144
v 0.895539 0.568999 0.052193
v 0.945841 0.548040 0.051648
v 0.944375 0.547408 0.076703
v -0.839507 0.085700 0.179755
v -0.659426 0.163228 0.330039
v -0.716513 0.216790 0.254213
v -0.819107 -0.006963 0.233373
v -0.839507 0.085700 -0.179756
v -0.659426 0.163228 -0.330039
v -0.819107 -0.006963 -0.233373
v -0.716513 0.216790 -0.254213
v 1.021671 0.479140 -0.000000
v 0.997988 0.527853 -0.056349
v 1.021409 0.520226 -0.000000
v 0.997988 0.527853 0.056349
v 0.993601 0.488281 -0.067535
v 0.993601 0.488281 0.067535
v 0.929344 0.511718 0.091930
v 0.944375 0.547408 0.076703
v 0.929344 0.511718 -0.091930
v 0.944375 0.547408 -0.076703
v 0.895539 0.568999 -0.052193
v 0.870813 0.537596 -0.062554
v 0.847776 0.548933 -0.000000
v 0.876317 0.578458 -0.000000
v 0.895539 0.568999 0.052193
v 0.870813 0.537596 0.062554
v 0.929344 0.511718 0.091930
v 0.944375 0.547408 0.076703
v 0.945841 0.548040 -0.051648
v 0.921203 0.411507 -0.026883
v 0.981942 0.534872 -0.037943
v 0.997712 0.529737 -0.000000
v 0.895625 0.420836 -0.036594
v 0.872326 0.431137 -0.024901
v 0.912957 0.562578 -0.035144
v 0.932377 0.407868 -0.000000
v 0.863155 0.435650 -0.000000
v 0.900014 0.568948 -0.000000
v 0.912957 0.562578 0.035144
v 0.921203 0.411507 0.026883
v 0.981942 0.534872 0.037943
v 0.945841 0.548040 0.051648
v 0.895625 0.420836 0.036594
v 0.872326 0.431137 0.024901
v 0.945841 0.548040 0.051648
v 0.895625 0.420836 0.036594
v 0.745650 0.329427 -0.067347
v 0.809021 0.360057 -0.037087
v 0.799700 0.286698 -0.098974
v 0.838786 0.336527 -0.054504
v 0.797477 0.369979 -0.000000
v 0.872199 0.313549 -0.040040
v 0.724686 0.347445 -0.000000
v 0.860376 0.244974 -0.072709
v 0.745650 0.329427 0.067347
v 0.886958 0.304141 -0.000000
v 0.809021 0.360057 0.037087
v 0.799700 0.286698 0.098974
v 0.838786 0.336527 0.054504
v 0.887177 0.227890 -0.000000
v 0.860376 0.244974 0.072709
v 0.872199 0.313549 0.040040
v 0.799700 0.286698 0.098974
v 0.838786 0.336527 0.054504
v -0.541045 0.289400 -0.000000
v -0.593518 0.347879 0.179755
v -0.542573 0.402178 -0.000000
v -0.575717 0.252445 0.122339
v -0.541045 0.289400 -0.000000
v -0.593518 0.347879 -0.179755
v -0.575717 0.252445 -0.122339
v -0.542573 0.402178 -0.000000
v -0.659426 0.163228 0.330039
v -0.499744 0.333419 0.233373
v -0.593518 0.347879 0.179755
v -0.716513 0.216790 0.254213
v -0.659426 0.163228 -0.330039
v -0.593518 0.347879 -0.179755
v -0.499744 0.333419 -0.233373
v -0.716513 0.216790 -0.254213
v 0.910834 0.460976 -0.054504
v 0.852907 0.416098 -0.037087
v 0.876132 0.476318 -0.037087
v 0.839818 0.423623 -0.000000
v 0.862473 0.483040 -0.000000
v 0.876132 0.476318 0.037087
v 0.852907 0.416098 0.037087
v 0.910834 0.460976 0.054504
v 0.886273 0.398696 0.054504
v 0.838786 0.336527 0.054504
v 0.809021 0.360057 0.037087
v 0.797477 0.369979 -0.000000
v 0.809021 0.360057 -0.037087
v 0.838786 0.336527 -0.054504
v 0.886273 0.398696 -0.054504
v 0.872199 0.313549 -0.040040
v 0.948930 0.447081 -0.040040
v 0.923091 0.382509 -0.040040
v 0.965573 0.441661 -0.000000
v 0.939217 0.376082 -0.000000
v 0.886958 0.304141 -0.000000
v 0.872199 0.313549 0.040040
v 0.923091 0.382509 0.040040
v 0.948930 0.447081 0.040040
v 0.886273 0.398696 0.054504
v 0.838786 0.336527 0.054504
v 0.910834 0.460976 0.054504
v -0.389298 0.140682 -0.034671
v -0.403607 0.249532 -0.000000
v -0.404435 0.250992 -0.036682
v -0.388403 0.141871 -0.000000
v -0.389298 0.140682 0.034671
v -0.403607 0.249532 -0.000000
v -0.388403 0.141871 -0.000000
v -0.404435 0.250992 0.036682
v -0.659426 0.163228 0.173013
v -0.716513 0.216790 0.254213
v -0.575717 0.252445 0.122339
v -0.593518 0.347879 0.179755
v -0.575717 0.252445 -0.122339
v -0.716513 0.216790 -0.254213
v -0.659426 0.163228 -0.173013
v -0.593518 0.347879 -0.179755
v -0.417923 0.183942 -0.167375
v -0.295113 0.265836 -0.037862
v -0.335427 0.189904 -0.202167
v -0.404435 0.250992 -0.036682
v -0.444561 0.023392 -0.288197
v -0.492993 0.042937 -0.231554
v -0.571869 -0.066153 -0.189370
v -0.546283 -0.112882 -0.237386
v -0.613835 -0.174379 -0.124204
v -0.624003 -0.138639 -0.102889
v -0.643644 -0.167022 -0.038659
v -0.295113 0.265836 0.037862
v -0.417923 0.183942 0.167375
v -0.335427 0.189904 0.202167
v -0.404435 0.250992 0.036682
v -0.444561 0.023392 0.288197
v -0.492993 0.042937 0.231554
v -0.571869 -0.066153 0.189370
v -0.546283 -0.112882 0.237386
v -0.613835 -0.174379 0.124204
v -0.624003 -0.138639 0.102889
v -0.643644 -0.167022 0.038659
v -0.586996 -0.141873 -0.080664
v -0.624003 -0.138639 -0.102889
v -0.643644 -0.167022 -0.038659
v -0.571869 -0.066153 -0.189370
v -0.516413 -0.083093 -0.140051
v -0.492993 0.042937 -0.231554
v -0.460716 0.001924 -0.172189
v -0.401371 0.102278 -0.128040
v -0.417923 0.183942 -0.167375
v -0.389298 0.140682 -0.034671
v -0.404435 0.250992 -0.036682
v -0.586996 -0.141873 0.080664
v -0.643644 -0.167022 0.038659
v -0.624003 -0.138639 0.102889
v -0.571869 -0.066153 0.189370
v -0.516413 -0.083093 0.140051
v -0.492993 0.042937 0.231554
v -0.460716 0.001924 0.172189
v -0.401371 0.102278 0.128040
v -0.417923 0.183942 0.167375
v -0.389298 0.140682 0.034671
v -0.404435 0.250992 0.036682
v -0.542573 0.402178 -0.000000
v -0.499744 0.333419 0.233373
v -0.433602 0.403914 -0.000000
v -0.593518 0.347879 0.179755
v -0.542573 0.402178 -0.000000
v -0.499744 0.333419 -0.233373
v -0.593518 0.347879 -0.179755
v -0.433602 0.403914 -0.000000
v -0.267036 0.142262 -0.036426
v -0.234034 0.028307 -0.033201
v -0.232972 0.031297 0.000000
v -0.265482 0.140266 -0.000000
v -0.234034 0.028307 0.033201
v -0.267036 0.142262 0.036426
v -0.232972 0.031297 0.000000
v -0.265482 0.140266 -0.000000
v 0.403733 -0.001005 -0.056971
v 0.427725 0.071582 -0.060101
v 0.426157 0.069734 0.000000
v 0.402778 0.000935 0.000000
v 0.402778 0.000935 0.000000
v 0.426157 0.069734 0.000000
v 0.403733 -0.001005 0.056971
v 0.427725 0.071582 0.060101
v -0.273721 0.075778 -0.155702
v -0.155512 0.174610 -0.038187
v -0.187990 0.094466 -0.190447
v -0.267036 0.142262 -0.036426
v -0.275456 -0.077762 -0.268698
v -0.330368 -0.064293 -0.212702
v -0.357370 -0.198860 -0.230199
v -0.395700 -0.154552 -0.180545
v -0.458266 -0.251067 -0.101022
v -0.439280 -0.287480 -0.124829
v -0.451418 -0.305849 -0.036680
v -0.155512 0.174610 0.038187
v -0.273721 0.075778 0.155702
v -0.187990 0.094466 0.190447
v -0.267036 0.142262 0.036426
v -0.275456 -0.077762 0.268698
v -0.330368 -0.064293 0.212702
v -0.357370 -0.198860 0.230199
v -0.395700 -0.154552 0.180545
v -0.458266 -0.251067 0.101022
v -0.439280 -0.287480 0.124829
v -0.451418 -0.305849 0.036680
v -0.404435 0.250992 -0.036682
v -0.295940 0.264736 -0.000000
v -0.295113 0.265836 -0.037862
v -0.403607 0.249532 -0.000000
v -0.404435 0.250992 0.036682
v -0.295940 0.264736 -0.000000
v -0.403607 0.249532 -0.000000
v -0.295113 0.265836 0.037862
v 0.356484 0.094887 -0.061822
v 0.430618 0.043920 -0.117352
v 0.374861 0.057591 -0.137196
v 0.427725 0.071582 -0.060101
v 0.423893 -0.041919 -0.187617
v 0.461261 -0.033827 -0.153298
v 0.497167 -0.106532 -0.144771
v 0.469795 -0.135077 -0.178392
v 0.530568 -0.204206 -0.096110
v 0.516039 -0.228930 -0.112984
v 0.519648 -0.264156 -0.051796
v 0.427725 0.071582 0.060101
v 0.356484 0.094887 0.061822
v 0.430618 0.043920 0.117352
v 0.374861 0.057591 0.137196
v 0.423893 -0.041919 0.187617
v 0.461261 -0.033827 0.153298
v 0.497167 -0.106532 0.144771
v 0.469795 -0.135077 0.178392
v 0.530568 -0.204206 0.096110
v 0.516039 -0.228930 0.112984
v 0.519648 -0.264156 0.051796
v -0.243083 -0.007465 -0.114687
v -0.234034 0.028307 -0.033201
v -0.273721 0.075778 -0.155702
v -0.267036 0.142262 -0.036426
v -0.330368 -0.064293 -0.212702
v -0.288926 -0.102684 -0.152936
v -0.337684 -0.162438 -0.129007
v -0.395700 -0.154552 -0.180545
v -0.417411 -0.247020 -0.075860
v -0.458266 -0.251067 -0.101022
v -0.451418 -0.305849 -0.036680
v -0.273721 0.075778 0.155702
v -0.267036 0.142262 0.036426
v -0.234034 0.028307 0.033201
v -0.243083 -0.007465 0.114687
v -0.330368 -0.064293 0.212702
v -0.288926 -0.102684 0.152936
v -0.337684 -0.162438 0.129007
v -0.395700 -0.154552 0.180545
v -0.417411 -0.247020 0.075860
v -0.458266 -0.251067 0.101022
v -0.451418 -0.305849 0.036680
v -0.716513 0.216790 0.254213
v -0.743134 0.074010 0.122339
v -0.839507 0.085700 0.179755
v -0.659426 0.163228 0.173013
v -0.743134 0.074010 -0.122339
v -0.716513 0.216790 -0.254213
v -0.839507 0.085700 -0.179756
v -0.659426 0.163228 -0.173013
v -0.155512 0.174610 -0.038187
v -0.267036 0.142262 -0.036426
v -0.265482 0.140266 -0.000000
v -0.156501 0.172779 -0.000000
v -0.267036 0.142262 0.036426
v -0.155512 0.174610 0.038187
v -0.265482 0.140266 -0.000000
v -0.156501 0.172779 -0.000000
v 0.289821 -0.016302 -0.122059
v 0.239776 0.018399 -0.142606
v 0.234882 0.065467 -0.056735
v 0.297824 0.015175 -0.055492
v 0.252957 -0.108364 -0.201533
v 0.291781 -0.114276 -0.166870
v 0.301665 -0.208819 -0.160361
v 0.265302 -0.227080 -0.195986
v 0.299517 -0.327464 -0.100479
v 0.277648 -0.345807 -0.116908
v 0.265089 -0.375395 -0.060341
v 0.297824 0.015175 0.055492
v 0.234882 0.065467 0.056735
v 0.289821 -0.016302 0.122059
v 0.239776 0.018399 0.142606
v 0.252957 -0.108364 0.201533
v 0.291781 -0.114276 0.166870
v 0.301665 -0.208819 0.160361
v 0.265302 -0.227080 0.195986
v 0.299517 -0.327464 0.100479
v 0.277648 -0.345807 0.116908
v 0.265089 -0.375395 0.060341
v -0.097590 0.027678 -0.126043
v -0.019910 0.110709 -0.049562
v -0.034529 0.057644 -0.149474
v -0.100758 0.065514 -0.048283
v -0.100373 -0.133607 -0.236702
v -0.145417 -0.141044 -0.194468
v -0.142505 -0.260435 -0.202464
v -0.178705 -0.231504 -0.163572
v -0.202463 -0.312483 -0.115160
v -0.182579 -0.337899 -0.136406
v -0.184725 -0.362255 -0.038950
v -0.019910 0.110709 0.049562
v -0.097590 0.027678 0.126043
v -0.034529 0.057644 0.149474
v -0.100758 0.065514 0.048283
v -0.100373 -0.133607 0.236702
v -0.145417 -0.141044 0.194468
v -0.142505 -0.260435 0.202464
v -0.178705 -0.231504 0.163572
v -0.202463 -0.312483 0.115160
v -0.182579 -0.337899 0.136406
v -0.184725 -0.362255 0.038950
v 0.430618 0.043920 -0.117352
v 0.403733 -0.001005 -0.056971
v 0.408133 -0.009935 -0.092331
v 0.427725 0.071582 -0.060101
v 0.461261 -0.033827 -0.153298
v 0.431999 -0.058370 -0.115614
v 0.457893 -0.110923 -0.109309
v 0.497167 -0.106532 -0.144771
v 0.502116 -0.200674 -0.077923
v 0.530568 -0.204206 -0.096110
v 0.519648 -0.264156 -0.051796
v 0.430618 0.043920 0.117352
v 0.403733 -0.001005 0.056971
v 0.427725 0.071582 0.060101
v 0.408133 -0.009935 0.092331
v 0.461261 -0.033827 0.153298
v 0.431999 -0.058370 0.115614
v 0.457893 -0.110923 0.109309
v 0.497167 -0.106532 0.144771
v 0.502116 -0.200674 0.077923
v 0.530568 -0.204206 0.096110
v 0.519648 -0.264156 0.051796
v 0.246733 -0.048501 -0.053223
v 0.297824 0.015175 -0.055492
v 0.296303 0.014323 0.000000
v 0.246572 -0.046953 0.000000
v 0.246572 -0.046953 0.000000
v 0.296303 0.014323 0.000000
v 0.246733 -0.048501 0.053223
v 0.297824 0.015175 0.055492
v -0.054875 -0.016215 -0.045941
v -0.099349 0.064379 0.000000
v -0.100758 0.065514 -0.048283
v -0.054448 -0.014663 0.000000
v -0.099349 0.064379 0.000000
v -0.054875 -0.016215 0.045941
v -0.100758 0.065514 0.048283
v -0.054448 -0.014663 0.000000
v 0.356484 0.094887 -0.061822
v 0.357358 0.093114 0.000000
v 0.427725 0.071582 -0.060101
v 0.426157 0.069734 0.000000
v 0.357358 0.093114 0.000000
v 0.427725 0.071582 0.060101
v 0.426157 0.069734 0.000000
v 0.356484 0.094887 0.061822
v 0.414525 -0.021865 0.000000
v 0.260891 -0.018029 0.060104
v 0.265478 -0.076527 0.000000
v 0.387802 0.030883 0.060142
v -0.019910 0.110709 -0.049562
v -0.100758 0.065514 -0.048283
v -0.099349 0.064379 0.000000
v -0.020303 0.109282 -0.000000
v -0.020303 0.109282 -0.000000
v -0.099349 0.064379 0.000000
v -0.019910 0.110709 0.049562
v -0.100758 0.065514 0.048283
v 0.234882 0.065467 -0.056735
v 0.296303 0.014323 0.000000
v 0.297824 0.015175 -0.055492
v 0.235029 0.064054 0.000000
v 0.296303 0.014323 0.000000
v 0.234882 0.065467 0.056735
v 0.297824 0.015175 0.055492
v 0.235029 0.064054 0.000000
v -0.381494 0.117578 -0.000000
v -0.144572 0.000610 0.000000
v -0.345831 0.177273 0.069583
v -0.112283 0.058116 0.066846
v -0.819107 -0.006963 0.233373
v -0.885249 -0.077459 0.000000
v -0.776278 -0.075723 0.000000
v -0.725332 -0.021423 0.179755
v -0.776278 -0.075723 0.000000
v -0.819107 -0.006963 -0.233373
v -0.725332 -0.021423 -0.179756
v -0.885249 -0.077459 0.000000
v 0.098488 0.027962 -0.142467
v 0.153790 0.011301 -0.053282
v 0.137402 -0.018245 -0.123542
v 0.105970 0.076000 -0.054205
v 0.078246 -0.102009 -0.226118
v 0.113262 -0.117449 -0.187170
v 0.059285 -0.223752 -0.213817
v 0.098063 -0.215290 -0.176214
v 0.040386 -0.345098 -0.132015
v 0.065026 -0.333254 -0.114257
v 0.033210 -0.371042 -0.038772
v 0.098488 0.027962 0.142467
v 0.153790 0.011301 0.053282
v 0.105970 0.076000 0.054205
v 0.137402 -0.018245 0.123542
v 0.078246 -0.102009 0.226118
v 0.113262 -0.117449 0.187170
v 0.059285 -0.223752 0.213817
v 0.098063 -0.215290 0.176214
v 0.040386 -0.345098 0.132015
v 0.065026 -0.333254 0.114257
v 0.033210 -0.371042 0.038772
v 0.047366 -0.004222 -0.123542
v 0.105970 0.076000 -0.054205
v 0.098488 0.027962 -0.142467
v 0.040739 0.028909 -0.053282
v 0.078246 -0.102009 -0.226118
v 0.040192 -0.106069 -0.187170
v 0.024917 -0.203898 -0.176214
v 0.059285 -0.223752 -0.213817
v 0.020514 -0.326321 -0.114257
v 0.040386 -0.345098 -0.132015
v 0.033210 -0.371042 -0.038772
v 0.105970 0.076000 0.054205
v 0.047366 -0.004222 0.123542
v 0.098488 0.027962 0.142467
v 0.040739 0.028909 0.053282
v 0.078246 -0.102009 0.226118
v 0.040192 -0.106069 0.187170
v 0.024917 -0.203898 0.176214
v 0.059285 -0.223752 0.213817
v 0.020514 -0.326321 0.114257
v 0.040386 -0.345098 0.132015
v 0.033210 -0.371042 0.038772
v 0.289821 -0.016302 -0.122059
v 0.246733 -0.048501 -0.053223
v 0.248092 -0.061575 -0.097892
v 0.297824 0.015175 -0.055492
v 0.291781 -0.114276 -0.166870
v 0.254990 -0.127916 -0.129369
v 0.262330 -0.198503 -0.123371
v 0.301665 -0.208819 -0.160361
v 0.274343 -0.314025 -0.083073
v 0.299517 -0.327464 -0.100479
v 0.265089 -0.375395 -0.060341
v 0.289821 -0.016302 0.122059
v 0.246733 -0.048501 0.053223
v 0.297824 0.015175 0.055492
v 0.248092 -0.061575 0.097892
v 0.291781 -0.114276 0.166870
v 0.254990 -0.127916 0.129369
v 0.262330 -0.198503 0.123371
v 0.301665 -0.208819 0.160361
v 0.274343 -0.314025 0.083073
v 0.299517 -0.327464 0.100479
v 0.265089 -0.375395 0.060341
v 0.265478 -0.076527 0.000000
v 0.093846 -0.001282 0.064685
v 0.084723 -0.064464 0.000000
v 0.260891 -0.018029 0.060104
v -0.144572 0.000610 0.000000
v 0.084723 -0.064464 0.000000
v -0.112283 0.058116 0.066846
v 0.093846 -0.001282 0.064685
v -0.059045 -0.031351 -0.098742
v -0.054875 -0.016215 -0.045941
v -0.097590 0.027678 -0.126043
v -0.100758 0.065514 -0.048283
v -0.145417 -0.141044 -0.194468
v -0.108503 -0.185862 -0.148160
v -0.178705 -0.231504 -0.163572
v -0.132704 -0.235017 -0.125857
v -0.171526 -0.303336 -0.092796
v -0.202463 -0.312483 -0.115160
v -0.184725 -0.362255 -0.038950
v -0.100758 0.065514 0.048283
v -0.054875 -0.016215 0.045941
v -0.097590 0.027678 0.126043
v -0.059045 -0.031351 0.098742
v -0.145417 -0.141044 0.194468
v -0.108503 -0.185862 0.148160
v -0.178705 -0.231504 0.163572
v -0.132704 -0.235017 0.125857
v -0.171526 -0.303336 0.092796
v -0.202463 -0.312483 0.115160
v -0.184725 -0.362255 0.038950
v 0.088388 -0.036885 -0.051631
v 0.153790 0.011301 -0.053282
v 0.152547 0.010989 0.000000
v 0.088566 -0.035748 0.000000
v 0.088566 -0.035748 0.000000
v 0.152547 0.010989 0.000000
v 0.088388 -0.036885 0.051631
v 0.153790 0.011301 0.053282
v 0.084723 -0.064464 0.000000
v -0.112283 0.058116 -0.066846
v 0.093846 -0.001282 -0.064685
v -0.144572 0.000610 0.000000
v -0.345831 0.177273 -0.069583
v -0.381494 0.117578 -0.000000
v 0.265478 -0.076527 0.000000
v 0.260891 -0.018029 -0.060104
v 0.414525 -0.021865 0.000000
v 0.387802 0.030883 -0.060142
v 0.088388 -0.036885 -0.051631
v 0.041829 0.028233 0.000000
v 0.040739 0.028909 -0.053282
v 0.088566 -0.035748 0.000000
v 0.041829 0.028233 0.000000
v 0.088388 -0.036885 0.051631
v 0.040739 0.028909 0.053282
v 0.088566 -0.035748 0.000000
v -0.839507 0.085700 0.179755
v -0.777807 0.037055 0.000000
v -0.890453 0.031401 0.000000
v -0.743134 0.074010 0.122339
v -0.777807 0.037055 0.000000
v -0.743134 0.074010 -0.122339
v -0.839507 0.085700 -0.179756
v -0.890453 0.031401 0.000000
v -0.112283 0.058116 0.066846
v 0.093846 -0.001282 0.064685
v -0.079384 0.117351 -0.000000
v -0.310141 0.237030 -0.000000
v -0.345831 0.177273 0.069583
v 0.102832 0.063615 0.000000
v 0.255574 0.043380 0.000000
v 0.260891 -0.018029 0.060104
v 0.387802 0.030883 0.060142
v 0.360210 0.085533 0.000000
v 0.105970 0.076000 -0.054205
v 0.105809 0.074970 0.000000
v 0.153790 0.011301 -0.053282
v 0.152547 0.010989 0.000000
v 0.105809 0.074970 0.000000
v 0.153790 0.011301 0.053282
v 0.152547 0.010989 0.000000
v 0.105970 0.076000 0.054205
v 0.093846 -0.001282 -0.064685
v -0.079384 0.117351 -0.000000
v 0.102832 0.063615 0.000000
v -0.112283 0.058116 -0.066846
v 0.255574 0.043380 0.000000
v 0.260891 -0.018029 -0.060104
v 0.105970 0.076000 -0.054205
v 0.040739 0.028909 -0.053282
v 0.041829 0.028233 0.000000
v 0.105809 0.074970 0.000000
v 0.105809 0.074970 0.000000
v 0.041829 0.028233 0.000000
v 0.105970 0.076000 0.054205
v 0.040739 0.028909 0.053282
v -0.034529 0.057644 -0.149474
v 0.026388 0.030488 -0.048283
v 0.004291 -0.000388 -0.126043
v -0.019910 0.110709 -0.049562
v -0.100373 -0.133607 -0.236702
v -0.063050 -0.167410 -0.194468
v -0.142505 -0.260435 -0.202464
v -0.096234 -0.257876 -0.163572
v -0.151637 -0.328736 -0.115160
v -0.182579 -0.337899 -0.136406
v -0.184725 -0.362255 -0.038950
v -0.034529 0.057644 0.149474
v 0.026388 0.030488 0.048283
v -0.019910 0.110709 0.049562
v 0.004291 -0.000388 0.126043
v -0.100373 -0.133607 0.236702
v -0.063050 -0.167410 0.194468
v -0.142505 -0.260435 0.202464
v -0.096234 -0.257876 0.163572
v -0.151637 -0.328736 0.115160
v -0.182579 -0.337899 0.136406
v -0.184725 -0.362255 0.038950
v 0.185297 0.002780 0.000000
v 0.296303 0.014323 0.000000
v 0.235029 0.064054 0.000000
v 0.246572 -0.046953 0.000000
v 0.426157 0.069734 0.000000
v 0.333978 0.024315 0.000000
v 0.402778 0.000935 0.000000
v 0.357358 0.093114 0.000000
v 0.105809 0.074970 0.000000
v 0.088566 -0.035748 0.000000
v 0.152547 0.010989 0.000000
v 0.041829 0.028233 0.000000
v -0.020303 0.109282 -0.000000
v -0.099349 0.064379 0.000000
v 0.024596 0.030235 0.000000
v -0.054448 -0.014663 0.000000
v -0.156501 0.172779 -0.000000
v -0.232972 0.031297 0.000000
v -0.123999 0.063795 0.000000
v -0.265482 0.140266 -0.000000
v -0.388403 0.141871 -0.000000
v -0.295940 0.264736 -0.000000
v -0.403607 0.249532 -0.000000
v -0.280741 0.157069 -0.000000
v -0.112283 0.058116 -0.066846
v -0.310141 0.237030 -0.000000
v -0.079384 0.117351 -0.000000
v -0.345831 0.177273 -0.069583
v 0.197941 -0.025856 -0.122059
v 0.183633 0.003301 -0.055492
v 0.239776 0.018399 -0.142606
v 0.234882 0.065467 -0.056735
v 0.252957 -0.108364 -0.201533
v 0.216181 -0.122137 -0.166870
v 0.225960 -0.216691 -0.160361
v 0.265302 -0.227080 -0.195986
v 0.277648 -0.345807 -0.116908
v 0.252472 -0.332356 -0.100479
v 0.265089 -0.375395 -0.060341
v 0.239776 0.018399 0.142606
v 0.234882 0.065467 0.056735
v 0.183633 0.003301 0.055492
v 0.197941 -0.025856 0.122059
v 0.252957 -0.108364 0.201533
v 0.216181 -0.122137 0.166870
v 0.225960 -0.216691 0.160361
v 0.265302 -0.227080 0.195986
v 0.277648 -0.345807 0.116908
v 0.252472 -0.332356 0.100479
v 0.265089 -0.375395 0.060341
v 0.153790 0.011301 -0.053282
v 0.086176 -0.051093 -0.104051
v 0.137402 -0.018245 -0.123542
v 0.088388 -0.036885 -0.051631
v 0.113262 -0.117449 -0.187170
v 0.075229 -0.121381 -0.146260
v 0.063681 -0.195524 -0.137585
v 0.098063 -0.215290 -0.176214
v 0.045152 -0.314497 -0.095833
v 0.065026 -0.333254 -0.114257
v 0.033210 -0.371042 -0.038772
v -0.054875 -0.016215 -0.045941
v 0.026388 0.030488 -0.048283
v 0.024596 0.030235 0.000000
v -0.054448 -0.014663 0.000000
v 0.088388 -0.036885 0.051631
v 0.153790 0.011301 0.053282
v 0.086176 -0.051093 0.104051
v 0.137402 -0.018245 0.123542
v 0.113262 -0.117449 0.187170
v 0.075229 -0.121381 0.146260
v 0.063681 -0.195524 0.137585
v 0.098063 -0.215290 0.176214
v 0.045152 -0.314497 0.095833
v 0.065026 -0.333254 0.114257
v 0.033210 -0.371042 0.038772
v 0.026388 0.030488 0.048283
v -0.054875 -0.016215 0.045941
v 0.024596 0.030235 0.000000
v -0.054448 -0.014663 0.000000
v 0.246733 -0.048501 -0.053223
v 0.185297 0.002780 0.000000
v 0.183633 0.003301 -0.055492
v 0.246572 -0.046953 0.000000
v 0.185297 0.002780 0.000000
v 0.246733 -0.048501 0.053223
v 0.183633 0.003301 0.055492
v 0.246572 -0.046953 0.000000
v 0.086176 -0.051093 -0.104051
v 0.088388 -0.036885 -0.051631
v 0.047366 -0.004222 -0.123542
v 0.040739 0.028909 -0.053282
v 0.040192 -0.106069 -0.187170
v 0.075229 -0.121381 -0.146260
v 0.024917 -0.203898 -0.176214
v 0.063681 -0.195524 -0.137585
v 0.020514 -0.326321 -0.114257
v 0.045152 -0.314497 -0.095833
v 0.033210 -0.371042 -0.038772
v 0.047366 -0.004222 0.123542
v 0.040739 0.028909 0.053282
v 0.088388 -0.036885 0.051631
v 0.086176 -0.051093 0.104051
v 0.040192 -0.106069 0.187170
v 0.075229 -0.121381 0.146260
v 0.024917 -0.203898 0.176214
v 0.063681 -0.195524 0.137585
v 0.020514 -0.326321 0.114257
v 0.045152 -0.314497 0.095833
v 0.033210 -0.371042 0.038772
v 0.255574 0.043380 0.000000
v 0.387802 0.030883 -0.060142
v 0.260891 -0.018029 -0.060104
v 0.360210 0.085533 0.000000
v 0.403733 -0.001005 -0.056971
v 0.333978 0.024315 0.000000
v 0.331558 0.024198 -0.060101
v 0.402778 0.000935 0.000000
v 0.333978 0.024315 0.000000
v 0.403733 -0.001005 0.056971
v 0.331558 0.024198 0.060101
v 0.402778 0.000935 0.000000
v -0.019910 0.110709 -0.049562
v -0.020303 0.109282 -0.000000
v 0.026388 0.030488 -0.048283
v 0.024596 0.030235 0.000000
v -0.020303 0.109282 -0.000000
v 0.026388 0.030488 0.048283
v 0.024596 0.030235 0.000000
v -0.019910 0.110709 0.049562
v -0.659426 0.163228 0.330039
v -0.819107 -0.006963 0.233373
v -0.725332 -0.021423 0.179755
v -0.602338 0.109666 0.254213
v -0.725332 -0.021423 -0.179756
v -0.659426 0.163228 -0.330039
v -0.602338 0.109666 -0.254213
v -0.819107 -0.006963 -0.233373
v -0.234034 0.028307 -0.033201
v -0.121478 0.063589 -0.036426
v -0.123999 0.063795 0.000000
v -0.232972 0.031297 0.000000
v -0.121478 0.063589 0.036426
v -0.234034 0.028307 0.033201
v -0.123999 0.063795 0.000000
v -0.232972 0.031297 0.000000
v 0.183633 0.003301 -0.055492
v 0.235029 0.064054 0.000000
v 0.234882 0.065467 -0.056735
v 0.185297 0.002780 0.000000
v 0.235029 0.064054 0.000000
v 0.183633 0.003301 0.055492
v 0.234882 0.065467 0.056735
v 0.185297 0.002780 0.000000
v 0.351730 0.005049 -0.117352
v 0.331558 0.024198 -0.060101
v 0.374861 0.057591 -0.137196
v 0.356484 0.094887 -0.061822
v 0.423893 -0.041919 -0.187617
v 0.394709 -0.066620 -0.153298
v 0.430483 -0.139390 -0.144771
v 0.469795 -0.135077 -0.178392
v 0.487582 -0.225386 -0.096110
v 0.516039 -0.228930 -0.112984
v 0.519648 -0.264156 -0.051796
v 0.374861 0.057591 0.137196
v 0.356484 0.094887 0.061822
v 0.331558 0.024198 0.060101
v 0.351730 0.005049 0.117352
v 0.423893 -0.041919 0.187617
v 0.394709 -0.066620 0.153298
v 0.430483 -0.139390 0.144771
v 0.469795 -0.135077 0.178392
v 0.487582 -0.225386 0.096110
v 0.516039 -0.228930 0.112984
v 0.519648 -0.264156 0.051796
v 0.026388 0.030488 -0.048283
v -0.059045 -0.031351 -0.098742
v 0.004291 -0.000388 -0.126043
v -0.054875 -0.016215 -0.045941
v -0.063050 -0.167410 -0.194468
v -0.108503 -0.185862 -0.148160
v -0.096234 -0.257876 -0.163572
v -0.132704 -0.235017 -0.125857
v -0.171526 -0.303336 -0.092796
v -0.151637 -0.328736 -0.115160
v -0.184725 -0.362255 -0.038950
v -0.187990 0.094466 -0.190447
v -0.121478 0.063589 -0.036426
v -0.156659 0.012507 -0.155702
v -0.155512 0.174610 -0.038187
v -0.275456 -0.077762 -0.268698
v -0.234105 -0.116322 -0.212702
v -0.299305 -0.206653 -0.180545
v -0.357370 -0.198860 -0.230199
v -0.398416 -0.283416 -0.101022
v -0.439280 -0.287480 -0.124829
v -0.451418 -0.305849 -0.036680
v 0.004291 -0.000388 0.126043
v -0.059045 -0.031351 0.098742
v 0.026388 0.030488 0.048283
v -0.054875 -0.016215 0.045941
v -0.063050 -0.167410 0.194468
v -0.108503 -0.185862 0.148160
v -0.096234 -0.257876 0.163572
v -0.132704 -0.235017 0.125857
v -0.171526 -0.303336 0.092796
v -0.151637 -0.328736 0.115160
v -0.184725 -0.362255 0.038950
v -0.187990 0.094466 0.190447
v -0.121478 0.063589 0.036426
v -0.155512 0.174610 0.038187
v -0.156659 0.012507 0.155702
v -0.275456 -0.077762 0.268698
v -0.234105 -0.116322 0.212702
v -0.299305 -0.206653 0.180545
v -0.357370 -0.198860 0.230199
v -0.398416 -0.283416 0.101022
v -0.439280 -0.287480 0.124829
v -0.451418 -0.305849 0.036680
v 0.248092 -0.061575 -0.097892
v 0.183633 0.003301 -0.055492
v 0.197941 -0.025856 -0.122059
v 0.246733 -0.048501 -0.053223
v 0.216181 -0.122137 -0.166870
v 0.254990 -0.127916 -0.129369
v 0.262330 -0.198503 -0.123371
v 0.225960 -0.216691 -0.160361
v 0.274343 -0.314025 -0.083073
v 0.252472 -0.332356 -0.100479
v 0.265089 -0.375395 -0.060341
v 0.183633 0.003301 0.055492
v 0.248092 -0.061575 0.097892
v 0.197941 -0.025856 0.122059
v 0.246733 -0.048501 0.053223
v 0.216181 -0.122137 0.166870
v 0.254990 -0.127916 0.129369
v 0.262330 -0.198503 0.123371
v 0.225960 -0.216691 0.160361
v 0.274343 -0.314025 0.083073
v 0.252472 -0.332356 0.100479
v 0.265089 -0.375395 0.060341
v -0.389298 0.140682 -0.034671
v -0.279109 0.156678 -0.036682
v -0.280741 0.157069 -0.000000
v -0.388403 0.141871 -0.000000
v -0.279109 0.156678 0.036682
v -0.389298 0.140682 0.034671
v -0.280741 0.157069 -0.000000
v -0.388403 0.141871 -0.000000
v -0.121478 0.063589 -0.036426
v -0.155512 0.174610 -0.038187
v -0.156501 0.172779 -0.000000
v -0.123999 0.063795 0.000000
v -0.156501 0.172779 -0.000000
v -0.121478 0.063589 0.036426
v -0.123999 0.063795 0.000000
v -0.155512 0.174610 0.038187
v -0.121478 0.063589 -0.036426
v -0.243083 -0.007465 -0.114687
v -0.156659 0.012507 -0.155702
v -0.234034 0.028307 -0.033201
v -0.234105 -0.116322 -0.212702
v -0.288926 -0.102684 -0.152936
v -0.299305 -0.206653 -0.180545
v -0.337684 -0.162438 -0.129007
v -0.417411 -0.247020 -0.075860
v -0.398416 -0.283416 -0.101022
v -0.451418 -0.305849 -0.036680
v -0.234034 0.028307 0.033201
v -0.121478 0.063589 0.036426
v -0.243083 -0.007465 0.114687
v -0.156659 0.012507 0.155702
v -0.234105 -0.116322 0.212702
v -0.288926 -0.102684 0.152936
v -0.299305 -0.206653 0.180545
v -0.337684 -0.162438 0.129007
v -0.417411 -0.247020 0.075860
v -0.398416 -0.283416 0.101022
v -0.451418 -0.305849 0.036680
v 0.351730 0.005049 -0.117352
v 0.408133 -0.009935 -0.092331
v 0.403733 -0.001005 -0.056971
v 0.331558 0.024198 -0.060101
v 0.394709 -0.066620 -0.153298
v 0.431999 -0.058370 -0.115614
v 0.457893 -0.110923 -0.109309
v 0.430483 -0.139390 -0.144771
v 0.502116 -0.200674 -0.077923
v 0.487582 -0.225386 -0.096110
v 0.519648 -0.264156 -0.051796
v 0.331558 0.024198 0.060101
v 0.403733 -0.001005 0.056971
v 0.351730 0.005049 0.117352
v 0.408133 -0.009935 0.092331
v 0.394709 -0.066620 0.153298
v 0.431999 -0.058370 0.115614
v 0.457893 -0.110923 0.109309
v 0.430483 -0.139390 0.144771
v 0.502116 -0.200674 0.077923
v 0.487582 -0.225386 0.096110
v 0.519648 -0.264156 0.051796
v 0.331558 0.024198 -0.060101
v 0.357358 0.093114 0.000000
v 0.356484 0.094887 -0.061822
v 0.333978 0.024315 0.000000
v 0.357358 0.093114 0.000000
v 0.331558 0.024198 0.060101
v 0.356484 0.094887 0.061822
v 0.333978 0.024315 0.000000
v -0.335427 0.189904 -0.202167
v -0.279109 0.156678 -0.036682
v -0.318316 0.108982 -0.167375
v -0.295113 0.265836 -0.037862
v -0.444561 0.023392 -0.288197
v -0.412371 -0.017736 -0.231554
v -0.492949 -0.130388 -0.189370
v -0.546283 -0.112882 -0.237386
v -0.576817 -0.177599 -0.102889
v -0.613835 -0.174379 -0.124204
v -0.643644 -0.167022 -0.038659
v -0.335427 0.189904 0.202167
v -0.279109 0.156678 0.036682
v -0.295113 0.265836 0.037862
v -0.318316 0.108982 0.167375
v -0.444561 0.023392 0.288197
v -0.412371 -0.017736 0.231554
v -0.492949 -0.130388 0.189370
v -0.546283 -0.112882 0.237386
v -0.576817 -0.177599 0.102889
v -0.613835 -0.174379 0.124204
v -0.643644 -0.167022 0.038659
v -0.479344 0.240755 0.179755
v -0.541045 0.289400 -0.000000
v -0.428398 0.295054 -0.000000
v -0.575717 0.252445 0.122339
v -0.479344 0.240755 -0.179755
v -0.541045 0.289400 -0.000000
v -0.575717 0.252445 -0.122339
v -0.428398 0.295054 -0.000000
v -0.659426 0.163228 0.330039
v -0.479344 0.240755 0.179755
v -0.499744 0.333419 0.233373
v -0.602338 0.109666 0.254213
v -0.659426 0.163228 -0.330039
v -0.479344 0.240755 -0.179755
v -0.602338 0.109666 -0.254213
v -0.499744 0.333419 -0.233373
v -0.279109 0.156678 -0.036682
v -0.401371 0.102278 -0.128040
v -0.318316 0.108982 -0.167375
v -0.389298 0.140682 -0.034671
v -0.412371 -0.017736 -0.231554
v -0.460716 0.001924 -0.172189
v -0.516413 -0.083093 -0.140051
v -0.492949 -0.130388 -0.189370
v -0.576817 -0.177599 -0.102889
v -0.586996 -0.141873 -0.080664
v -0.643644 -0.167022 -0.038659
v -0.389298 0.140682 0.034671
v -0.279109 0.156678 0.036682
v -0.401371 0.102278 0.128040
v -0.318316 0.108982 0.167375
v -0.412371 -0.017736 0.231554
v -0.460716 0.001924 0.172189
v -0.516413 -0.083093 0.140051
v -0.492949 -0.130388 0.189370
v -0.576817 -0.177599 0.102889
v -0.586996 -0.141873 0.080664
v -0.643644 -0.167022 0.038659
v -0.279109 0.156678 -0.036682
v -0.295113 0.265836 -0.037862
v -0.295940 0.264736 -0.000000
v -0.280741 0.157069 -0.000000
v -0.295940 0.264736 -0.000000
v -0.279109 0.156678 0.036682
v -0.280741 0.157069 -0.000000
v -0.295113 0.265836 0.037862
v -0.602338 0.109666 0.254213
v -0.575717 0.252445 0.122339
v -0.479344 0.240755 0.179755
v -0.659426 0.163228 0.173013
v -0.479344 0.240755 -0.179755
v -0.575717 0.252445 -0.122339
v -0.602338 0.109666 -0.254213
v -0.659426 0.163228 -0.173013
v -0.499744 0.333419 0.233373
v -0.428398 0.295054 -0.000000
v -0.433602 0.403914 -0.000000
v -0.479344 0.240755 0.179755
v -0.499744 0.333419 -0.233373
v -0.428398 0.295054 -0.000000
v -0.479344 0.240755 -0.179755
v -0.433602 0.403914 -0.000000
v 0.722554 0.295112 -0.000000
v 0.745650 0.329427 -0.067347
v 0.737436 0.282321 -0.047806
v 0.724686 0.347445 -0.000000
v 0.799700 0.286698 -0.098974
v 0.745650 0.329427 0.067347
v 0.775803 0.251990 -0.070257
v 0.737436 0.282321 0.047806
v 0.799700 0.286698 0.098974
v 0.775803 0.251990 0.070257
v 0.818874 0.222371 -0.051613
v 0.860376 0.244974 -0.072709
v 0.837899 0.210245 -0.000000
v 0.887177 0.227890 -0.000000
v 0.860376 0.244974 0.072709
v 0.818874 0.222371 0.051613
v 0.799700 0.286698 0.098974
v 0.775803 0.251990 0.070257
v -0.602338 0.109666 0.254213
v -0.743134 0.074010 0.122339
v -0.659426 0.163228 0.173013
v -0.725332 -0.021423 0.179755
v -0.743134 0.074010 -0.122339
v -0.602338 0.109666 -0.254213
v -0.659426 0.163228 -0.173013
v -0.725332 -0.021423 -0.179756
v 0.993601 0.488281 -0.067535
v 0.948930 0.447081 -0.040040
v 0.929344 0.511718 -0.091930
v 0.910834 0.460976 -0.054504
v 0.965573 0.441661 -0.000000
v 0.876132 0.476318 -0.037087
v 1.021671 0.479140 -0.000000
v 0.870813 0.537596 -0.062554
v 0.993601 0.488281 0.067535
v 0.847776 0.548933 -0.000000
v 0.948930 0.447081 0.040040
v 0.929344 0.511718 0.091930
v 0.910834 0.460976 0.054504
v 0.862473 0.483040 -0.000000
v 0.876132 0.476318 0.037087
v 0.870813 0.537596 0.062554
v 0.929344 0.511718 0.091930
v 0.910834 0.460976 0.054504
v -0.725332 -0.021423 0.179755
v -0.776278 -0.075723 0.000000
v -0.777807 0.037055 0.000000
v -0.743134 0.074010 0.122339
v -0.777807 0.037055 0.000000
v -0.725332 -0.021423 -0.179756
v -0.743134 0.074010 -0.122339
v -0.776278 -0.075723 0.000000
vn -0.8551 0.1060 0.5074
vn -0.9988 -0.0483 -0.0004
vn -0.9988 -0.0483 -0.0005
vn -0.8552 0.1061 -0.5074
vn 0.3727 0.9280 -0.0003
vn 0.3647 0.9304 0.0368
vn 0.3648 0.9304 0.0368
vn 0.3708 0.9276 0.0454
vn 0.3728 0.9279 -0.0004
vn 0.3649 0.9303 -0.0365
vn 0.3649 0.9303 -0.0364
vn 0.3709 0.9276 -0.0451
vn 0.3710 0.9276 -0.0451
vn 0.3784 0.9249 -0.0382
vn 0.3785 0.9248 -0.0385
vn 0.3785 0.9248 0.0385
vn 0.3784 0.9249 0.0382
vn -0.8551 0.1061 0.5075
vn -0.5073 0.4761 0.7183
vn -0.8551 0.1061 -0.5075
vn -0.5073 0.4761 -0.7183
vn -0.5073 0.4762 -0.7183
vn 1.0000 0.0064 -0.0003
vn 0.7234 0.1119 -0.6813
vn 1.0000 0.0065 -0.0005
vn 0.7234 0.1124 0.6812
vn 0.7155 0.1160 -0.6889
vn 0.7155 0.1159 0.6890
vn 0.0992 0.3552 0.9295
vn 0.0983 0.3552 0.9296
vn 0.0990 0.3549 -0.9296
vn 0.0985 0.3551 -0.9296
vn -0.4803 0.5918 -0.6474
vn -0.4742 0.5885 -0.6549
vn -0.7187 0.6954 -0.0005
vn -0.4803 0.5918 0.6474
vn -0.4741 0.5886 0.6549
vn 0.0982 0.3552 0.9296
vn 0.0817 0.0853 0.9930
vn -0.2202 0.8085 0.5457
vn -0.5963 0.3581 0.7185
vn -0.8814 0.4723 -0.0005
vn 0.2818 0.6179 0.7340
vn 0.7432 0.4276 0.5145
vn 0.7141 -0.1678 0.6796
vn -0.4489 0.8936 -0.0005
vn 0.9402 0.3405 -0.0005
vn 0.9639 -0.2662 -0.0004
vn 0.7141 -0.1675 -0.6798
vn -0.2203 0.8086 -0.5456
vn -0.5963 0.3581 -0.7185
vn 0.0798 0.0811 -0.9935
vn 0.2819 0.6179 -0.7340
vn 0.7433 0.4276 -0.5145
vn 0.0817 0.0856 -0.9930
vn 0.2818 0.6179 -0.7340
vn -0.1146 0.8082 -0.5776
vn -0.1181 0.8108 -0.5733
vn 0.3124 0.4843 -0.8172
vn 0.3123 0.4841 -0.8174
vn -0.2955 0.9553 -0.0005
vn 0.7853 0.1511 -0.6004
vn 0.7803 0.1539 -0.6062
vn -0.1147 0.8087 0.5770
vn 1.0000 0.0025 -0.0005
vn -0.1181 0.8108 0.5733
vn 0.3122 0.4843 0.8173
vn 1.0000 0.0026 -0.0004
vn 0.7801 0.1544 0.6063
vn 0.7851 0.1508 0.6007
vn 0.3123 0.4842 0.8174
vn 0.3123 0.4842 0.8173
vn -0.9999 -0.0131 -0.0005
vn -0.8609 0.1344 -0.4907
vn -0.9999 -0.0131 -0.0004
vn -0.8609 0.1344 0.4907
vn -0.8609 0.1343 0.4908
vn -0.5072 0.4762 0.7183
vn -0.1597 0.8466 0.5076
vn -0.1597 0.8467 -0.5076
vn -0.5072 0.4762 -0.7183
vn -0.0434 0.0153 -0.9989
vn -0.6119 0.3474 -0.7106
vn -0.6818 0.2626 -0.6828
vn -0.8700 0.4931 -0.0004
vn -0.9336 0.3583 -0.0005
vn -0.6818 0.2626 0.6828
vn -0.6123 0.3476 0.7101
vn -0.0434 0.0152 0.9989
vn -0.0092 0.0036 1.0000
vn -0.0366 0.0309 0.9989
vn -0.5691 0.4452 0.6913
vn -0.7860 0.6182 -0.0005
vn -0.5691 0.4452 -0.6913
vn -0.0366 0.0309 -0.9989
vn -0.0093 0.0036 -1.0000
vn 0.5485 -0.4038 -0.7321
vn 0.6397 -0.2563 -0.7247
vn 0.6109 -0.3412 -0.7144
vn 0.9279 -0.3727 -0.0005
vn 0.8761 -0.4822 -0.0004
vn 0.8069 -0.5907 -0.0005
vn 0.5485 -0.4038 0.7321
vn 0.6109 -0.3412 0.7144
vn 0.6396 -0.2564 0.7246
vn -0.0092 0.0035 1.0000
vn -0.0365 0.0309 0.9989
vn -0.9859 -0.1303 0.1050
vn -0.9903 -0.1372 0.0230
vn -0.9874 -0.1323 0.0865
vn -0.9859 -0.1303 -0.1050
vn -0.9903 -0.1372 -0.0229
vn -0.9874 -0.1323 -0.0865
vn -0.5249 0.4928 -0.6939
vn -0.8609 0.1344 -0.4908
vn -0.8608 0.1344 0.4908
vn -0.5249 0.4928 0.6940
vn -0.3091 0.7635 -0.5670
vn -0.1577 0.9725 -0.1714
vn -0.2944 0.7820 -0.5494
vn -0.1596 0.9667 -0.1998
vn -0.5622 0.4510 -0.6932
vn -0.5805 0.4293 -0.6919
vn -0.7988 0.1491 -0.5829
vn -0.7850 0.1677 -0.5964
vn -0.8994 -0.0014 -0.4372
vn -0.9132 -0.0209 -0.4070
vn -0.9436 -0.0767 -0.3220
vn -0.1577 0.9725 0.1715
vn -0.3091 0.7635 0.5671
vn -0.2944 0.7820 0.5494
vn -0.1596 0.9667 0.1998
vn -0.5622 0.4510 0.6932
vn -0.5805 0.4293 0.6919
vn -0.7988 0.1491 0.5829
vn -0.7849 0.1676 0.5965
vn -0.8993 -0.0014 0.4373
vn -0.9132 -0.0209 0.4070
vn -0.9436 -0.0767 0.3220
vn -0.1969 0.8617 0.4677
vn -0.1929 0.8663 0.4607
vn -0.1381 0.9207 0.3649
vn -0.3619 0.6953 0.6210
vn -0.3523 0.7052 0.6153
vn -0.6670 0.3564 0.6543
vn -0.6249 0.4091 0.6650
vn -0.9046 0.0396 0.4243
vn -0.9347 -0.0072 0.3553
vn -0.1969 0.8617 -0.4677
vn -0.1382 0.9208 -0.3648
vn -0.1929 0.8663 -0.4607
vn -0.3619 0.6953 -0.6209
vn -0.3523 0.7053 -0.6152
vn -0.6670 0.3564 -0.6543
vn -0.6249 0.4091 -0.6650
vn -0.9047 0.0396 -0.4243
vn -0.9347 -0.0072 -0.3552
vn -0.0161 0.9999 -0.0004
vn -0.1596 0.8467 0.5076
vn -0.0160 0.9999 -0.0004
vn -0.1596 0.8467 0.5075
vn -0.0160 0.9999 -0.0005
vn -0.1596 0.8467 -0.5075
vn -0.9558 -0.2720 0.1118
vn -0.9541 -0.2685 0.1324
vn -0.9589 -0.2808 0.0396
vn -0.9540 -0.2691 -0.1323
vn -0.9558 -0.2720 -0.1118
vn -0.9589 -0.2808 -0.0396
vn -0.9589 -0.2808 -0.0395
vn 0.9442 -0.3101 0.1109
vn 0.9454 -0.3111 0.0972
vn 0.9482 -0.3169 0.0211
vn 0.9482 -0.3169 0.0210
vn 0.9482 -0.3169 -0.0210
vn 0.9442 -0.3101 -0.1108
vn 0.9454 -0.3111 -0.0972
vn -0.4030 0.7023 -0.5868
vn -0.2984 0.9394 -0.1686
vn -0.3864 0.7334 -0.5593
vn -0.2993 0.9324 -0.2027
vn -0.5679 0.4001 -0.7193
vn -0.5875 0.3688 -0.7203
vn -0.7262 0.1285 -0.6754
vn -0.7378 0.1071 -0.6665
vn -0.8825 -0.1685 -0.4391
vn -0.8746 -0.1489 -0.4615
vn -0.9161 -0.3481 -0.1988
vn -0.2984 0.9394 0.1686
vn -0.4030 0.7023 0.5869
vn -0.3864 0.7334 0.5594
vn -0.2993 0.9324 0.2028
vn -0.5679 0.4001 0.7194
vn -0.5874 0.3688 0.7203
vn -0.7261 0.1286 0.6754
vn -0.7377 0.1071 0.6665
vn -0.8825 -0.1684 0.4391
vn -0.8746 -0.1489 0.4615
vn -0.9161 -0.3482 0.1989
vn -0.1597 0.9668 -0.1997
vn -0.1372 0.9900 0.0337
vn -0.1372 0.9900 -0.0337
vn -0.1577 0.9725 0.1714
vn 0.3229 0.9335 -0.1558
vn 0.3971 0.7194 -0.5699
vn 0.3815 0.7567 -0.5309
vn 0.3239 0.9276 -0.1861
vn 0.5458 0.4052 -0.7334
vn 0.5535 0.3933 -0.7341
vn 0.7174 0.1100 -0.6880
vn 0.7245 0.0963 -0.6825
vn 0.8567 -0.1666 -0.4882
vn 0.8713 -0.2046 -0.4461
vn 0.8997 -0.3532 -0.2565
vn 0.3239 0.9276 0.1862
vn 0.3229 0.9335 0.1559
vn 0.3971 0.7194 0.5699
vn 0.3814 0.7567 0.5310
vn 0.5458 0.4052 0.7334
vn 0.5535 0.3933 0.7342
vn 0.7173 0.1100 0.6880
vn 0.7245 0.0963 0.6825
vn 0.8567 -0.1666 0.4882
vn 0.8712 -0.2046 0.4461
vn 0.8996 -0.3535 0.2566
vn -0.8821 -0.0766 0.4648
vn -0.9540 -0.2691 0.1324
vn -0.9092 -0.1304 0.3953
vn -0.9558 -0.2719 0.1119
vn -0.6569 0.3269 0.6794
vn -0.6336 0.3680 0.6806
vn -0.4360 0.6570 0.6150
vn -0.4333 0.6641 0.6093
vn -0.4196 0.6992 0.5789
vn -0.4205 0.6971 0.5808
vn -0.4399 0.6599 0.6091
vn -0.9093 -0.1304 -0.3953
vn -0.9558 -0.2720 -0.1119
vn -0.9540 -0.2691 -0.1324
vn -0.8821 -0.0766 -0.4648
vn -0.6569 0.3269 -0.6794
vn -0.6336 0.3680 -0.6805
vn -0.4361 0.6570 -0.6149
vn -0.4333 0.6641 -0.6093
vn -0.4196 0.6992 -0.5789
vn -0.4205 0.6971 -0.5807
vn -0.4400 0.6599 -0.6090
vn -0.5249 0.4929 -0.6939
vn -0.1890 0.8505 -0.4909
vn -0.1890 0.8505 0.4909
vn -0.5249 0.4929 0.6940
vn -0.2984 0.9395 -0.1684
vn -0.2993 0.9324 -0.2026
vn -0.2818 0.9581 0.0513
vn -0.2993 0.9324 0.2027
vn -0.2984 0.9395 0.1685
vn -0.2818 0.9581 -0.0513
vn 0.6220 0.5399 -0.5671
vn 0.6210 0.5800 -0.5272
vn 0.6286 0.7615 -0.1578
vn 0.6267 0.7557 -0.1900
vn 0.6515 0.2078 -0.7296
vn 0.6542 0.1970 -0.7303
vn 0.7186 -0.1342 -0.6824
vn 0.7213 -0.1537 -0.6753
vn 0.7528 -0.4703 -0.4606
vn 0.7512 -0.5204 -0.4061
vn 0.7119 -0.6747 -0.1950
vn 0.6267 0.7557 0.1901
vn 0.6286 0.7615 0.1578
vn 0.6219 0.5399 0.5672
vn 0.6210 0.5800 0.5272
vn 0.6515 0.2078 0.7296
vn 0.6541 0.1969 0.7303
vn 0.7186 -0.1342 0.6824
vn 0.7213 -0.1537 0.6754
vn 0.7528 -0.4703 0.4606
vn 0.7512 -0.5204 0.4061
vn 0.7118 -0.6747 0.1951
vn -0.5426 0.6336 -0.5514
vn -0.4958 0.8545 -0.1549
vn -0.5291 0.6807 -0.5067
vn -0.4947 0.8485 -0.1880
vn -0.6391 0.3062 -0.7055
vn -0.6657 0.2184 -0.7136
vn -0.7425 -0.0443 -0.6683
vn -0.7456 -0.0502 -0.6646
vn -0.8473 -0.3354 -0.4117
vn -0.8433 -0.3100 -0.4390
vn -0.8357 -0.5281 -0.1504
vn -0.4958 0.8545 0.1549
vn -0.5426 0.6336 0.5515
vn -0.5291 0.6807 0.5067
vn -0.4947 0.8485 0.1881
vn -0.6391 0.3062 0.7056
vn -0.6656 0.2184 0.7136
vn -0.7430 -0.0444 0.6678
vn -0.7455 -0.0502 0.6646
vn -0.8473 -0.3354 0.4117
vn -0.8433 -0.3100 0.4390
vn -0.8357 -0.5281 0.1504
vn 0.9001 -0.1752 0.3990
vn 0.8803 -0.1373 0.4541
vn 0.9454 -0.3111 0.0973
vn 0.6959 0.1920 0.6920
vn 0.6875 0.2097 0.6953
vn 0.5672 0.4402 0.6961
vn 0.5641 0.4459 0.6949
vn 0.5272 0.4803 0.7010
vn 0.5271 0.4803 0.7010
vn 0.5211 0.4439 0.7290
vn 0.9001 -0.1752 -0.3989
vn 0.9442 -0.3101 -0.1109
vn 0.8804 -0.1372 -0.4540
vn 0.6959 0.1920 -0.6920
vn 0.6875 0.2097 -0.6952
vn 0.5672 0.4402 -0.6960
vn 0.5641 0.4460 -0.6949
vn 0.5272 0.4803 -0.7010
vn 0.5268 0.4800 -0.7015
vn 0.5211 0.4439 -0.7290
vn 0.7769 -0.6196 0.1118
vn 0.7773 -0.6218 0.0962
vn 0.7783 -0.6277 0.0161
vn 0.7783 -0.6277 -0.0161
vn 0.7770 -0.6196 -0.1118
vn 0.7773 -0.6218 -0.0962
vn -0.8677 -0.4839 0.1138
vn -0.8706 -0.4916 0.0191
vn -0.8690 -0.4850 0.0982
vn -0.8706 -0.4916 -0.0190
vn -0.8677 -0.4839 -0.1138
vn -0.8690 -0.4850 -0.0981
vn 0.3161 0.9483 0.0298
vn 0.3239 0.9276 -0.1860
vn 0.3161 0.9482 0.0298
vn 0.3161 0.9482 -0.0298
vn 0.3239 0.9276 0.1861
vn 0.3229 0.9335 0.1558
vn 0.2536 -0.6766 0.6913
vn 0.1061 -0.7031 0.7032
vn 0.0983 -0.7041 0.7032
vn -0.4958 0.8545 -0.1548
vn -0.4908 0.8709 0.0278
vn -0.4907 0.8709 0.0279
vn -0.4907 0.8709 -0.0278
vn -0.4958 0.8545 0.1548
vn -0.4947 0.8485 0.1880
vn 0.6286 0.7615 -0.1577
vn 0.6271 0.7786 0.0230
vn 0.6267 0.7557 -0.1899
vn 0.6271 0.7786 -0.0229
vn 0.6267 0.7557 0.1900
vn -0.3151 -0.6365 0.7040
vn -0.2593 -0.6635 0.7018
vn -0.3150 -0.6364 0.7041
vn -0.2526 -0.6668 0.7011
vn 0.1598 -0.8466 0.5077
vn 0.0162 -0.9999 -0.0004
vn 0.1598 -0.8466 0.5076
vn 0.0162 -0.9999 -0.0005
vn 0.1598 -0.8466 -0.5076
vn 0.7580 0.4258 -0.4941
vn 0.7988 0.5702 -0.1920
vn 0.7548 0.3982 -0.5212
vn 0.8022 0.5755 -0.1589
vn 0.7304 0.0465 -0.6814
vn 0.7304 0.0455 -0.6815
vn 0.6877 -0.3415 -0.6407
vn 0.6892 -0.3315 -0.6442
vn 0.6236 -0.6615 -0.4165
vn 0.6208 -0.6695 -0.4078
vn 0.5322 -0.8252 -0.1891
vn 0.7580 0.4258 0.4941
vn 0.7988 0.5702 0.1920
vn 0.8022 0.5755 0.1589
vn 0.7548 0.3982 0.5213
vn 0.7304 0.0465 0.6815
vn 0.7304 0.0455 0.6815
vn 0.6877 -0.3415 0.6407
vn 0.6892 -0.3315 0.6442
vn 0.6236 -0.6615 0.4165
vn 0.6208 -0.6695 0.4078
vn 0.5321 -0.8252 0.1892
vn -0.5975 0.6094 -0.5213
vn -0.5896 0.7920 -0.1588
vn -0.5928 0.6360 -0.4941
vn -0.5876 0.7861 -0.1920
vn -0.6816 0.2664 -0.6816
vn -0.6822 0.2653 -0.6813
vn -0.7575 -0.1059 -0.6442
vn -0.7590 -0.1157 -0.6407
vn -0.7949 -0.4372 -0.4207
vn -0.7946 -0.4234 -0.4352
vn -0.7680 -0.5992 -0.2258
vn -0.5896 0.7919 0.1588
vn -0.5974 0.6093 0.5213
vn -0.5928 0.6359 0.4941
vn -0.5876 0.7861 0.1920
vn -0.6815 0.2664 0.6816
vn -0.6822 0.2653 0.6813
vn -0.7575 -0.1059 0.6442
vn -0.7590 -0.1157 0.6408
vn -0.7948 -0.4373 0.4208
vn -0.7946 -0.4234 0.4352
vn -0.7680 -0.5992 0.2258
vn 0.7770 -0.4877 0.3980
vn 0.7769 -0.6195 0.1119
vn 0.7703 -0.4439 0.4577
vn 0.7773 -0.6218 0.0963
vn 0.7154 -0.0815 0.6939
vn 0.7149 -0.0649 0.6962
vn 0.6877 0.2146 0.6935
vn 0.6873 0.2233 0.6912
vn 0.6557 0.2584 0.7094
vn 0.6559 0.2575 0.7096
vn 0.6240 0.1871 0.7587
vn 0.7770 -0.4877 -0.3980
vn 0.7770 -0.6195 -0.1118
vn 0.7773 -0.6218 -0.0963
vn 0.7703 -0.4439 -0.4577
vn 0.7155 -0.0814 -0.6939
vn 0.7149 -0.0649 -0.6962
vn 0.6873 0.2145 -0.6940
vn 0.6874 0.2233 -0.6911
vn 0.6558 0.2584 -0.7094
vn 0.6559 0.2575 -0.7096
vn 0.6240 0.1871 -0.7587
vn 0.0983 -0.7041 0.7033
vn -0.1244 -0.7045 0.6987
vn -0.1215 -0.7047 0.6990
vn -0.2592 -0.6636 0.7018
vn -0.1216 -0.7047 0.6990
vn -0.2525 -0.6668 0.7011
vn -0.1245 -0.7045 0.6987
vn -0.8331 -0.2506 0.4931
vn -0.8677 -0.4838 0.1138
vn -0.8503 -0.3111 0.4245
vn -0.6586 0.1529 0.7368
vn -0.5927 0.2909 0.7511
vn -0.5026 0.5204 0.6903
vn -0.5035 0.5223 0.6883
vn -0.5516 0.5918 0.5878
vn -0.5496 0.5898 0.5917
vn -0.5719 0.6195 0.5377
vn -0.8690 -0.4850 -0.0982
vn -0.8503 -0.3110 -0.4244
vn -0.8331 -0.2506 -0.4930
vn -0.6586 0.1529 -0.7368
vn -0.5923 0.2907 -0.7515
vn -0.5026 0.5204 -0.6903
vn -0.5036 0.5223 -0.6882
vn -0.5516 0.5918 -0.5878
vn -0.5496 0.5898 -0.5916
vn -0.5719 0.6195 -0.5377
vn 0.5896 -0.8004 0.1079
vn 0.5908 -0.8017 0.0914
vn 0.5915 -0.8062 0.0122
vn 0.5915 -0.8062 0.0123
vn 0.5915 -0.8062 -0.0122
vn 0.5889 -0.8010 -0.1079
vn 0.5908 -0.8017 -0.0913
vn -0.1216 -0.7048 -0.6990
vn -0.2525 -0.6668 -0.7011
vn -0.1244 -0.7045 -0.6987
vn -0.2593 -0.6636 -0.7017
vn -0.3150 -0.6364 -0.7041
vn -0.3150 -0.6365 -0.7040
vn 0.0983 -0.7041 -0.7032
vn 0.1061 -0.7031 -0.7032
vn 0.2536 -0.6766 -0.6913
vn -0.8046 -0.5839 0.1079
vn -0.8089 -0.5878 0.0120
vn -0.8063 -0.5845 0.0913
vn -0.8089 -0.5879 0.0122
vn -0.8089 -0.5879 -0.0121
vn -0.8050 -0.5833 -0.1079
vn -0.8063 -0.5845 -0.0913
vn -0.8089 -0.5879 -0.0122
vn -0.1889 0.8505 -0.4908
vn -0.0502 0.9987 -0.0005
vn -0.1889 0.8505 -0.4909
vn -0.0502 0.9987 -0.0004
vn -0.1889 0.8505 0.4909
vn 0.2686 0.6522 0.7089
vn 0.1461 0.6902 0.7087
vn 0.2614 0.6552 0.7088
vn 0.3261 0.6252 0.7091
vn 0.1481 0.6895 0.7090
vn -0.0883 0.6891 0.7193
vn -0.0795 0.6901 0.7193
vn -0.2594 0.6580 0.7069
vn -0.2593 0.6581 0.7069
vn 0.8022 0.5755 -0.1588
vn 0.8058 0.5919 0.0181
vn 0.7988 0.5702 -0.1919
vn 0.8058 0.5918 0.0181
vn 0.8058 0.5919 -0.0180
vn 0.8058 0.5918 -0.0181
vn 0.1461 0.6903 -0.7086
vn 0.2614 0.6552 -0.7088
vn 0.1481 0.6895 -0.7090
vn 0.2682 0.6523 -0.7089
vn -0.0883 0.6891 -0.7193
vn -0.0795 0.6901 -0.7193
vn -0.5896 0.7920 -0.1587
vn -0.5876 0.7861 -0.1919
vn -0.5873 0.8092 0.0181
vn -0.5873 0.8091 0.0181
vn -0.5873 0.8092 -0.0181
vn -0.5895 0.7920 0.1587
vn 0.7916 0.2867 -0.5396
vn 0.8594 0.4755 -0.1881
vn 0.7773 0.2419 -0.5808
vn 0.8633 0.4803 -0.1549
vn 0.6531 -0.1371 -0.7448
vn 0.6300 -0.2154 -0.7462
vn 0.5342 -0.5702 -0.6240
vn 0.5369 -0.5572 -0.6335
vn 0.4636 -0.8034 -0.3736
vn 0.4665 -0.7975 -0.3824
vn 0.4089 -0.8874 -0.2128
vn 0.7916 0.2867 0.5396
vn 0.8594 0.4754 0.1881
vn 0.8633 0.4803 0.1549
vn 0.7772 0.2419 0.5808
vn 0.6530 -0.1371 0.7448
vn 0.6299 -0.2154 0.7462
vn 0.5342 -0.5702 0.6241
vn 0.5368 -0.5572 0.6335
vn 0.4636 -0.8034 0.3737
vn 0.4666 -0.7975 0.3825
vn 0.4089 -0.8874 0.2128
vn -0.0004 -0.0003 1.0000
vn -0.0004 -0.0004 1.0000
vn 0.2683 0.6523 -0.7089
vn 0.3260 0.6252 -0.7091
vn -0.7197 0.4003 -0.5673
vn -0.7692 0.6101 -0.1900
vn -0.7271 0.4401 -0.5269
vn -0.7719 0.6158 -0.1577
vn -0.6805 0.0700 -0.7294
vn -0.6805 0.0582 -0.7304
vn -0.6754 -0.2798 -0.6823
vn -0.6744 -0.2983 -0.6754
vn -0.6479 -0.5356 -0.5416
vn -0.6483 -0.5339 -0.5428
vn -0.6336 -0.6188 -0.4643
vn -0.7271 0.4401 0.5269
vn -0.7719 0.6158 0.1578
vn -0.7692 0.6101 0.1900
vn -0.7197 0.4003 0.5673
vn -0.6805 0.0699 0.7294
vn -0.6805 0.0582 0.7304
vn -0.6754 -0.2798 0.6823
vn -0.6744 -0.2983 0.6754
vn -0.6479 -0.5356 0.5416
vn -0.6483 -0.5339 0.5428
vn -0.6336 -0.6188 0.4643
vn 0.6210 -0.6570 0.4275
vn 0.6160 -0.6950 0.3708
vn 0.5896 -0.8004 0.1080
vn 0.6957 -0.2849 0.6595
vn 0.6973 -0.2769 0.6611
vn 0.7479 0.0348 0.6629
vn 0.7492 0.0406 0.6611
vn 0.7809 0.2252 0.5826
vn 0.7791 0.2155 0.5886
vn 0.7918 0.3424 0.5057
vn 0.4977 -0.8599 0.1138
vn 0.4977 -0.8618 0.0982
vn 0.4960 -0.8681 0.0191
vn 0.5896 -0.8004 -0.1080
vn 0.5908 -0.8017 -0.0914
vn 0.6210 -0.6570 -0.4275
vn 0.6160 -0.6950 -0.3707
vn 0.6953 -0.2847 -0.6600
vn 0.6973 -0.2770 -0.6611
vn 0.7479 0.0348 -0.6629
vn 0.7487 0.0406 -0.6617
vn 0.7809 0.2252 -0.5826
vn 0.7792 0.2155 -0.5886
vn 0.7919 0.3427 -0.5054
vn 0.4977 -0.8618 -0.0981
vn 0.4977 -0.8599 -0.1138
vn 0.4960 -0.8681 -0.0190
vn -0.6326 -0.7664 0.1119
vn -0.6327 -0.7743 0.0161
vn -0.6332 -0.7680 0.0962
vn -0.6326 -0.7743 0.0162
vn -0.6327 -0.7743 -0.0160
vn -0.6326 -0.7664 -0.1118
vn -0.6332 -0.7680 -0.0961
vn -0.6326 -0.7743 -0.0161
vn -0.7915 -0.4370 0.4273
vn -0.8050 -0.5833 0.1080
vn -0.7978 -0.4753 0.3709
vn -0.8062 -0.5845 0.0914
vn -0.7498 -0.0600 0.6590
vn -0.7487 -0.0521 0.6609
vn -0.7012 0.2665 0.6613
vn -0.7017 0.2614 0.6628
vn -0.6756 0.4638 0.5731
vn -0.6745 0.4715 0.5681
vn -0.6416 0.6077 0.4680
vn -0.7978 -0.4753 -0.3708
vn -0.8062 -0.5845 -0.0913
vn -0.7915 -0.4370 -0.4273
vn -0.7493 -0.0599 -0.6595
vn -0.7487 -0.0522 -0.6608
vn -0.7008 0.2663 -0.6618
vn -0.7018 0.2614 -0.6627
vn -0.6757 0.4638 -0.5731
vn -0.6745 0.4715 -0.5681
vn -0.6415 0.6074 -0.4686
vn -0.0884 0.6891 -0.7193
vn -0.2593 0.6581 -0.7068
vn -0.0796 0.6901 -0.7193
vn -0.3297 -0.9375 0.1109
vn -0.3258 -0.9452 0.0210
vn -0.3296 -0.9391 0.0972
vn -0.3258 -0.9452 -0.0210
vn -0.3297 -0.9375 -0.1109
vn -0.3296 -0.9391 -0.0971
vn 0.8633 0.4803 -0.1548
vn 0.8673 0.4970 0.0279
vn 0.8594 0.4755 -0.1880
vn 0.8673 0.4970 -0.0279
vn 0.8673 0.4970 -0.0278
vn 0.5074 -0.4760 0.7183
vn 0.1599 -0.8466 0.5077
vn 0.5074 -0.4760 -0.7183
vn 0.1598 -0.8466 -0.5077
vn 0.3094 -0.9309 0.1940
vn 0.3075 -0.9358 0.1725
vn 0.2927 -0.9549 0.0503
vn 0.3075 -0.9358 -0.1725
vn 0.3094 -0.9309 -0.1940
vn 0.2927 -0.9549 -0.0503
vn -0.7692 0.6101 -0.1899
vn -0.7737 0.6331 0.0230
vn -0.7719 0.6158 -0.1576
vn -0.7737 0.6331 -0.0229
vn -0.7719 0.6158 0.1577
vn -0.7737 0.6331 -0.0230
vn -0.8123 0.1237 -0.5700
vn -0.9328 0.3085 -0.1862
vn -0.8326 0.1578 -0.5308
vn -0.9372 0.3122 -0.1558
vn -0.6540 -0.1860 -0.7332
vn -0.6492 -0.1987 -0.7342
vn -0.5241 -0.5016 -0.6883
vn -0.5180 -0.5161 -0.6822
vn -0.4176 -0.7264 -0.5458
vn -0.4158 -0.7304 -0.5419
vn -0.3670 -0.8154 -0.4478
vn -0.8326 0.1579 0.5309
vn -0.9371 0.3122 0.1558
vn -0.9328 0.3085 0.1862
vn -0.8122 0.1237 0.5701
vn -0.6540 -0.1860 0.7333
vn -0.6492 -0.1987 0.7342
vn -0.5241 -0.5016 0.6883
vn -0.5180 -0.5160 0.6822
vn -0.4177 -0.7264 0.5458
vn -0.4157 -0.7304 0.5419
vn -0.3670 -0.8154 0.4478
vn 0.5967 -0.6630 0.4521
vn 0.5722 -0.7264 0.3806
vn 0.4977 -0.8599 0.1139
vn 0.6725 -0.3295 0.6627
vn 0.7020 -0.1831 0.6882
vn 0.7099 -0.0414 0.7031
vn 0.7083 -0.0463 0.7044
vn 0.7893 0.0896 0.6075
vn 0.7765 0.0631 0.6269
vn 0.8458 0.2440 0.4745
vn 0.8573 0.1110 -0.5026
vn 0.9487 0.2694 -0.1657
vn 0.8324 0.0660 -0.5502
vn 0.9535 0.2743 -0.1246
vn 0.6266 -0.3139 -0.7134
vn 0.6106 -0.3445 -0.7131
vn 0.4023 -0.6993 -0.5909
vn 0.3932 -0.7153 -0.5777
vn 0.2624 -0.9032 -0.3395
vn 0.2584 -0.9088 -0.3277
vn 0.1971 -0.9648 -0.1742
vn 0.5722 -0.7265 -0.3806
vn 0.5965 -0.6627 -0.4528
vn 0.6725 -0.3295 -0.6626
vn 0.7020 -0.1831 -0.6882
vn 0.7100 -0.0414 -0.7030
vn 0.7083 -0.0463 -0.7044
vn 0.7894 0.0894 -0.6074
vn 0.7765 0.0631 -0.6269
vn 0.8458 0.2440 -0.4745
vn 0.8577 0.1111 0.5019
vn 0.9487 0.2694 0.1657
vn 0.9535 0.2743 0.1247
vn 0.8324 0.0660 0.5502
vn 0.6265 -0.3139 0.7134
vn 0.6105 -0.3445 0.7131
vn 0.4023 -0.6993 0.5909
vn 0.3932 -0.7153 0.5777
vn 0.2624 -0.9032 0.3396
vn 0.2584 -0.9087 0.3277
vn 0.1973 -0.9648 0.1739
vn -0.6629 -0.5925 0.4578
vn -0.6598 -0.6373 0.3981
vn -0.6832 -0.2270 0.6940
vn -0.6863 -0.2104 0.6962
vn -0.7166 0.0680 0.6942
vn -0.7185 0.0768 0.6912
vn -0.7354 0.2293 0.6377
vn -0.7372 0.2498 0.6278
vn -0.7410 0.3287 0.5855
vn -0.6332 -0.7680 -0.0962
vn -0.6629 -0.5925 -0.4577
vn -0.6598 -0.6373 -0.3981
vn -0.6326 -0.7664 -0.1119
vn -0.6832 -0.2270 -0.6940
vn -0.6859 -0.2103 -0.6967
vn -0.7166 0.0680 -0.6942
vn -0.7185 0.0768 -0.6912
vn -0.7354 0.2293 -0.6377
vn -0.7372 0.2498 -0.6278
vn -0.7409 0.3288 -0.5856
vn 0.1626 -0.9701 0.1801
vn 0.1597 -0.9742 0.1597
vn 0.1423 -0.9896 0.0230
vn 0.1598 -0.9742 -0.1596
vn 0.1626 -0.9701 -0.1801
vn 0.1423 -0.9896 -0.0229
vn 0.1423 -0.9896 -0.0230
vn 0.9487 0.2694 -0.1656
vn 0.9536 0.2743 -0.1245
vn 0.9557 0.2897 0.0513
vn 0.9557 0.2897 -0.0513
vn 0.9487 0.2694 0.1656
vn 0.9535 0.2743 0.1246
vn 0.3075 -0.9358 0.1726
vn 0.4275 -0.7420 0.5164
vn 0.4089 -0.7760 0.4802
vn 0.3094 -0.9309 0.1941
vn 0.5820 -0.4343 0.6875
vn 0.6050 -0.3939 0.6919
vn 0.6796 -0.2222 0.6991
vn 0.6810 -0.2135 0.7005
vn 0.7324 -0.1108 0.6718
vn 0.7253 -0.1225 0.6774
vn 0.7763 -0.0297 0.6297
vn 0.4275 -0.7420 -0.5164
vn 0.4089 -0.7761 -0.4801
vn 0.5820 -0.4343 -0.6875
vn 0.6051 -0.3940 -0.6919
vn 0.6796 -0.2222 -0.6991
vn 0.6810 -0.2135 -0.7005
vn 0.7324 -0.1108 -0.6718
vn 0.7253 -0.1225 -0.6774
vn 0.7763 -0.0297 -0.6297
vn -0.4098 -0.8202 0.3992
vn -0.4273 -0.7820 0.4538
vn -0.3296 -0.9391 0.0973
vn -0.5767 -0.4341 0.6921
vn -0.5855 -0.4174 0.6950
vn -0.6949 -0.1811 0.6959
vn -0.6975 -0.1764 0.6946
vn -0.7576 -0.0561 0.6502
vn -0.7653 -0.0424 0.6423
vn -0.7985 0.0270 0.6014
vn -0.3296 -0.9391 -0.0972
vn -0.4098 -0.8202 -0.3991
vn -0.4273 -0.7820 -0.4538
vn -0.5767 -0.4341 -0.6920
vn -0.5855 -0.4174 -0.6949
vn -0.6949 -0.1811 -0.6959
vn -0.6970 -0.1763 -0.6951
vn -0.7577 -0.0561 -0.6502
vn -0.7653 -0.0424 -0.6423
vn -0.7985 0.0270 -0.6014
vn -0.9329 0.3085 -0.1861
vn -0.9442 0.3279 0.0297
vn -0.9372 0.3122 -0.1557
vn -0.9442 0.3279 0.0298
vn -0.9442 0.3279 -0.0297
vn -0.9372 0.3122 0.1558
vn -0.9442 0.3279 -0.0298
vn 0.8885 -0.0140 -0.4586
vn 0.9807 0.1257 -0.1500
vn 0.8623 -0.0522 -0.5036
vn 0.9849 0.1295 -0.1148
vn 0.6278 -0.3707 -0.6844
vn 0.5983 -0.4106 -0.6880
vn 0.2839 -0.7724 -0.5682
vn 0.2996 -0.7568 -0.5810
vn 0.0162 -0.9737 -0.2272
vn 0.0045 -0.9788 -0.2047
vn -0.1128 -0.9925 0.0466
vn 0.8889 -0.0141 0.4579
vn 0.9807 0.1257 0.1500
vn 0.9849 0.1295 0.1148
vn 0.8623 -0.0523 0.5036
vn 0.6278 -0.3707 0.6844
vn 0.5983 -0.4106 0.6881
vn 0.2839 -0.7723 0.5682
vn 0.2996 -0.7568 0.5810
vn 0.0162 -0.9737 0.2272
vn 0.0045 -0.9788 0.2048
vn -0.1128 -0.9925 -0.0465
vn 0.1891 -0.8504 -0.4909
vn 0.0504 -0.9987 -0.0005
vn 0.1891 -0.8504 0.4910
vn 0.0504 -0.9987 -0.0004
vn 0.5074 -0.4759 0.7183
vn 0.8549 -0.1060 0.5079
vn 0.5075 -0.4760 -0.7183
vn 0.8549 -0.1060 -0.5078
vn 0.1598 -0.9741 0.1597
vn 0.3220 -0.7967 0.5115
vn 0.3035 -0.8183 0.4881
vn 0.1626 -0.9701 0.1803
vn 0.5821 -0.4636 0.6680
vn 0.6032 -0.4379 0.6666
vn 0.7362 -0.2456 0.6307
vn 0.7349 -0.2475 0.6314
vn 0.7150 -0.2437 0.6553
vn 0.6961 -0.2485 0.6736
vn 0.6471 -0.2612 0.7163
vn 0.1626 -0.9701 -0.1802
vn 0.1597 -0.9742 -0.1597
vn 0.3220 -0.7967 -0.5115
vn 0.3035 -0.8183 -0.4881
vn 0.5821 -0.4637 -0.6680
vn 0.6032 -0.4379 -0.6666
vn 0.7362 -0.2456 -0.6306
vn 0.7350 -0.2475 -0.6313
vn 0.7150 -0.2437 -0.6553
vn 0.6961 -0.2485 -0.6736
vn 0.6471 -0.2612 -0.7163
vn 0.9807 0.1257 -0.1499
vn 0.9849 0.1295 -0.1147
vn 0.9893 0.1423 0.0337
vn 0.9893 0.1422 0.0337
vn 0.9893 0.1423 -0.0337
vn 0.9893 0.1422 -0.0337
vn 0.9849 0.1295 0.1147
vn 0.5250 -0.4927 -0.6940
vn 0.1891 -0.8504 -0.4910
vn 0.1892 -0.8504 0.4910
vn 0.5250 -0.4927 0.6940
vn 0.8549 -0.1060 0.5078
vn 0.9989 0.0475 -0.0004
vn 0.8549 -0.1059 0.5078
vn 0.8549 -0.1059 -0.5078
vn 0.9989 0.0475 -0.0005
vn 0.8550 -0.1060 -0.5078
vn -0.9992 0.0406 -0.0006
vn -0.8269 -0.0863 -0.5557
vn -0.8183 -0.0926 -0.5672
vn -0.9992 0.0407 -0.0005
vn -0.3639 -0.4322 -0.8251
vn -0.8269 -0.0863 0.5557
vn -0.3633 -0.4326 -0.8252
vn -0.8183 -0.0926 0.5672
vn -0.3639 -0.4322 0.8251
vn -0.3631 -0.4324 0.8254
vn 0.1264 -0.7914 -0.5981
vn 0.1347 -0.7970 -0.5888
vn 0.3368 -0.9416 -0.0005
vn 0.1347 -0.7970 0.5888
vn 0.1265 -0.7913 0.5981
vn -0.3638 -0.4322 0.8251
vn -0.3630 -0.4324 0.8254
vn 0.5251 -0.4926 -0.6940
vn 0.8606 -0.1343 -0.4912
vn 0.8607 -0.1343 -0.4912
vn 0.8606 -0.1343 0.4912
vn 0.5251 -0.4926 0.6940
vn 0.3247 -0.7428 -0.5856
vn 0.3158 -0.7393 -0.5947
vn -0.2466 -0.5150 -0.8210
vn -0.2456 -0.5152 -0.8211
vn 0.5554 -0.8316 -0.0005
vn -0.7688 -0.3012 -0.5641
vn 0.5554 -0.8316 -0.0004
vn -0.7787 -0.2972 -0.5526
vn 0.3247 -0.7428 0.5856
vn -0.9761 -0.2173 -0.0004
vn 0.3158 -0.7393 0.5947
vn -0.2465 -0.5151 0.8209
vn -0.2456 -0.5152 0.8211
vn -0.7685 -0.3014 0.5644
vn -0.7787 -0.2972 0.5526
vn -0.2466 -0.5151 0.8209
vn -0.2457 -0.5152 0.8211
vn 0.8607 -0.1343 -0.4911
vn 0.9999 0.0133 -0.0005
vn 0.9999 0.0133 -0.0004
vn 0.8607 -0.1343 0.4911
vt 0.625000 0.500000
vt 0.500000 0.750000
vt 0.500000 0.500000
vt 0.625000 0.750000
vt 0.375000 0.750000
vt 0.375000 0.500000
vt 0.750000 0.500000
vt 0.875000 0.500000
vt 1.000000 0.500000
vt 0.250000 0.500000
vt 0.125000 0.500000
vt 0.000000 0.500000
vt 0.750000 0.750000
vt 0.250000 0.750000
vt 1.000000 1.000000
vt 0.875000 0.750000
vt 1.000000 0.750000
vt 0.875000 1.000000
vt 0.000000 1.000000
vt 0.125000 0.750000
vt 0.125000 1.000000
vt 0.000000 0.750000
vt 0.750000 1.000000
vt 0.250000 1.000000
vt 0.625000 0.000000
vt 0.375000 0.000000
vt 0.625000 1.000000
vt 0.375000 1.000000
vt 0.625000 0.250000
vt 0.375000 0.250000
vt 0.500000 0.250000
vt 0.500000 1.000000
vt 0.750000 0.250000
vt 0.250000 0.250000
vt 0.875000 0.250000
vt 1.000000 0.000000
vt 1.000000 0.250000
vt 0.875000 0.000000
vt 0.125000 0.250000
vt 0.000000 0.000000
vt 0.125000 0.000000
vt 0.000000 0.250000
vt 0.750000 0.000000
vt 0.250000 0.000000
vt 0.500000 0.000000
s 1
f 1/1/1 2/2/2 3/3/2
f 2/2/2 1/1/1 4/4/1
f 5/2/3 6/5/4 7/6/4
f 7/6/4 8/3/3 5/2/3
f 9/7/5 10/8/6 11/8/7
f 12/9/8 11/8/7 10/8/6
f 11/8/7 12/9/8 13/9/8
f 10/8/6 9/7/5 14/7/9
f 9/7/5 15/1/10 14/7/9
f 9/7/5 16/1/11 15/1/10
f 16/1/11 17/3/12 15/1/10
f 16/1/11 18/3/13 17/3/12
f 19/6/14 17/3/12 18/3/13
f 17/3/12 19/6/14 20/6/15
f 21/10/9 20/6/15 19/6/14
f 20/6/15 21/10/9 22/10/9
f 21/10/9 23/11/16 22/10/9
f 21/10/9 24/11/17 23/11/16
f 24/11/17 25/12/8 23/11/16
f 25/12/8 24/11/17 26/12/8
f 27/4/18 28/7/19 29/13/19
f 28/7/19 27/4/18 30/1/18
f 31/5/20 32/10/21 33/6/20
f 32/10/21 31/5/20 34/14/22
f 35/7/23 36/1/24 37/7/25
f 38/8/26 35/7/23 37/7/25
f 36/1/24 35/7/23 39/1/27
f 35/7/23 38/8/26 40/8/28
f 41/9/29 40/8/28 38/8/26
f 41/9/29 38/8/26 42/9/30
f 43/3/31 36/1/24 39/1/27
f 36/1/24 43/3/31 44/3/32
f 44/3/32 43/3/31 45/6/33
f 43/3/31 46/6/34 45/6/33
f 47/10/35 45/6/33 46/6/34
f 45/6/33 47/10/35 48/10/35
f 49/11/36 48/10/35 47/10/35
f 47/10/35 50/11/37 49/11/36
f 51/12/29 49/11/36 50/11/37
f 49/11/36 51/12/29 52/12/38
f 53/3/39 54/1/40 55/1/41
f 54/1/40 56/7/42 55/1/41
f 54/1/40 53/3/39 57/3/43
f 53/3/39 58/6/44 57/3/43
f 58/6/44 54/1/40 57/3/43
f 58/6/44 53/3/39 59/6/45
f 56/7/42 54/1/40 60/7/46
f 61/10/47 54/1/40 58/6/44
f 58/6/44 59/6/45 61/10/47
f 54/1/40 61/10/47 60/7/46
f 62/10/48 61/10/47 59/6/45
f 63/11/49 61/10/47 62/10/48
f 64/8/50 56/7/42 60/7/46
f 61/10/47 64/8/50 60/7/46
f 56/7/42 64/8/50 65/8/51
f 64/8/50 66/9/52 65/8/51
f 66/9/52 64/8/50 67/9/53
f 64/8/50 68/11/54 67/9/53
f 64/8/50 61/10/47 68/11/54
f 61/10/47 63/11/49 68/11/54
f 69/12/55 68/11/54 63/11/49
f 68/11/54 69/12/55 70/12/56
f 71/6/57 72/6/58 73/3/59
f 74/3/60 73/3/59 72/6/58
f 72/6/58 71/6/57 75/10/61
f 76/1/62 73/3/59 74/3/60
f 71/6/57 77/10/61 75/10/61
f 73/3/59 76/1/62 78/1/63
f 79/11/64 75/10/61 77/10/61
f 80/7/65 78/1/63 76/1/62
f 75/10/61 79/11/64 81/11/66
f 82/12/67 81/11/66 79/11/64
f 81/11/66 82/12/67 83/12/67
f 78/1/63 80/7/65 84/7/68
f 80/7/65 85/8/69 84/7/68
f 85/8/69 80/7/65 86/8/70
f 87/9/71 85/8/69 86/8/70
f 88/9/72 87/9/71 86/8/70
f 89/15/73 90/16/74 91/17/73
f 90/16/74 89/15/73 92/18/74
f 93/19/75 94/20/76 95/21/77
f 94/20/76 93/19/75 96/22/75
f 97/7/78 98/8/79 99/16/79
f 97/7/78 99/16/79 100/13/78
f 101/10/22 102/20/80 103/11/80
f 102/20/80 101/10/22 104/14/81
f 105/3/82 106/6/83 107/6/84
f 108/10/85 107/6/84 106/6/83
f 107/6/84 108/10/85 109/10/86
f 109/10/86 108/10/85 110/11/87
f 108/10/85 111/11/88 110/11/87
f 110/11/87 111/11/88 112/12/89
f 113/12/90 112/12/89 111/11/88
f 111/11/88 114/12/91 113/12/90
f 114/12/91 111/11/88 115/11/92
f 116/10/93 115/11/92 111/11/88
f 108/10/85 116/10/93 111/11/88
f 106/6/83 116/10/93 108/10/85
f 116/10/93 106/6/83 117/6/94
f 117/6/94 106/6/83 118/3/95
f 119/3/96 118/3/95 106/6/83
f 106/6/83 105/3/82 119/3/96
f 118/3/95 119/3/96 120/1/97
f 121/1/98 119/3/96 105/3/82
f 119/3/96 121/1/98 122/1/99
f 122/1/99 120/1/97 119/3/96
f 123/7/100 122/1/99 121/1/98
f 124/7/101 120/1/97 122/1/99
f 122/1/99 123/7/100 124/7/101
f 120/1/97 124/7/101 125/7/102
f 124/7/101 126/8/103 125/7/102
f 123/7/100 127/8/104 124/7/101
f 126/8/103 124/7/101 127/8/104
f 127/8/104 123/7/100 128/8/105
f 129/9/106 126/8/103 127/8/104
f 127/8/104 128/8/105 129/9/106
f 126/8/103 129/9/106 130/9/107
f 129/9/106 128/8/105 131/9/89
f 132/5/108 133/1/109 134/4/110
f 133/1/109 132/5/108 135/6/109
f 136/5/111 137/1/112 138/6/112
f 137/1/112 136/5/111 139/4/113
f 140/23/114 141/13/114 142/18/115
f 141/13/114 143/16/115 142/18/115
f 144/21/116 145/14/117 146/24/117
f 145/14/117 144/21/116 147/20/116
f 148/4/118 149/16/119 150/16/120
f 149/16/119 148/4/118 151/4/121
f 150/16/120 152/16/122 148/4/118
f 148/4/118 152/16/122 153/4/123
f 152/16/122 154/4/124 153/4/123
f 154/4/124 152/16/122 155/16/125
f 155/16/125 156/16/126 154/4/124
f 157/4/127 154/4/124 156/16/126
f 157/4/127 156/16/126 158/4/128
f 159/16/129 160/4/130 161/16/131
f 160/4/130 159/16/129 162/4/132
f 160/4/130 163/16/133 161/16/131
f 160/4/130 164/4/134 163/16/133
f 165/4/135 163/16/133 164/4/134
f 163/16/133 165/4/135 166/16/136
f 167/16/137 166/16/136 165/4/135
f 167/16/137 165/4/135 168/4/138
f 168/4/138 169/4/139 167/16/137
f 170/5/140 171/4/141 172/5/142
f 170/5/140 173/4/143 171/4/141
f 173/4/143 170/5/140 174/5/144
f 174/5/144 175/4/145 173/4/143
f 175/4/145 174/5/144 176/5/146
f 177/5/147 175/4/145 176/5/146
f 178/4/148 175/4/145 177/5/147
f 177/5/147 179/5/108 178/4/148
f 179/5/108 180/4/110 178/4/148
f 181/5/149 182/5/150 183/4/151
f 184/4/152 181/5/149 183/4/151
f 181/5/149 184/4/152 185/5/153
f 186/4/154 185/5/153 184/4/152
f 185/5/153 186/4/154 187/5/155
f 186/4/154 188/5/156 187/5/155
f 186/4/154 189/4/157 188/5/156
f 189/4/157 190/5/111 188/5/156
f 189/4/157 191/4/113 190/5/111
f 192/17/158 193/8/159 194/9/160
f 193/8/159 192/17/158 195/16/161
f 196/22/162 197/11/163 198/20/163
f 197/11/163 196/22/162 199/12/162
f 200/4/164 201/5/165 202/6/166
f 200/4/164 202/6/166 203/1/166
f 204/5/167 205/4/168 206/6/169
f 207/1/170 206/6/169 205/4/168
f 208/5/171 209/20/172 210/11/173
f 208/5/171 210/11/173 211/6/174
f 212/6/175 213/11/175 214/5/176
f 213/11/175 215/20/177 214/5/176
f 216/4/178 217/16/179 218/16/180
f 217/16/179 216/4/178 219/4/181
f 218/16/180 220/16/182 216/4/178
f 216/4/178 220/16/182 221/4/183
f 222/16/184 221/4/183 220/16/182
f 221/4/183 222/16/184 223/4/185
f 222/16/184 224/4/186 223/4/185
f 224/4/186 222/16/184 225/16/187
f 224/4/186 225/16/187 226/4/188
f 227/16/189 228/4/190 229/16/191
f 228/4/190 227/16/189 230/4/192
f 228/4/190 231/16/193 229/16/191
f 231/16/193 228/4/190 232/4/194
f 232/4/194 233/16/195 231/16/193
f 232/4/194 234/4/196 233/16/195
f 235/4/197 233/16/195 234/4/196
f 233/16/195 235/4/197 236/16/198
f 235/4/197 237/4/199 236/16/198
f 238/4/200 239/8/201 240/16/119
f 239/8/201 238/4/200 241/1/201
f 242/4/132 243/8/202 244/1/202
f 243/8/202 242/4/132 245/16/203
f 246/25/204 247/26/205 248/25/206
f 247/26/205 246/25/204 249/26/207
f 247/26/205 250/25/208 248/25/206
f 250/25/208 247/26/205 251/26/209
f 251/26/209 252/26/210 250/25/208
f 253/25/211 250/25/208 252/26/210
f 254/26/212 253/25/211 252/26/210
f 255/25/213 253/25/211 254/26/212
f 255/25/213 254/26/212 256/25/214
f 257/26/215 258/25/216 259/26/217
f 258/25/216 260/25/218 259/26/217
f 261/25/219 259/26/217 260/25/218
f 259/26/217 261/25/219 262/26/220
f 261/25/219 263/26/221 262/26/220
f 261/25/219 264/25/222 263/26/221
f 265/26/223 263/26/221 264/25/222
f 264/25/222 266/25/224 265/26/223
f 266/25/224 267/25/225 265/26/223
f 268/5/226 269/5/227 270/4/228
f 269/5/227 271/4/229 270/4/228
f 270/4/228 272/4/230 268/5/226
f 268/5/226 272/4/230 273/5/231
f 272/4/230 274/5/232 273/5/231
f 274/5/232 272/4/230 275/4/233
f 275/4/233 276/5/234 274/5/232
f 276/5/234 275/4/233 277/4/235
f 276/5/234 277/4/235 278/5/236
f 279/4/237 280/4/238 281/5/239
f 279/4/237 281/5/239 282/5/240
f 283/4/241 279/4/237 282/5/240
f 283/4/241 282/5/240 284/5/242
f 285/5/243 283/4/241 284/5/242
f 283/4/241 285/5/243 286/4/244
f 287/5/245 286/4/244 285/5/243
f 286/4/244 287/5/245 288/4/246
f 287/5/245 289/5/247 288/4/246
f 290/13/248 291/27/249 292/4/249
f 291/27/249 290/13/248 293/23/248
f 294/28/250 295/14/251 296/5/250
f 295/14/251 294/28/250 297/24/251
f 298/16/252 299/4/253 300/1/254
f 298/16/252 300/1/254 301/8/254
f 302/4/255 303/16/256 304/1/257
f 305/8/257 304/1/257 303/16/256
f 306/26/258 307/25/259 308/25/260
f 306/26/258 308/25/260 309/26/261
f 306/26/258 310/25/262 307/25/259
f 310/25/262 306/26/258 311/26/263
f 312/26/264 310/25/262 311/26/263
f 313/25/265 310/25/262 312/26/264
f 314/26/266 313/25/265 312/26/264
f 315/25/267 313/25/265 314/26/266
f 315/25/267 314/26/266 316/25/268
f 317/26/269 318/25/270 319/26/271
f 318/25/270 320/25/272 319/26/271
f 321/25/273 319/26/271 320/25/272
f 319/26/271 321/25/273 322/26/274
f 321/25/273 323/26/275 322/26/274
f 323/26/275 321/25/273 324/25/276
f 325/26/277 323/26/275 324/25/276
f 324/25/276 326/25/278 325/26/277
f 326/25/278 327/25/279 325/26/277
f 328/4/280 329/16/281 330/16/282
f 329/16/281 328/4/280 331/4/283
f 330/16/282 332/16/284 328/4/280
f 328/4/280 332/16/284 333/4/285
f 332/16/284 334/16/286 333/4/285
f 333/4/285 334/16/286 335/4/287
f 334/16/286 336/4/288 335/4/287
f 336/4/288 334/16/286 337/16/289
f 336/4/288 337/16/289 338/4/290
f 339/16/291 340/4/292 341/16/293
f 340/4/292 339/16/291 342/4/294
f 343/16/295 341/16/293 340/4/292
f 343/16/295 340/4/292 344/4/296
f 344/4/296 345/16/297 343/16/295
f 345/16/297 344/4/296 346/4/298
f 347/4/299 345/16/297 346/4/298
f 345/16/297 347/4/299 348/16/300
f 347/4/299 349/4/301 348/16/300
f 350/20/302 351/5/171 352/5/303
f 351/5/171 350/20/302 353/20/304
f 352/5/303 354/20/305 350/20/302
f 354/20/305 352/5/303 355/5/306
f 354/20/305 355/5/306 356/5/307
f 357/20/308 354/20/305 356/5/307
f 356/5/307 358/5/309 357/20/308
f 359/20/310 357/20/308 358/5/309
f 359/20/310 358/5/309 360/20/311
f 361/20/312 362/5/313 363/20/177
f 362/5/313 361/20/312 364/5/314
f 365/20/315 364/5/314 361/20/312
f 364/5/314 365/20/315 366/5/316
f 365/20/315 367/5/317 366/5/316
f 365/20/315 368/20/318 367/5/317
f 369/5/319 367/5/317 368/20/318
f 368/20/318 370/20/320 369/5/319
f 370/20/320 371/20/321 369/5/319
f 372/5/322 373/20/323 374/11/324
f 372/5/322 374/11/324 375/6/324
f 376/6/325 377/11/325 378/5/326
f 377/11/325 379/20/327 378/5/326
f 380/5/328 381/1/329 382/4/330
f 381/1/329 380/5/328 383/6/329
f 384/1/331 385/5/332 386/4/333
f 385/5/332 384/1/331 387/6/331
f 388/25/204 389/29/334 390/26/335
f 390/26/335 389/29/334 391/30/336
f 392/29/337 393/26/338 394/30/337
f 393/26/338 392/29/337 395/25/339
f 396/5/340 397/6/341 398/5/342
f 397/6/341 396/5/340 399/6/340
f 400/16/343 401/4/283 402/1/344
f 400/16/343 402/1/344 403/8/345
f 404/8/346 405/1/346 406/16/347
f 405/1/346 407/4/348 406/16/347
f 408/25/349 409/30/350 410/26/351
f 409/30/350 408/25/349 411/29/350
f 412/30/352 413/25/270 414/26/353
f 413/25/270 412/30/352 415/29/352
f 416/5/354 417/5/355 418/6/356
f 418/6/356 417/5/355 419/6/357
f 420/1/358 421/3/359 422/31/359
f 420/1/358 422/31/359 423/29/360
f 424/31/361 425/6/362 426/30/362
f 425/6/362 424/31/361 427/3/361
f 428/25/363 429/26/364 430/26/365
f 429/26/364 428/25/363 431/25/366
f 430/26/365 432/25/367 428/25/363
f 432/25/367 430/26/365 433/26/368
f 433/26/368 434/25/369 432/25/367
f 434/25/369 433/26/368 435/26/370
f 435/26/370 436/25/371 434/25/369
f 436/25/371 435/26/370 437/26/372
f 436/25/371 437/26/372 438/25/373
f 439/25/374 440/26/375 441/25/376
f 440/26/375 439/25/374 442/26/377
f 443/25/378 442/26/377 439/25/374
f 442/26/377 443/25/378 444/26/379
f 445/25/380 444/26/379 443/25/378
f 444/26/379 445/25/380 446/26/381
f 447/25/382 446/26/381 445/25/380
f 446/26/381 447/25/382 448/26/383
f 447/25/382 449/25/384 448/26/383
f 450/4/385 451/16/386 452/16/387
f 451/16/386 450/4/385 453/4/388
f 452/16/387 454/16/389 450/4/385
f 450/4/385 454/16/389 455/4/390
f 454/16/389 456/4/391 455/4/390
f 456/4/391 454/16/389 457/16/392
f 457/16/392 458/4/393 456/4/391
f 458/4/393 457/16/392 459/16/394
f 458/4/393 459/16/394 460/4/395
f 461/16/396 462/4/397 463/16/398
f 462/4/397 461/16/396 464/4/399
f 465/16/400 463/16/398 462/4/397
f 465/16/400 462/4/397 466/4/401
f 467/4/402 465/16/400 466/4/401
f 465/16/400 467/4/402 468/16/403
f 469/4/404 468/16/403 467/4/402
f 468/16/403 469/4/404 470/16/405
f 469/4/404 471/4/406 470/16/405
f 472/20/407 473/5/408 474/5/409
f 473/5/408 472/20/407 475/20/410
f 474/5/409 476/20/411 472/20/407
f 476/20/411 474/5/409 477/5/412
f 476/20/411 477/5/412 478/5/413
f 479/20/414 476/20/411 478/5/413
f 479/20/414 478/5/413 480/5/415
f 481/20/416 479/20/414 480/5/415
f 481/20/416 480/5/415 482/20/417
f 483/20/418 484/5/419 485/20/420
f 484/5/419 483/20/418 486/5/421
f 487/20/422 486/5/421 483/20/418
f 486/5/421 487/20/422 488/5/423
f 489/5/424 488/5/423 487/20/422
f 487/20/422 490/20/425 489/5/424
f 491/5/426 489/5/424 490/20/425
f 490/20/425 492/20/427 491/5/426
f 492/20/427 493/20/428 491/5/426
f 494/5/429 495/6/430 496/5/431
f 495/6/430 494/5/429 497/6/341
f 498/5/432 499/5/433 500/6/434
f 499/5/433 501/6/435 500/6/434
f 502/5/436 503/5/437 504/4/438
f 503/5/437 505/4/330 504/4/438
f 504/4/438 506/4/439 502/5/436
f 502/5/436 506/4/439 507/5/440
f 508/4/441 507/5/440 506/4/439
f 507/5/440 508/4/441 509/5/442
f 508/4/441 510/5/443 509/5/442
f 510/5/443 508/4/441 511/4/444
f 510/5/443 511/4/444 512/5/445
f 513/4/446 514/5/332 515/4/447
f 515/4/447 514/5/332 516/5/448
f 517/4/449 515/4/447 516/5/448
f 517/4/449 516/5/448 518/5/450
f 518/5/450 519/4/451 517/4/449
f 518/5/450 520/5/452 519/4/451
f 521/5/453 519/4/451 520/5/452
f 519/4/451 521/5/453 522/4/454
f 521/5/453 523/5/455 522/4/454
f 524/5/456 525/20/457 526/11/458
f 524/5/456 526/11/458 527/6/459
f 528/6/460 529/11/460 530/5/461
f 529/11/460 531/20/462 530/5/461
f 532/5/463 533/4/464 534/4/465
f 533/4/464 532/5/463 535/5/466
f 535/5/466 536/4/467 533/4/464
f 536/4/467 535/5/466 537/5/468
f 534/4/465 538/5/469 532/5/463
f 538/5/469 534/4/465 539/4/470
f 539/4/470 540/5/471 538/5/469
f 540/5/471 539/4/470 541/4/471
f 542/5/472 543/1/473 544/4/474
f 543/1/473 542/5/472 545/6/475
f 546/1/476 547/5/477 548/4/478
f 547/5/477 546/1/476 549/6/479
f 550/4/480 551/32/481 552/2/481
f 551/32/481 550/4/480 553/27/482
f 554/32/483 555/28/484 556/5/484
f 556/5/484 557/2/483 554/32/483
f 558/6/485 559/6/486 560/1/487
f 561/1/488 558/6/485 560/1/487
f 562/6/488 558/6/485 561/1/488
f 559/6/486 563/1/489 560/1/487
f 559/6/486 564/1/490 563/1/489
f 564/1/490 559/6/486 565/6/491
f 566/6/492 564/1/490 565/6/491
f 564/1/490 566/6/492 567/1/493
f 568/25/494 569/29/495 570/26/496
f 570/26/496 569/29/495 571/30/497
f 572/29/498 573/26/375 574/30/499
f 573/26/375 572/29/498 575/25/376
f 576/4/500 577/1/501 578/1/502
f 577/1/501 576/4/500 579/4/503
f 580/1/504 576/4/500 578/1/502
f 576/4/500 580/1/504 581/4/505
f 582/16/506 583/4/507 584/1/508
f 582/16/506 584/1/508 585/8/509
f 586/8/510 587/1/510 588/16/511
f 587/1/510 589/4/399 588/16/511
f 590/25/512 591/26/513 592/26/514
f 591/26/513 590/25/512 593/25/515
f 592/26/514 594/25/516 590/25/512
f 594/25/516 592/26/514 595/26/517
f 595/26/517 596/25/518 594/25/516
f 596/25/518 595/26/517 597/26/519
f 598/26/520 596/25/518 597/26/519
f 596/25/518 598/26/520 599/25/521
f 599/25/521 598/26/520 600/25/522
f 601/25/523 602/26/524 603/25/525
f 602/26/524 601/25/523 604/26/526
f 605/25/527 604/26/526 601/25/523
f 604/26/526 605/25/527 606/26/528
f 607/25/529 606/26/528 605/25/527
f 606/26/528 607/25/529 608/26/530
f 607/25/529 609/26/531 608/26/530
f 607/25/529 610/25/532 609/26/531
f 610/25/532 611/25/533 609/26/531
f 612/1/534 613/30/534 614/29/534
f 613/30/534 612/1/534 615/6/534
f 616/30/534 617/1/534 618/6/534
f 617/1/534 616/30/534 619/29/534
f 620/29/534 621/6/534 622/30/534
f 621/6/534 620/29/534 623/1/534
f 624/29/535 625/1/534 626/30/534
f 626/30/534 625/1/534 627/6/534
f 628/29/534 629/6/534 630/30/534
f 629/6/534 628/29/534 631/1/535
f 632/6/534 633/29/534 634/1/534
f 633/29/534 632/6/534 635/30/534
f 636/4/536 637/1/537 638/1/501
f 637/1/537 636/4/536 639/4/537
f 640/4/538 641/4/539 642/16/540
f 641/4/539 643/16/541 642/16/540
f 642/16/540 644/16/542 640/4/538
f 645/4/543 640/4/538 644/16/542
f 644/16/542 646/4/544 645/4/543
f 646/4/544 644/16/542 647/16/545
f 646/4/544 647/16/545 648/16/546
f 649/4/547 646/4/544 648/16/546
f 649/4/547 648/16/546 650/4/548
f 651/16/549 652/16/550 653/4/551
f 651/16/549 653/4/551 654/4/552
f 655/16/553 651/16/549 654/4/552
f 655/16/553 654/4/552 656/4/554
f 657/4/555 655/16/553 656/4/554
f 655/16/553 657/4/555 658/16/556
f 659/16/557 658/16/556 657/4/555
f 657/4/555 660/4/558 659/16/557
f 660/4/558 661/4/559 659/16/557
f 662/20/457 663/5/560 664/20/561
f 663/5/560 662/20/457 665/5/562
f 663/5/560 666/20/563 664/20/561
f 666/20/563 663/5/560 667/5/564
f 666/20/563 667/5/564 668/5/565
f 669/20/566 666/20/563 668/5/565
f 669/20/566 668/5/565 670/5/567
f 671/20/568 669/20/566 670/5/567
f 671/20/568 670/5/567 672/20/569
f 673/5/570 674/20/571 675/11/572
f 673/5/570 675/11/572 676/6/572
f 677/5/573 678/20/574 679/5/575
f 678/20/574 680/20/576 679/5/575
f 681/20/577 679/5/575 680/20/576
f 679/5/575 681/20/577 682/5/578
f 683/5/579 682/5/578 681/20/577
f 681/20/577 684/20/580 683/5/579
f 685/5/581 683/5/579 684/20/580
f 684/20/580 686/20/582 685/5/581
f 686/20/582 687/20/583 685/5/581
f 688/20/584 689/5/585 690/11/586
f 691/6/586 690/11/586 689/5/585
f 692/5/587 693/1/588 694/4/589
f 693/1/588 692/5/587 695/6/590
f 696/1/591 697/5/592 698/4/593
f 697/5/592 696/1/591 699/6/594
f 700/5/595 701/5/596 702/4/597
f 701/5/596 703/4/598 702/4/597
f 702/4/597 704/4/599 700/5/595
f 700/5/595 704/4/599 705/5/600
f 706/4/601 705/5/600 704/4/599
f 705/5/600 706/4/601 707/5/602
f 708/4/603 707/5/602 706/4/601
f 709/5/604 707/5/602 708/4/603
f 709/5/604 708/4/603 710/5/605
f 711/4/606 712/4/607 713/5/477
f 711/4/606 713/5/477 714/5/608
f 715/4/609 711/4/606 714/5/608
f 715/4/609 714/5/608 716/5/610
f 716/5/610 717/4/611 715/4/609
f 716/5/610 718/5/612 717/4/611
f 719/4/613 717/4/611 718/5/612
f 718/5/612 720/5/614 719/4/613
f 720/5/614 721/5/615 719/4/613
f 722/1/616 723/4/617 724/4/618
f 723/4/617 722/1/616 725/1/617
f 726/5/619 727/1/620 728/4/621
f 727/1/620 726/5/619 729/6/620
f 730/1/622 731/5/623 732/4/624
f 731/5/623 730/1/622 733/6/622
f 734/25/625 735/29/626 736/26/627
f 736/26/627 735/29/626 737/30/626
f 738/29/628 739/26/524 740/30/629
f 739/26/524 738/29/628 741/25/525
f 742/7/630 743/1/631 744/29/358
f 742/7/630 744/29/358 745/33/630
f 746/30/362 747/10/632 748/34/632
f 747/10/632 746/30/362 749/6/633
f 750/5/634 751/20/635 752/11/636
f 750/5/634 752/11/636 753/6/636
f 754/20/637 755/5/638 756/11/639
f 757/6/639 756/11/639 755/5/638
f 758/4/640 759/8/641 760/16/642
f 759/8/641 758/4/640 761/1/641
f 762/8/643 763/4/551 764/16/644
f 763/4/551 762/8/643 765/1/645
f 766/4/646 767/4/647 768/16/648
f 767/4/647 769/16/649 768/16/648
f 768/16/648 770/16/650 766/4/646
f 771/4/651 766/4/646 770/16/650
f 770/16/650 772/4/652 771/4/651
f 772/4/652 770/16/650 773/16/653
f 773/16/653 774/4/654 772/4/652
f 774/4/654 773/16/653 775/16/655
f 774/4/654 775/16/655 776/4/656
f 777/16/657 778/16/658 779/4/659
f 779/4/659 780/4/660 777/16/657
f 781/16/661 777/16/657 780/4/660
f 781/16/661 780/4/660 782/4/662
f 783/4/663 781/16/661 782/4/662
f 781/16/661 783/4/663 784/16/664
f 785/4/665 784/16/664 783/4/663
f 784/16/664 785/4/665 786/16/666
f 785/4/665 787/4/667 786/16/666
f 788/20/571 789/5/668 790/20/669
f 789/5/668 788/20/571 791/5/670
f 789/5/668 792/20/671 790/20/669
f 792/20/671 789/5/668 793/5/672
f 793/5/672 794/20/673 792/20/671
f 794/20/673 793/5/672 795/5/674
f 796/5/675 794/20/673 795/5/674
f 794/20/673 796/5/675 797/20/676
f 797/20/676 796/5/675 798/20/677
f 799/25/678 800/26/679 801/26/680
f 800/26/679 799/25/678 802/25/681
f 801/26/680 803/25/682 799/25/678
f 803/25/682 801/26/680 804/26/683
f 805/26/684 803/25/682 804/26/683
f 803/25/682 805/26/684 806/25/685
f 807/26/686 806/25/685 805/26/684
f 806/25/685 807/26/686 808/25/687
f 808/25/687 807/26/686 809/25/688
f 810/20/689 811/5/690 812/20/584
f 813/5/585 812/20/584 811/5/690
f 814/20/691 811/5/690 810/20/689
f 811/5/690 814/20/691 815/5/692
f 816/20/693 815/5/692 814/20/691
f 815/5/692 816/20/693 817/5/694
f 816/20/693 818/5/695 817/5/694
f 818/5/695 816/20/693 819/20/696
f 819/20/696 820/20/697 818/5/695
f 821/25/698 822/26/699 823/25/700
f 822/26/699 821/25/698 824/26/701
f 825/25/702 824/26/701 821/25/698
f 824/26/701 825/25/702 826/26/703
f 825/25/702 827/26/704 826/26/703
f 825/25/702 828/25/705 827/26/704
f 828/25/705 829/26/706 827/26/704
f 828/25/705 830/25/707 829/26/706
f 830/25/707 831/25/708 829/26/706
f 832/5/709 833/4/589 834/4/710
f 833/4/589 832/5/709 835/5/587
f 832/5/709 834/4/710 836/4/711
f 836/4/711 837/5/712 832/5/709
f 836/4/711 838/5/713 837/5/712
f 838/5/713 836/4/711 839/4/714
f 839/4/714 840/5/715 838/5/713
f 840/5/715 839/4/714 841/4/716
f 840/5/715 841/4/716 842/5/717
f 843/4/718 844/5/719 845/4/720
f 844/5/719 843/4/718 846/5/721
f 847/4/722 845/4/720 844/5/719
f 844/5/719 848/5/723 847/4/722
f 849/5/724 847/4/722 848/5/723
f 847/4/722 849/5/724 850/4/725
f 851/5/726 850/4/725 849/5/724
f 850/4/725 851/5/726 852/4/727
f 851/5/726 853/5/728 852/4/727
f 854/5/729 855/20/730 856/11/731
f 854/5/729 856/11/731 857/6/731
f 858/20/732 859/5/733 860/11/734
f 861/6/735 860/11/734 859/5/733
f 862/26/736 863/25/737 864/29/738
f 862/26/736 864/29/738 865/30/738
f 866/29/739 867/26/740 868/30/739
f 867/26/740 866/29/739 869/25/741
f 870/20/742 871/5/743 872/20/744
f 871/5/743 870/20/742 873/5/745
f 871/5/743 874/20/746 872/20/744
f 874/20/746 871/5/743 875/5/747
f 875/5/747 876/20/748 874/20/746
f 876/20/748 875/5/747 877/5/749
f 878/5/750 876/20/748 877/5/749
f 876/20/748 878/5/750 879/20/751
f 879/20/751 878/5/750 880/20/752
f 881/5/638 882/20/637 883/5/753
f 882/20/637 884/20/754 883/5/753
f 885/20/755 883/5/753 884/20/754
f 883/5/753 885/20/755 886/5/756
f 887/20/757 886/5/756 885/20/755
f 886/5/756 887/20/757 888/5/758
f 887/20/757 889/5/759 888/5/758
f 889/5/759 887/20/757 890/20/760
f 890/20/760 891/20/761 889/5/759
f 892/4/762 893/5/763 894/5/619
f 894/5/619 895/4/764 892/4/762
f 893/5/763 892/4/762 896/4/765
f 897/5/766 893/5/763 896/4/765
f 896/4/765 898/5/767 897/5/766
f 898/5/767 896/4/765 899/4/768
f 899/4/768 900/5/769 898/5/767
f 900/5/769 899/4/768 901/4/770
f 900/5/769 901/4/770 902/5/771
f 903/4/772 904/5/623 905/4/773
f 904/5/623 906/5/774 905/4/773
f 907/4/775 905/4/773 906/5/774
f 906/5/774 908/5/776 907/4/775
f 909/5/777 907/4/775 908/5/776
f 907/4/775 909/5/777 910/4/778
f 911/5/779 910/4/778 909/5/777
f 910/4/778 911/5/779 912/4/780
f 911/5/779 913/5/781 912/4/780
f 914/4/782 915/8/783 916/16/784
f 915/8/783 914/4/782 917/1/785
f 918/8/786 919/4/659 920/16/787
f 919/4/659 918/8/786 921/1/788
f 922/25/789 923/26/790 924/26/791
f 923/26/790 922/25/789 925/25/792
f 924/26/791 926/25/793 922/25/789
f 926/25/793 924/26/791 927/26/794
f 928/26/795 926/25/793 927/26/794
f 926/25/793 928/26/795 929/25/796
f 930/26/797 929/25/796 928/26/795
f 929/25/796 930/26/797 931/25/798
f 931/25/798 930/26/797 932/25/799
f 933/25/800 934/26/801 935/25/802
f 934/26/801 933/25/800 936/26/803
f 937/25/804 936/26/803 933/25/800
f 936/26/803 937/25/804 938/26/805
f 937/25/804 939/26/806 938/26/805
f 937/25/804 940/25/807 939/26/806
f 940/25/807 941/26/808 939/26/806
f 940/25/807 942/25/809 941/26/808
f 942/25/809 943/25/810 941/26/808
f 944/35/811 945/36/812 946/37/812
f 945/36/812 944/35/811 947/38/811
f 948/39/813 949/40/814 950/41/813
f 949/40/814 948/39/813 951/42/814
f 952/7/815 953/35/816 954/8/816
f 953/35/816 952/7/815 955/33/815
f 956/10/817 957/39/818 958/34/817
f 957/39/818 956/10/817 959/11/818
f 960/20/819 961/5/820 962/20/821
f 961/5/820 960/20/819 963/5/822
f 961/5/820 964/20/823 962/20/821
f 964/20/823 961/5/820 965/5/824
f 964/20/823 965/5/824 966/5/825
f 967/20/826 964/20/823 966/5/825
f 966/5/825 968/20/827 967/20/826
f 968/20/827 966/5/825 969/5/828
f 968/20/827 969/5/828 970/20/829
f 971/5/830 972/20/831 973/5/832
f 972/20/831 974/20/833 973/5/832
f 975/20/834 973/5/832 974/20/833
f 973/5/832 975/20/834 976/5/835
f 977/5/836 976/5/835 975/20/834
f 975/20/834 978/20/837 977/5/836
f 979/20/838 977/5/836 978/20/837
f 977/5/836 979/20/838 980/5/839
f 979/20/838 981/20/840 980/5/839
f 982/26/841 983/25/842 984/29/843
f 982/26/841 984/29/843 985/30/844
f 986/29/845 987/26/801 988/30/846
f 987/26/801 986/29/845 989/25/847
f 990/33/848 991/38/849 992/35/849
f 991/38/849 990/33/848 993/43/848
f 994/39/850 995/41/813 996/34/851
f 995/41/813 997/44/851 996/34/851
f 998/8/852 999/37/853 1000/9/853
f 999/37/853 998/8/852 1001/35/854
f 1002/11/855 1003/42/856 1004/39/857
f 1003/42/856 1002/11/855 1005/12/856
f 1006/10/858 1007/6/859 1008/6/860
f 1007/6/859 1006/10/858 1009/10/861
f 1010/3/862 1008/6/860 1007/6/859
f 1011/11/863 1009/10/861 1006/10/858
f 1008/6/860 1010/3/862 1012/3/864
f 1011/11/863 1006/10/858 1013/11/865
f 1011/11/863 1013/11/865 1014/12/866
f 1013/11/865 1015/12/867 1014/12/866
f 1016/1/868 1012/3/864 1010/3/862
f 1016/1/868 1010/3/862 1017/1/869
f 1017/1/869 1018/7/870 1016/1/868
f 1018/7/870 1017/1/869 1019/7/870
f 1020/8/871 1018/7/870 1019/7/870
f 1018/7/870 1020/8/871 1021/8/872
f 1022/9/873 1021/8/872 1020/8/871
f 1021/8/872 1022/9/873 1023/9/874
f 1024/33/875 1025/25/876 1026/43/875
f 1024/33/875 1027/29/877 1025/25/876
f 1028/26/878 1029/34/879 1030/44/879
f 1029/34/879 1028/26/878 1031/30/878
f 1032/1/880 1033/1/881 1034/3/882
f 1033/1/881 1035/3/883 1034/3/882
f 1032/1/880 1036/7/884 1033/1/881
f 1037/6/885 1034/3/882 1035/3/883
f 1036/7/884 1032/1/880 1038/7/886
f 1034/3/882 1037/6/885 1039/6/887
f 1040/8/888 1036/7/884 1038/7/886
f 1037/6/885 1041/10/889 1039/6/887
f 1036/7/884 1040/8/888 1042/8/890
f 1043/9/891 1042/8/890 1040/8/888
f 1042/8/890 1043/9/891 1044/9/892
f 1037/6/885 1045/10/889 1041/10/889
f 1046/11/893 1041/10/889 1045/10/889
f 1041/10/889 1046/11/893 1047/11/894
f 1047/11/894 1046/11/893 1048/12/895
f 1049/12/896 1048/12/895 1046/11/893
f 1050/29/897 1051/31/898 1052/45/898
f 1050/29/897 1052/45/898 1053/25/897
f 1054/45/899 1055/30/900 1056/26/900
f 1055/30/900 1054/45/899 1057/31/899
o 122416547053720
v -0.577308 0.258855 -0.122339
v -0.661017 0.169637 -0.173013
v -0.528802 0.198471 -0.105572
v -0.601038 0.121482 -0.149301
v -0.673274 0.044492 -0.105572
v -0.744725 0.080419 -0.122339
v -0.703194 0.012602 -0.000000
v -0.779398 0.043464 -0.000000
v -0.498881 0.230362 -0.000000
v -0.542636 0.295810 -0.000000
v -0.744725 0.080419 0.122339
v -0.577308 0.258855 0.122339
v -0.528802 0.198471 0.105572
v -0.661017 0.169637 0.173013
v -0.673274 0.044492 0.105572
v -0.601038 0.121482 0.149301
v 0.361407 -0.262027 0.111824
v 0.153177 -0.179814 0.164699
v 0.145125 -0.297142 0.117695
v -0.098258 -0.150433 0.192119
v 0.141756 -0.346487 0.000000
v 0.337649 -0.152383 0.156274
v -0.132190 -0.283267 0.137452
v -0.063000 -0.020840 0.134772
v -0.302179 -0.079313 0.209474
v 0.161199 -0.064965 0.115338
v 0.545725 -0.151484 0.098216
v -0.229739 0.048485 0.145765
v -0.199564 0.099478 -0.000000
v -0.444654 0.205456 0.168727
v -0.395085 0.254660 -0.000000
v -0.564375 0.086452 0.238787
v -0.536348 0.294144 0.177217
v -0.484894 0.346487 -0.000000
v -0.660581 0.167762 0.250643
v -0.536348 0.294144 -0.177217
v -0.374295 -0.211335 0.149759
v -0.684142 -0.032805 0.168954
v -0.784835 0.041358 0.177246
v -0.733764 -0.082268 0.000000
v -0.836308 -0.011007 0.000000
v -0.784835 0.041358 -0.177246
v -0.404108 -0.266833 0.000000
v -0.684142 -0.032805 -0.168954
v -0.660581 0.167762 -0.250643
v -0.146080 -0.339423 0.000000
v -0.374295 -0.211335 -0.149759
v -0.564375 0.086452 -0.238787
v -0.132190 -0.283267 -0.137452
v -0.302179 -0.079313 -0.209474
v -0.444654 0.205456 -0.168727
v -0.229739 0.048485 -0.145765
v -0.098258 -0.150433 -0.192119
v 0.145125 -0.297142 -0.117695
v -0.063000 -0.020840 -0.134772
v 0.153177 -0.179814 -0.164699
v 0.361407 -0.262027 -0.111824
v 0.371290 -0.308088 0.000000
v -0.047717 0.032407 -0.000000
v 0.161199 -0.064965 -0.115338
v 0.164553 -0.017979 0.000000
v 0.304721 -0.002636 0.000000
v 0.314234 -0.045670 0.108804
v 0.337649 -0.152383 -0.156274
v 0.314234 -0.045670 -0.108804
v 0.545725 -0.151484 -0.098216
v 0.494281 -0.066348 -0.133695
v 0.569197 -0.187431 0.000000
v 0.733291 0.003375 -0.000000
v 0.704509 0.025221 -0.082663
v 0.836308 0.216654 -0.000000
v 0.817282 0.228780 -0.051613
v 0.704509 0.025221 0.082663
v 0.817282 0.228780 0.051613
v 0.639631 0.078133 -0.112523
v 0.774212 0.258399 -0.070257
v 0.451551 0.016333 -0.090973
v 0.582355 0.131567 -0.076566
v 0.735844 0.288730 -0.047806
v 0.720963 0.301521 -0.000000
v 0.560274 0.153931 -0.000000
v 0.435783 0.050181 -0.000000
v 0.451551 0.016333 0.090973
v 0.582355 0.131567 0.076566
v 0.735844 0.288730 0.047806
v 0.774212 0.258399 0.070257
v 0.639631 0.078133 0.112523
v 0.494281 -0.066348 0.133695
vn -0.6437 -0.3247 0.6930
vn -0.2052 0.2142 0.9550
vn -0.8658 0.1302 0.4831
vn -0.5475 0.4952 0.6746
vn -0.2386 0.8499 0.4698
vn 0.2099 0.7241 0.6569
vn -0.1134 0.9935 -0.0000
vn 0.3750 0.9270 -0.0002
vn -0.9997 -0.0225 -0.0000
vn -0.8312 -0.5560 -0.0002
vn 0.2099 0.7241 -0.6569
vn -0.6436 -0.3245 -0.6932
vn -0.8659 0.1305 -0.4828
vn -0.2052 0.2144 -0.9550
vn -0.2383 0.8499 -0.4700
vn -0.5477 0.4954 -0.6742
vn 0.2755 -0.6642 0.6949
vn 0.0777 -0.0255 0.9967
vn 0.0737 -0.7170 0.6931
vn 0.0864 -0.0363 0.9956
vn 0.0697 -0.9976 -0.0002
vn 0.0854 0.0027 0.9963
vn -0.0803 -0.7127 0.6968
vn 0.2521 0.6548 0.7125
vn 0.0668 -0.0587 0.9960
vn 0.0688 0.6912 0.7194
vn 0.4880 -0.5217 0.6998
vn 0.3865 0.5836 0.7141
vn 0.5174 0.8557 -0.0002
vn 0.4909 0.5000 0.7135
vn 0.6680 0.7441 -0.0003
vn 0.0639 -0.0724 0.9953
vn 0.5192 0.4678 0.7153
vn 0.7149 0.6992 -0.0000
vn 0.0560 -0.0792 0.9953
vn 0.5190 0.4680 -0.7153
vn -0.2519 -0.6757 0.6928
vn -0.3583 -0.6243 0.6941
vn -0.3910 -0.6083 0.6907
vn -0.5309 -0.8474 -0.0002
vn -0.5707 -0.8212 -0.0000
vn -0.3913 -0.6085 -0.6904
vn -0.3817 -0.9243 -0.0000
vn -0.3582 -0.6241 -0.6944
vn 0.0561 -0.0791 -0.9953
vn -0.1497 -0.9887 -0.0000
vn -0.2520 -0.6759 -0.6926
vn 0.0639 -0.0723 -0.9953
vn -0.0803 -0.7127 -0.6968
vn 0.0669 -0.0587 -0.9960
vn 0.4911 0.5001 -0.7132
vn 0.3867 0.5838 -0.7139
vn 0.0863 -0.0363 -0.9956
vn 0.0737 -0.7168 -0.6934
vn 0.2523 0.6544 -0.7128
vn 0.0776 -0.0255 -0.9967
vn 0.2754 -0.6640 -0.6952
vn 0.3480 -0.9375 -0.0002
vn 0.3193 0.9477 -0.0002
vn 0.0688 0.6910 -0.7196
vn 0.0611 0.9981 -0.0002
vn -0.2424 0.9702 -0.0002
vn -0.1360 0.6813 0.7193
vn 0.0854 0.0027 -0.9963
vn -0.1358 0.6816 -0.7190
vn 0.4878 -0.5215 -0.7001
vn 0.0961 0.0573 -0.9937
vn 0.6480 -0.7617 -0.0002
vn 0.8363 -0.5483 -0.0003
vn 0.6080 -0.3492 -0.7130
vn 0.9008 -0.4342 -0.0002
vn 0.6539 -0.2527 -0.7131
vn 0.6078 -0.3491 0.7132
vn 0.6537 -0.2527 0.7133
vn 0.0756 0.1188 -0.9900
vn 0.0805 0.1695 -0.9822
vn -0.3231 0.6257 -0.7100
vn -0.4401 0.5693 -0.6945
vn -0.4576 0.5710 -0.6816
vn -0.6770 0.7360 -0.0000
vn -0.6574 0.7536 -0.0002
vn -0.5135 0.8581 -0.0002
vn -0.3232 0.6259 0.7097
vn -0.4399 0.5691 0.6947
vn -0.4577 0.5712 0.6813
vn 0.0805 0.1694 0.9823
vn 0.0756 0.1187 0.9900
vn 0.0961 0.0573 0.9937
vt 0.000000 0.000000
s 1
f 1058/46/901 1059/46/902 1060/46/903
f 1059/46/902 1061/46/904 1060/46/903
f 1059/46/902 1062/46/905 1061/46/904
f 1062/46/905 1060/46/903 1061/46/904
f 1062/46/905 1059/46/902 1063/46/906
f 1063/46/906 1064/46/907 1062/46/905
f 1060/46/903 1062/46/905 1064/46/907
f 1064/46/907 1063/46/906 1065/46/908
f 1066/46/909 1058/46/901 1060/46/903
f 1064/46/907 1066/46/909 1060/46/903
f 1058/46/901 1066/46/909 1067/46/910
f 1065/46/908 1068/46/911 1064/46/907
f 1066/46/909 1069/46/912 1067/46/910
f 1069/46/912 1066/46/909 1070/46/913
f 1066/46/909 1064/46/907 1070/46/913
f 1070/46/913 1071/46/914 1069/46/912
f 1068/46/911 1072/46/915 1064/46/907
f 1072/46/915 1070/46/913 1064/46/907
f 1071/46/914 1072/46/915 1068/46/911
f 1070/46/913 1072/46/915 1073/46/916
f 1072/46/915 1071/46/914 1073/46/916
f 1071/46/914 1070/46/913 1073/46/916
f 1074/46/917 1075/46/918 1076/46/919
f 1076/46/919 1075/46/918 1077/46/920
f 1078/46/921 1074/46/917 1076/46/919
f 1075/46/918 1074/46/917 1079/46/922
f 1076/46/919 1080/46/923 1078/46/921
f 1080/46/923 1076/46/919 1077/46/920
f 1077/46/920 1075/46/918 1081/46/924
f 1080/46/923 1077/46/920 1082/46/925
f 1079/46/922 1083/46/926 1075/46/918
f 1075/46/918 1083/46/926 1081/46/924
f 1084/46/927 1079/46/922 1074/46/917
f 1077/46/920 1081/46/924 1085/46/928
f 1082/46/925 1077/46/920 1085/46/928
f 1081/46/924 1086/46/929 1085/46/928
f 1087/46/930 1082/46/925 1085/46/928
f 1085/46/928 1088/46/931 1087/46/930
f 1088/46/931 1085/46/928 1086/46/929
f 1087/46/930 1089/46/932 1082/46/925
f 1088/46/931 1090/46/933 1087/46/930
f 1090/46/933 1089/46/932 1087/46/930
f 1090/46/933 1088/46/931 1091/46/934
f 1089/46/932 1090/46/933 1092/46/935
f 1088/46/931 1093/46/936 1091/46/934
f 1089/46/932 1094/46/937 1082/46/925
f 1092/46/935 1095/46/938 1089/46/932
f 1095/46/938 1094/46/937 1089/46/932
f 1092/46/935 1096/46/939 1095/46/938
f 1094/46/937 1080/46/923 1082/46/925
f 1097/46/940 1095/46/938 1096/46/939
f 1096/46/939 1098/46/941 1097/46/940
f 1099/46/942 1097/46/940 1098/46/941
f 1097/46/940 1100/46/943 1095/46/938
f 1100/46/943 1094/46/937 1095/46/938
f 1097/46/940 1099/46/942 1101/46/944
f 1101/46/944 1100/46/943 1097/46/940
f 1102/46/945 1101/46/944 1099/46/942
f 1103/46/946 1080/46/923 1094/46/937
f 1100/46/943 1103/46/946 1094/46/937
f 1103/46/946 1078/46/921 1080/46/923
f 1100/46/943 1101/46/944 1104/46/947
f 1104/46/947 1103/46/946 1100/46/943
f 1101/46/944 1102/46/945 1105/46/948
f 1105/46/948 1104/46/947 1101/46/944
f 1093/46/936 1105/46/948 1102/46/945
f 1103/46/946 1104/46/947 1106/46/949
f 1106/46/949 1078/46/921 1103/46/946
f 1104/46/947 1105/46/948 1107/46/950
f 1107/46/950 1106/46/949 1104/46/947
f 1105/46/948 1093/46/936 1108/46/951
f 1108/46/951 1107/46/950 1105/46/948
f 1093/46/936 1088/46/931 1108/46/951
f 1088/46/931 1109/46/952 1108/46/951
f 1107/46/950 1108/46/951 1109/46/952
f 1109/46/952 1088/46/931 1086/46/929
f 1106/46/949 1107/46/950 1110/46/953
f 1109/46/952 1110/46/953 1107/46/950
f 1110/46/953 1111/46/954 1106/46/949
f 1078/46/921 1106/46/949 1111/46/954
f 1110/46/953 1109/46/952 1112/46/955
f 1086/46/929 1112/46/955 1109/46/952
f 1111/46/954 1110/46/953 1113/46/956
f 1112/46/955 1113/46/956 1110/46/953
f 1114/46/957 1078/46/921 1111/46/954
f 1113/46/956 1114/46/957 1111/46/954
f 1078/46/921 1114/46/957 1115/46/958
f 1078/46/921 1115/46/958 1074/46/917
f 1115/46/958 1084/46/927 1074/46/917
f 1112/46/955 1086/46/929 1116/46/959
f 1086/46/929 1081/46/924 1116/46/959
f 1113/46/956 1112/46/955 1117/46/960
f 1116/46/959 1117/46/960 1112/46/955
f 1083/46/926 1116/46/959 1081/46/924
f 1116/46/959 1083/46/926 1118/46/961
f 1117/46/960 1116/46/959 1118/46/961
f 1118/46/961 1083/46/926 1119/46/962
f 1119/46/962 1117/46/960 1118/46/961
f 1119/46/962 1083/46/926 1120/46/963
f 1083/46/926 1079/46/922 1120/46/963
f 1117/46/960 1121/46/964 1113/46/956
f 1114/46/957 1113/46/956 1121/46/964
f 1117/46/960 1119/46/962 1122/46/965
f 1121/46/964 1117/46/960 1122/46/965
f 1121/46/964 1123/46/966 1114/46/957
f 1123/46/966 1115/46/958 1114/46/957
f 1122/46/965 1124/46/967 1121/46/964
f 1123/46/966 1121/46/964 1124/46/967
f 1115/46/958 1123/46/966 1125/46/968
f 1084/46/927 1115/46/958 1125/46/968
f 1123/46/966 1126/46/969 1125/46/968
f 1126/46/969 1084/46/927 1125/46/968
f 1124/46/967 1127/46/970 1123/46/966
f 1126/46/969 1123/46/966 1127/46/970
f 1127/46/970 1128/46/971 1126/46/969
f 1128/46/971 1127/46/970 1129/46/972
f 1128/46/971 1130/46/973 1126/46/969
f 1084/46/927 1126/46/969 1130/46/973
f 1130/46/973 1128/46/971 1131/46/974
f 1132/46/975 1129/46/972 1127/46/970
f 1127/46/970 1124/46/967 1132/46/975
f 1129/46/972 1132/46/975 1133/46/976
f 1134/46/977 1132/46/975 1124/46/967
f 1124/46/967 1122/46/965 1134/46/977
f 1135/46/978 1133/46/976 1132/46/975
f 1132/46/975 1134/46/977 1135/46/978
f 1133/46/976 1135/46/978 1136/46/979
f 1136/46/979 1135/46/978 1137/46/980
f 1135/46/978 1134/46/977 1138/46/981
f 1138/46/981 1137/46/980 1135/46/978
f 1134/46/977 1122/46/965 1139/46/982
f 1134/46/977 1139/46/982 1138/46/981
f 1122/46/965 1119/46/962 1139/46/982
f 1120/46/963 1139/46/982 1119/46/962
f 1140/46/983 1138/46/981 1139/46/982
f 1139/46/982 1120/46/963 1140/46/983
f 1141/46/984 1137/46/980 1138/46/981
f 1138/46/981 1140/46/983 1141/46/984
f 1137/46/980 1141/46/984 1142/46/985
f 1142/46/985 1141/46/984 1143/46/986
f 1144/46/987 1143/46/986 1141/46/984
f 1141/46/984 1140/46/983 1144/46/987
f 1143/46/986 1144/46/987 1131/46/974
f 1130/46/973 1131/46/974 1144/46/987
f 1140/46/983 1145/46/988 1144/46/987
f 1144/46/987 1145/46/988 1130/46/973
f 1145/46/988 1140/46/983 1120/46/963
f 1145/46/988 1084/46/927 1130/46/973
f 1145/46/988 1120/46/963 1079/46/922
f 1145/46/988 1079/46/922 1084/46/927
