# Blender 5.1.1
# www.blender.org
mtllib notebook satchel body.mtl
o notebook_satchel_body
v 0.518048 -0.428092 0.104466
v 0.539026 -0.392800 0.125441
v 0.590770 -0.392800 0.000515
v 0.561104 -0.428092 0.000516
v 0.518048 -0.428092 -0.103434
v 0.539026 -0.392800 -0.124411
v 0.518048 0.275381 0.104466
v 0.518048 0.275381 -0.103434
v 0.539026 0.240089 0.125441
v 0.539026 0.240089 -0.124411
v 0.590770 0.240089 0.000515
v 0.561104 0.275381 0.000515
v 0.518048 -0.041063 0.104466
v 0.518048 -0.041063 -0.103434
v 0.539026 -0.076355 0.125441
v 0.539026 -0.076356 -0.124411
v 0.590770 -0.076356 0.000515
v 0.561104 -0.041063 0.000515
v 0.518048 -0.111648 0.104466
v 0.539026 -0.076355 0.125441
v 0.590770 -0.076356 0.000515
v 0.561104 -0.111648 0.000515
v 0.518048 -0.111648 -0.103434
v 0.539026 -0.076356 -0.124411
v 0.518048 -0.357508 0.104466
v 0.518048 -0.357508 -0.103434
v 0.539026 -0.392800 0.125441
v 0.539026 -0.392800 -0.124411
v 0.590770 -0.392800 0.000515
v 0.561104 -0.357508 0.000515
v 0.518048 0.204797 0.104466
v 0.539026 0.240089 0.125441
v 0.590770 0.240089 0.000515
v 0.561104 0.204797 0.000515
v 0.518048 0.204797 -0.103434
v 0.539026 0.240089 -0.124411
v 0.267091 0.275381 0.000515
v 0.310148 0.275381 0.104466
v 0.336489 0.240089 0.078125
v 0.414098 0.275381 0.147522
v 0.304342 0.240089 0.000515
v 0.414098 0.240089 0.110271
v 0.336489 0.240089 -0.077094
v 0.491707 0.240089 0.078125
v 0.310148 0.275381 -0.103434
v 0.518048 0.275381 0.104466
v 0.414098 0.275381 -0.146492
v 0.561104 0.275381 0.000515
v 0.414098 0.240089 -0.109240
v 0.523854 0.240089 0.000515
v 0.491707 0.240089 -0.077094
v 0.518048 0.275381 -0.103434
v 0.267091 -0.041063 0.000515
v 0.310148 -0.041063 0.104466
v 0.336489 -0.076355 0.078125
v 0.414098 -0.041063 0.147522
v 0.304342 -0.076356 0.000515
v 0.414098 -0.076355 0.110271
v 0.336489 -0.076356 -0.077093
v 0.491707 -0.076355 0.078125
v 0.310148 -0.041063 -0.103434
v 0.518048 -0.041063 0.104466
v 0.414098 -0.041063 -0.146492
v 0.561104 -0.041063 0.000515
v 0.414098 -0.076356 -0.109240
v 0.523854 -0.076356 0.000515
v 0.491707 -0.076356 -0.077093
v 0.518048 -0.041063 -0.103434
v 0.267091 -0.357508 0.000515
v 0.310148 -0.357508 0.104466
v 0.336489 -0.392800 0.078125
v 0.414098 -0.357508 0.147522
v 0.304342 -0.392800 0.000515
v 0.414098 -0.392800 0.110271
v 0.336489 -0.392800 -0.077093
v 0.491707 -0.392800 0.078125
v 0.310148 -0.357508 -0.103434
v 0.518048 -0.357508 0.104466
v 0.414098 -0.357508 -0.146492
v 0.561104 -0.357508 0.000515
v 0.414098 -0.392800 -0.109240
v 0.523854 -0.392800 0.000515
v 0.491707 -0.392800 -0.077093
v 0.518048 -0.357508 -0.103434
v 0.310148 -0.428092 0.104466
v 0.289172 -0.392800 0.125441
v 0.414098 -0.392800 0.177188
v 0.414098 -0.428092 0.147522
v 0.518048 -0.428092 0.104466
v 0.539026 -0.392800 0.125441
v 0.310148 0.275381 0.104466
v 0.289172 0.240089 0.125441
v 0.414098 0.240089 0.177188
v 0.414098 0.275381 0.147522
v 0.518048 0.275381 0.104466
v 0.539026 0.240089 0.125441
v 0.310148 -0.041063 0.104466
v 0.289172 -0.076355 0.125441
v 0.414098 -0.076355 0.177188
v 0.414098 -0.041063 0.147522
v 0.518048 -0.041063 0.104466
v 0.539026 -0.076355 0.125441
v 0.310148 -0.111648 0.104466
v 0.289172 -0.076355 0.125441
v 0.414098 -0.076355 0.177188
v 0.414098 -0.111648 0.147522
v 0.518048 -0.111648 0.104466
v 0.539026 -0.076355 0.125441
v 0.310148 -0.357508 0.104466
v 0.289172 -0.392800 0.125441
v 0.414098 -0.392800 0.177188
v 0.414098 -0.357508 0.147522
v 0.518048 -0.357508 0.104466
v 0.539026 -0.392800 0.125441
v 0.310148 0.204797 0.104466
v 0.289172 0.240089 0.125441
v 0.414098 0.240089 0.177188
v 0.414098 0.204797 0.147522
v 0.518048 0.204797 0.104466
v 0.539026 0.240089 0.125441
v 0.237425 -0.392800 0.000515
v 0.310148 -0.428092 0.104466
v 0.289172 -0.392800 0.125441
v 0.267091 -0.428092 0.000516
v 0.310148 -0.428092 -0.103434
v 0.289172 -0.392800 -0.124411
v 0.310148 0.275381 0.104466
v 0.267091 0.275381 0.000515
v 0.237425 0.240089 0.000515
v 0.310148 0.275381 -0.103434
v 0.289172 0.240089 0.125441
v 0.289172 0.240089 -0.124411
v 0.310148 -0.041063 0.104466
v 0.267091 -0.041063 0.000515
v 0.237425 -0.076356 0.000515
v 0.310148 -0.041063 -0.103434
v 0.289172 -0.076355 0.125441
v 0.289172 -0.076356 -0.124411
v 0.237425 -0.076356 0.000515
v 0.310148 -0.111648 0.104466
v 0.289172 -0.076355 0.125441
v 0.267091 -0.111648 0.000515
v 0.310148 -0.111648 -0.103434
v 0.289172 -0.076356 -0.124411
v 0.310148 -0.357508 0.104466
v 0.267091 -0.357508 0.000515
v 0.237425 -0.392800 0.000515
v 0.310148 -0.357508 -0.103434
v 0.289172 -0.392800 0.125441
v 0.289172 -0.392800 -0.124411
v 0.237425 0.240089 0.000515
v 0.310148 0.204797 0.104466
v 0.289172 0.240089 0.125441
v 0.267091 0.204797 0.000515
v 0.310148 0.204797 -0.103434
v 0.289172 0.240089 -0.124411
v 0.267091 -0.428092 0.000516
v 0.336489 -0.392800 0.078125
v 0.310148 -0.428092 0.104466
v 0.414098 -0.428092 0.147522
v 0.304342 -0.392800 0.000515
v 0.414098 -0.392800 0.110271
v 0.336489 -0.392800 -0.077093
v 0.491707 -0.392800 0.078125
v 0.310148 -0.428092 -0.103434
v 0.518048 -0.428092 0.104466
v 0.414098 -0.428092 -0.146492
v 0.561104 -0.428092 0.000516
v 0.414098 -0.392800 -0.109240
v 0.523854 -0.392800 0.000515
v 0.491707 -0.392800 -0.077093
v 0.518048 -0.428092 -0.103434
v 0.267091 -0.111648 0.000515
v 0.336489 -0.076355 0.078125
v 0.310148 -0.111648 0.104466
v 0.414098 -0.111648 0.147522
v 0.304342 -0.076356 0.000515
v 0.414098 -0.076355 0.110271
v 0.336489 -0.076356 -0.077093
v 0.491707 -0.076355 0.078125
v 0.310148 -0.111648 -0.103434
v 0.518048 -0.111648 0.104466
v 0.414098 -0.111648 -0.146492
v 0.561104 -0.111648 0.000515
v 0.414098 -0.076356 -0.109240
v 0.523854 -0.076356 0.000515
v 0.491707 -0.076356 -0.077093
v 0.518048 -0.111648 -0.103434
v 0.267091 0.204797 0.000515
v 0.336489 0.240089 0.078125
v 0.310148 0.204797 0.104466
v 0.414098 0.204797 0.147522
v 0.304342 0.240089 0.000515
v 0.414098 0.240089 0.110271
v 0.336489 0.240089 -0.077094
v 0.491707 0.240089 0.078125
v 0.310148 0.204797 -0.103434
v 0.518048 0.204797 0.104466
v 0.414098 0.204797 -0.146492
v 0.561104 0.204797 0.000515
v 0.414098 0.240089 -0.109240
v 0.523854 0.240089 0.000515
v 0.491707 0.240089 -0.077094
v 0.518048 0.204797 -0.103434
v 0.310148 -0.428092 -0.103434
v 0.289172 -0.392800 -0.124411
v 0.414098 -0.392800 -0.176156
v 0.414098 -0.428092 -0.146492
v 0.518048 -0.428092 -0.103434
v 0.539026 -0.392800 -0.124411
v 0.310148 0.275381 -0.103434
v 0.289172 0.240089 -0.124411
v 0.414098 0.240089 -0.176158
v 0.414098 0.275381 -0.146492
v 0.518048 0.275381 -0.103434
v 0.539026 0.240089 -0.124411
v 0.310148 -0.041063 -0.103434
v 0.289172 -0.076356 -0.124411
v 0.414098 -0.076356 -0.176156
v 0.414098 -0.041063 -0.146492
v 0.518048 -0.041063 -0.103434
v 0.539026 -0.076356 -0.124411
v 0.310148 -0.111648 -0.103434
v 0.289172 -0.076356 -0.124411
v 0.414098 -0.076356 -0.176156
v 0.414098 -0.111648 -0.146492
v 0.518048 -0.111648 -0.103434
v 0.539026 -0.076356 -0.124411
v 0.310148 -0.357508 -0.103434
v 0.289172 -0.392800 -0.124411
v 0.414098 -0.392800 -0.176156
v 0.414098 -0.357508 -0.146492
v 0.518048 -0.357508 -0.103434
v 0.539026 -0.392800 -0.124411
v 0.310148 0.204797 -0.103434
v 0.289172 0.240089 -0.124411
v 0.414098 0.240089 -0.176158
v 0.414098 0.204797 -0.146492
v 0.518048 0.204797 -0.103434
v 0.539026 0.240089 -0.124411
v 0.432227 0.534501 -0.131915
v 0.432227 -0.568493 0.132945
v 0.432227 -0.568493 -0.131915
v 0.432227 0.534501 0.132945
v 0.317749 -0.360385 0.097631
v 0.303201 -0.395509 0.132945
v 0.303201 -0.395509 0.097631
v 0.317749 -0.360385 0.132945
v 0.303201 -0.395509 -0.131915
v 0.317749 -0.360385 -0.131915
v 0.303201 -0.395509 -0.096601
v 0.317749 -0.360385 -0.096601
v 0.303201 0.237381 0.097631
v 0.317749 0.202258 0.132945
v 0.317749 0.202258 0.097631
v 0.303201 0.237381 0.132945
v 0.317749 0.202258 -0.131915
v 0.303201 0.237381 -0.131915
v 0.317749 0.202258 -0.096601
v 0.303201 0.237381 -0.096601
v 0.317749 -0.043940 0.097631
v 0.303201 -0.079064 0.132945
v 0.303201 -0.079064 0.097631
v 0.317749 -0.043940 0.132945
v 0.303201 -0.079064 -0.131915
v 0.317749 -0.043940 -0.131915
v 0.303201 -0.079064 -0.096601
v 0.317749 -0.043940 -0.096601
v 0.303201 -0.079064 0.097631
v 0.317749 -0.114187 0.132945
v 0.317749 -0.114187 0.097631
v 0.303201 -0.079064 0.132945
v 0.317749 -0.114187 -0.131915
v 0.303201 -0.079064 -0.131915
v 0.317749 -0.114187 -0.096601
v 0.303201 -0.079064 -0.096601
v 0.317749 0.272505 0.097631
v 0.303201 0.237381 0.132945
v 0.303201 0.237381 0.097631
v 0.317749 0.272505 0.132945
v 0.303201 0.237381 -0.131915
v 0.317749 0.272505 -0.131915
v 0.303201 0.237381 -0.096601
v 0.317749 0.272505 -0.096601
v 0.303201 -0.395509 0.097631
v 0.317749 -0.430632 0.132945
v 0.317749 -0.430632 0.097631
v 0.303201 -0.395509 0.132945
v 0.317749 -0.430632 -0.131915
v 0.303201 -0.395509 -0.131915
v 0.317749 -0.430632 -0.096601
v 0.303201 -0.395509 -0.096601
v -0.411626 0.534501 0.132945
v 0.390035 0.534501 0.097631
v -0.411626 0.534501 0.097631
v 0.390035 0.534501 0.132945
v 0.432227 0.534501 0.132945
v 0.432227 0.534501 -0.131915
v 0.390035 0.534501 -0.096601
v 0.390035 0.534501 -0.131915
v -0.411626 0.534501 -0.096601
v -0.411626 0.534501 -0.131915
v 0.352874 0.187708 -0.131915
v 0.317749 0.202258 -0.131915
v 0.352874 0.187708 -0.096601
v 0.317749 0.202258 -0.096601
v 0.352874 0.187708 0.097631
v 0.317749 0.202258 0.097631
v 0.352874 0.187708 0.132945
v 0.317749 0.202258 0.132945
v 0.387996 0.202258 -0.131915
v 0.352874 0.187708 -0.131915
v 0.387996 0.202258 -0.096601
v 0.352874 0.187708 -0.096601
v 0.387996 0.202258 0.097631
v 0.352874 0.187708 0.097631
v 0.387996 0.202258 0.132945
v 0.352874 0.187708 0.132945
v 0.352874 -0.128736 -0.131915
v 0.317749 -0.114187 -0.131915
v 0.352874 -0.128736 -0.096601
v 0.317749 -0.114187 -0.096601
v 0.352874 -0.128736 0.097631
v 0.317749 -0.114187 0.097631
v 0.352874 -0.128736 0.132945
v 0.317749 -0.114187 0.132945
v 0.387996 -0.114187 -0.131915
v 0.352874 -0.128736 -0.131915
v 0.387996 -0.114187 -0.096601
v 0.352874 -0.128736 -0.096601
v 0.387996 -0.114187 0.097631
v 0.352874 -0.128736 0.097631
v 0.387996 -0.114187 0.132945
v 0.352874 -0.128736 0.132945
v 0.352874 -0.445180 -0.131915
v 0.317749 -0.430632 -0.131915
v 0.352874 -0.445180 -0.096601
v 0.317749 -0.430632 -0.096601
v 0.352874 -0.445180 0.097631
v 0.317749 -0.430632 0.097631
v 0.352874 -0.445180 0.132945
v 0.317749 -0.430632 0.132945
v 0.387996 -0.430632 -0.131915
v 0.352874 -0.445180 -0.131915
v 0.387996 -0.430632 -0.096601
v 0.352874 -0.445180 -0.096601
v 0.387996 -0.430632 0.097631
v 0.352874 -0.445180 0.097631
v 0.387996 -0.430632 0.132945
v 0.352874 -0.445180 0.132945
v 0.317749 0.272505 0.132945
v -0.411626 0.534501 0.132945
v 0.303201 0.237381 0.132945
v 0.390035 0.534501 0.132945
v 0.352874 0.287053 0.132945
v 0.387996 0.272505 0.132945
v 0.390035 0.267584 0.132945
v 0.432227 0.534501 0.132945
v 0.402546 0.237381 0.132945
v 0.303201 -0.079064 0.132945
v -0.411626 -0.568493 0.132945
v 0.317749 -0.043940 0.132945
v 0.317749 0.202258 0.132945
v 0.352874 -0.029391 0.132945
v 0.352874 0.187708 0.132945
v 0.387996 -0.043940 0.132945
v 0.387996 0.202258 0.132945
v 0.390035 0.207178 0.132945
v 0.390035 -0.048860 0.132945
v 0.402546 -0.079064 0.132945
v 0.432227 -0.568493 0.132945
v 0.402546 -0.395509 0.132945
v 0.390035 -0.109267 0.132945
v 0.390035 -0.425712 0.132945
v 0.390035 -0.365305 0.132945
v 0.387996 -0.360385 0.132945
v 0.387996 -0.114187 0.132945
v 0.352874 -0.128736 0.132945
v 0.352874 -0.345836 0.132945
v 0.317749 -0.360385 0.132945
v 0.317749 -0.114187 0.132945
v 0.303201 -0.395509 0.132945
v 0.317749 -0.430632 0.132945
v 0.390035 -0.568493 0.132945
v 0.352874 -0.445180 0.132945
v 0.387996 -0.430632 0.132945
v 0.352874 -0.345836 -0.096601
v 0.352874 -0.128736 -0.096601
v 0.317749 -0.360385 -0.096601
v 0.387996 -0.360385 -0.096601
v 0.317749 -0.114187 -0.096601
v 0.387996 -0.114187 -0.096601
v 0.390035 -0.109267 -0.096601
v 0.390035 -0.365305 -0.096601
v 0.303201 -0.395509 -0.096601
v 0.303201 -0.079064 -0.096601
v -0.411626 -0.568493 -0.096601
v 0.317749 -0.430632 -0.096601
v 0.390035 -0.568493 -0.096601
v 0.352874 -0.445180 -0.096601
v 0.387996 -0.430632 -0.096601
v 0.390035 -0.425712 -0.096601
v -0.411626 0.534501 -0.096601
v 0.303201 0.237381 -0.096601
v 0.317749 -0.043940 -0.096601
v 0.317749 0.272505 -0.096601
v 0.317749 0.202258 -0.096601
v 0.390035 0.534501 -0.096601
v 0.352874 -0.029391 -0.096601
v 0.352874 0.287053 -0.096601
v 0.387996 0.272505 -0.096601
v 0.390035 0.267584 -0.096601
v 0.352874 0.187708 -0.096601
v 0.387996 0.202258 -0.096601
v 0.387996 -0.043940 -0.096601
v 0.390035 0.207178 -0.096601
v 0.390035 -0.048860 -0.096601
v -0.411626 0.534501 -0.131915
v -0.411626 -0.568493 -0.131915
v -0.411626 -0.568493 -0.096601
v -0.411626 0.534501 -0.096601
v -0.411626 0.534501 0.097631
v -0.411626 -0.568493 0.097631
v -0.411626 -0.568493 0.132945
v -0.411626 0.534501 0.132945
v 0.387996 -0.360385 0.097631
v 0.390035 -0.365305 0.132945
v 0.387996 -0.360385 0.132945
v 0.390035 -0.365305 0.097631
v 0.402546 -0.395509 0.132945
v 0.390035 -0.365305 -0.096601
v 0.402546 -0.395509 -0.131915
v 0.390035 -0.365305 -0.131915
v 0.387996 -0.360385 -0.131915
v 0.387996 -0.360385 -0.096601
v 0.390035 0.207178 -0.096601
v 0.390035 0.207178 -0.131915
v 0.387996 0.202258 -0.096601
v 0.387996 0.202258 -0.131915
v 0.402546 0.237381 -0.131915
v 0.402546 0.237381 0.132945
v 0.390035 0.207178 0.097631
v 0.390035 0.207178 0.132945
v 0.387996 0.202258 0.132945
v 0.387996 0.202258 0.097631
v 0.390035 -0.425712 -0.096601
v 0.390035 -0.568493 -0.096601
v 0.390035 -0.425712 0.097631
v 0.390035 -0.568493 0.097631
v 0.390035 0.207178 -0.096601
v 0.390035 -0.048860 -0.096601
v 0.390035 0.207178 0.097631
v 0.390035 -0.048860 0.097631
v 0.390035 -0.109267 -0.096601
v 0.390035 -0.365305 -0.096601
v 0.390035 -0.365305 0.097631
v 0.390035 -0.109267 0.097631
v 0.390035 0.534501 -0.096601
v 0.390035 0.267584 -0.096601
v 0.390035 0.267584 0.097631
v 0.390035 0.534501 0.097631
v 0.387996 -0.043940 0.097631
v 0.390035 -0.048860 0.132945
v 0.387996 -0.043940 0.132945
v 0.390035 -0.048860 0.097631
v 0.402546 -0.079064 0.132945
v 0.390035 -0.048860 -0.096601
v 0.402546 -0.079064 -0.131915
v 0.390035 -0.048860 -0.131915
v 0.387996 -0.043940 -0.131915
v 0.387996 -0.043940 -0.096601
v 0.390035 -0.109267 -0.096601
v 0.390035 -0.109267 -0.131915
v 0.387996 -0.114187 -0.096601
v 0.387996 -0.114187 -0.131915
v 0.402546 -0.079064 -0.131915
v 0.402546 -0.079064 0.132945
v 0.390035 -0.109267 0.097631
v 0.390035 -0.109267 0.132945
v 0.387996 -0.114187 0.132945
v 0.387996 -0.114187 0.097631
v 0.387996 0.272505 0.097631
v 0.390035 0.267584 0.132945
v 0.387996 0.272505 0.132945
v 0.390035 0.267584 0.097631
v 0.402546 0.237381 0.132945
v 0.390035 0.267584 -0.096601
v 0.402546 0.237381 -0.131915
v 0.390035 0.267584 -0.131915
v 0.387996 0.272505 -0.131915
v 0.387996 0.272505 -0.096601
v 0.387996 -0.430632 0.097631
v 0.387996 -0.430632 0.132945
v 0.390035 -0.425712 0.097631
v 0.390035 -0.425712 0.132945
v 0.402546 -0.395509 0.132945
v 0.402546 -0.395509 -0.131915
v 0.390035 -0.425712 -0.096601
v 0.390035 -0.425712 -0.131915
v 0.387996 -0.430632 -0.096601
v 0.387996 -0.430632 -0.131915
v -0.411626 -0.568493 -0.131915
v 0.390035 -0.568493 -0.131915
v 0.390035 -0.568493 -0.096601
v -0.411626 -0.568493 -0.096601
v 0.432227 -0.568493 -0.131915
v 0.390035 -0.568493 0.097631
v 0.432227 -0.568493 0.132945
v 0.390035 -0.568493 0.132945
v -0.411626 -0.568493 0.097631
v -0.411626 -0.568493 0.132945
v 0.317749 -0.360385 -0.131915
v 0.352874 -0.345836 -0.131915
v 0.352874 -0.345836 -0.096601
v 0.317749 -0.360385 -0.096601
v 0.317749 -0.360385 0.097631
v 0.352874 -0.345836 0.097631
v 0.352874 -0.345836 0.132945
v 0.317749 -0.360385 0.132945
v 0.352874 -0.345836 -0.131915
v 0.387996 -0.360385 -0.131915
v 0.387996 -0.360385 -0.096601
v 0.352874 -0.345836 -0.096601
v 0.352874 -0.345836 0.097631
v 0.387996 -0.360385 0.097631
v 0.387996 -0.360385 0.132945
v 0.352874 -0.345836 0.132945
v 0.317749 -0.043940 -0.131915
v 0.352874 -0.029391 -0.131915
v 0.352874 -0.029391 -0.096601
v 0.317749 -0.043940 -0.096601
v 0.317749 -0.043940 0.097631
v 0.352874 -0.029391 0.097631
v 0.352874 -0.029391 0.132945
v 0.317749 -0.043940 0.132945
v 0.352874 -0.029391 -0.131915
v 0.387996 -0.043940 -0.131915
v 0.387996 -0.043940 -0.096601
v 0.352874 -0.029391 -0.096601
v 0.352874 -0.029391 0.097631
v 0.387996 -0.043940 0.097631
v 0.387996 -0.043940 0.132945
v 0.352874 -0.029391 0.132945
v 0.317749 0.272505 -0.131915
v 0.352874 0.287053 -0.131915
v 0.352874 0.287053 -0.096601
v 0.317749 0.272505 -0.096601
v 0.317749 0.272505 0.097631
v 0.352874 0.287053 0.097631
v 0.352874 0.287053 0.132945
v 0.317749 0.272505 0.132945
v 0.352874 0.287053 -0.131915
v 0.387996 0.272505 -0.131915
v 0.387996 0.272505 -0.096601
v 0.352874 0.287053 -0.096601
v 0.352874 0.287053 0.097631
v 0.387996 0.272505 0.097631
v 0.387996 0.272505 0.132945
v 0.352874 0.287053 0.132945
v 0.432227 0.534501 -0.131915
v 0.390035 0.267584 -0.131915
v 0.390035 0.534501 -0.131915
v 0.387996 0.272505 -0.131915
v 0.352874 0.287053 -0.131915
v 0.402546 0.237381 -0.131915
v 0.317749 0.272505 -0.131915
v -0.411626 0.534501 -0.131915
v 0.303201 0.237381 -0.131915
v 0.402546 -0.079064 -0.131915
v 0.432227 -0.568493 -0.131915
v 0.390035 -0.048860 -0.131915
v 0.390035 0.207178 -0.131915
v 0.387996 -0.043940 -0.131915
v 0.387996 0.202258 -0.131915
v 0.352874 -0.029391 -0.131915
v 0.352874 0.187708 -0.131915
v 0.317749 0.202258 -0.131915
v 0.317749 -0.043940 -0.131915
v 0.303201 -0.079064 -0.131915
v -0.411626 -0.568493 -0.131915
v 0.303201 -0.395509 -0.131915
v 0.317749 -0.114187 -0.131915
v 0.317749 -0.430632 -0.131915
v 0.317749 -0.360385 -0.131915
v 0.352874 -0.128736 -0.131915
v 0.352874 -0.345836 -0.131915
v 0.387996 -0.360385 -0.131915
v 0.387996 -0.114187 -0.131915
v 0.390035 -0.109267 -0.131915
v 0.390035 -0.365305 -0.131915
v 0.402546 -0.395509 -0.131915
v 0.390035 -0.425712 -0.131915
v 0.390035 -0.568493 -0.131915
v 0.387996 -0.430632 -0.131915
v 0.352874 -0.445180 -0.131915
v 0.317749 0.272505 0.097631
v 0.390035 0.534501 0.097631
v 0.352874 0.287053 0.097631
v 0.387996 0.272505 0.097631
v 0.390035 0.267584 0.097631
v -0.411626 0.534501 0.097631
v 0.303201 0.237381 0.097631
v 0.303201 -0.079064 0.097631
v -0.411626 -0.568493 0.097631
v 0.317749 -0.043940 0.097631
v 0.317749 0.202258 0.097631
v 0.352874 -0.029391 0.097631
v 0.352874 0.187708 0.097631
v 0.387996 0.202258 0.097631
v 0.387996 -0.043940 0.097631
v 0.390035 0.207178 0.097631
v 0.390035 -0.048860 0.097631
v 0.303201 -0.395509 0.097631
v 0.317749 -0.114187 0.097631
v 0.317749 -0.430632 0.097631
v 0.317749 -0.360385 0.097631
v 0.390035 -0.568493 0.097631
v 0.352874 -0.128736 0.097631
v 0.352874 -0.445180 0.097631
v 0.387996 -0.430632 0.097631
v 0.390035 -0.425712 0.097631
v 0.352874 -0.345836 0.097631
v 0.387996 -0.360385 0.097631
v 0.387996 -0.114187 0.097631
v 0.390035 -0.109267 0.097631
v 0.390035 -0.365305 0.097631
v 0.046818 0.658479 0.047463
v 0.105192 0.614614 0.019109
v 0.105192 0.628839 0.007909
v 0.163566 0.566779 -0.009126
v 0.163566 0.557212 0.005045
v 0.221939 0.497651 -0.002417
v 0.221939 0.493573 0.013047
v 0.280313 0.434350 0.016768
v 0.280313 0.433085 0.032603
v -0.263819 -0.422701 0.050907
v -0.217123 -0.376003 0.050700
v -0.217123 -0.376003 0.062989
v -0.170424 -0.329303 0.050700
v -0.263828 -0.422701 0.063197
v -0.170424 -0.329303 0.062989
v -0.123725 -0.282604 0.062989
v -0.123725 -0.282604 0.050700
v -0.310504 -0.469402 0.051638
v -0.310543 -0.469402 0.063929
v -0.357195 -0.516100 0.051810
v 0.314252 0.198738 0.099837
v 0.314252 0.198738 -0.098808
v 0.314252 -0.040450 0.099837
v 0.298253 -0.079078 0.099837
v 0.314252 -0.040450 -0.098808
v 0.298253 -0.079078 -0.098808
v 0.314252 0.275994 -0.098808
v 0.314252 0.275994 0.099837
v 0.298253 0.237367 0.099837
v 0.298253 0.237367 -0.098808
v 0.298253 -0.395523 0.099837
v 0.314252 -0.117707 0.099837
v 0.298253 -0.395523 -0.098807
v 0.314252 -0.117707 -0.098808
v 0.314252 -0.356894 0.099837
v 0.314252 -0.434152 0.099837
v 0.314252 -0.434152 -0.098807
v 0.314252 -0.356894 -0.098807
v 0.105192 0.257955 0.031266
v 0.163566 0.316834 0.021214
v 0.163566 0.316194 0.037085
v 0.221939 0.374749 0.031066
v 0.105192 0.257796 0.047192
v 0.046818 0.199481 0.035299
v 0.221939 0.375845 0.015232
v 0.280313 0.433085 0.032603
v 0.280313 0.434350 0.016768
v -0.217123 -0.189205 0.062989
v -0.217123 -0.189205 0.050700
v -0.263819 -0.142507 0.050907
v -0.170424 -0.235905 0.050700
v -0.263828 -0.142507 0.063197
v -0.170424 -0.235905 0.062989
v -0.123725 -0.282604 0.062989
v -0.123725 -0.282604 0.050700
v -0.310504 -0.095807 0.051638
v -0.310543 -0.095807 0.063929
v -0.357195 -0.049108 0.051810
v -0.389004 0.504928 -0.063758
v 0.416516 0.520699 -0.032592
v 0.416516 0.504928 -0.063758
v -0.401069 0.520699 -0.032592
v 0.416516 0.520699 0.033623
v -0.401069 0.520699 0.033623
v -0.389004 0.504928 0.064788
v 0.416516 0.504928 0.064788
v -0.389004 0.504928 0.000514
v 0.416516 0.520699 0.033623
v 0.416516 0.504928 0.000514
v -0.401069 0.520699 0.033623
v 0.221939 0.497651 -0.002417
v 0.221939 0.493573 0.013047
v 0.280313 0.434350 0.016768
v -0.389004 0.504928 0.064788
v 0.416516 0.520699 0.099837
v 0.416516 0.504928 0.064788
v -0.401069 0.520699 0.099837
v 0.416516 0.520699 -0.032592
v -0.401069 0.520699 -0.032592
v -0.389004 0.504928 0.000514
v 0.416516 0.504928 0.000514
v 0.416516 0.520699 -0.098808
v -0.401069 0.520699 -0.098808
v -0.389004 0.504928 -0.063758
v 0.416516 0.504928 -0.063758
v -0.497192 -0.189205 0.060601
v -0.498490 -0.189205 0.072821
v -0.451339 -0.142507 0.072311
v -0.543616 -0.235905 0.057128
v -0.450522 -0.142507 0.060048
v -0.545292 -0.235905 0.069302
v -0.589800 -0.282604 0.050768
v -0.591631 -0.282604 0.062921
v -0.404184 -0.095807 0.068511
v -0.403820 -0.095807 0.056228
v -0.357253 -0.049108 0.064098
v 0.314252 0.198738 0.099837
v 0.352881 0.182737 0.099837
v 0.314252 0.198738 -0.098808
v 0.391510 0.198738 0.099837
v 0.352881 0.182737 -0.098808
v 0.391510 0.198738 -0.098808
v 0.314252 -0.117707 0.099837
v 0.314252 -0.117707 -0.098808
v 0.314252 -0.434152 0.099837
v 0.314252 -0.434152 -0.098807
v 0.352881 -0.133708 0.099837
v 0.352881 -0.133708 -0.098808
v 0.391510 -0.117707 0.099837
v 0.391510 -0.117707 -0.098808
v 0.391510 -0.434152 -0.098807
v 0.391510 -0.434152 0.099837
v 0.352881 -0.450152 -0.098807
v 0.352881 -0.450152 0.099837
v -0.217123 -0.189205 0.062989
v -0.263819 -0.142507 0.050907
v -0.263828 -0.142507 0.063197
v -0.310504 -0.095807 0.051638
v -0.310543 -0.095807 0.063929
v -0.357195 -0.049108 0.051810
v -0.357253 -0.049108 0.064098
v 0.046818 0.658479 0.047463
v 0.105192 0.628839 0.007909
v 0.046818 0.674470 0.039118
v -0.010559 0.628106 0.009807
v 0.046818 0.658479 0.047463
v 0.046818 0.674470 0.039118
v -0.357456 -0.142507 0.068976
v -0.357706 -0.235905 0.073093
v -0.310652 -0.189205 0.067387
v -0.310543 -0.095807 0.063929
v -0.357253 -0.049108 0.064098
v -0.263828 -0.142507 0.063197
v -0.404184 -0.095807 0.068511
v -0.404629 -0.189205 0.074225
v -0.451339 -0.142507 0.072311
v -0.263855 -0.235905 0.064542
v -0.217123 -0.189205 0.062989
v -0.310726 -0.282604 0.069162
v -0.451872 -0.235905 0.076522
v -0.498490 -0.189205 0.072821
v -0.404876 -0.282604 0.076696
v -0.357706 -0.329303 0.073093
v -0.498824 -0.282604 0.074643
v -0.545292 -0.235905 0.069302
v -0.591631 -0.282604 0.062921
v -0.545292 -0.329303 0.069302
v -0.498490 -0.376003 0.072821
v -0.451872 -0.329303 0.076522
v -0.451339 -0.422701 0.072311
v -0.404629 -0.376003 0.074225
v -0.404184 -0.469402 0.068511
v -0.357456 -0.422701 0.068976
v -0.357253 -0.516100 0.064098
v -0.310543 -0.469402 0.063929
v -0.310652 -0.376003 0.067387
v -0.263828 -0.422701 0.063197
v -0.263855 -0.329303 0.064542
v -0.217123 -0.376003 0.062989
v -0.217123 -0.282604 0.062989
v -0.170424 -0.329303 0.062989
v -0.170424 -0.235905 0.062989
v -0.123725 -0.282604 0.062989
v -0.187422 0.433341 0.029448
v -0.070530 0.435331 0.008341
v -0.129332 0.494529 0.008110
v -0.128306 0.374749 0.031065
v -0.011000 0.500355 0.013471
v -0.068903 0.555655 0.009612
v -0.011319 0.613296 0.021944
v -0.011555 0.375843 0.015187
v -0.069930 0.316194 0.037085
v 0.046818 0.438329 -0.006536
v 0.046818 0.564543 0.013064
v 0.046818 0.658479 0.047463
v 0.105192 0.614614 0.019109
v 0.105192 0.501265 0.010479
v 0.163566 0.557212 0.005045
v 0.221939 0.493573 0.013047
v 0.163566 0.435535 0.007213
v 0.280313 0.433085 0.032603
v 0.221939 0.374749 0.031066
v 0.105192 0.375843 0.015187
v 0.163566 0.316194 0.037085
v 0.046818 0.316373 0.030480
v 0.105192 0.257796 0.047192
v -0.011555 0.257796 0.047192
v 0.046818 0.199481 0.051281
v 0.314252 0.198738 0.099837
v 0.352881 -0.024450 0.099837
v 0.352881 0.182737 0.099837
v 0.314252 -0.040450 0.099837
v 0.298253 -0.079078 0.099837
v 0.391510 0.198738 0.099837
v 0.391510 -0.040450 0.099837
v 0.407509 -0.079078 0.099837
v 0.407509 0.237367 0.099837
v 0.391510 0.275994 0.099837
v 0.416516 0.520699 0.099837
v 0.352881 0.291995 0.099837
v 0.314252 0.275994 0.099837
v -0.401069 0.520699 0.099837
v 0.416516 -0.554722 0.099837
v 0.298253 0.237367 0.099837
v -0.401069 -0.554722 0.099837
v 0.298253 -0.395523 0.099837
v 0.314252 -0.117707 0.099837
v 0.314252 -0.356894 0.099837
v 0.314252 -0.434152 0.099837
v 0.352881 -0.340895 0.099837
v 0.352881 -0.133708 0.099837
v 0.391510 -0.117707 0.099837
v 0.391510 -0.356894 0.099837
v 0.407509 -0.395523 0.099837
v 0.391510 -0.434152 0.099837
v 0.352881 -0.450152 0.099837
v -0.497192 -0.376003 0.060601
v -0.451339 -0.422701 0.072311
v -0.450522 -0.422701 0.060048
v -0.404184 -0.469402 0.068511
v -0.403820 -0.469402 0.056228
v -0.357253 -0.516100 0.064098
v -0.357195 -0.516100 0.051810
v -0.186006 0.434603 0.013655
v -0.129332 0.494529 0.008110
v -0.123272 0.498683 -0.007298
v -0.187422 0.433341 0.029448
v -0.068903 0.555655 0.009612
v -0.062959 0.565613 -0.004116
v -0.011319 0.613296 0.021944
v -0.010559 0.628106 0.009807
v 0.046818 0.658479 0.047463
v -0.401069 -0.554722 -0.032592
v -0.401069 0.520699 -0.032592
v -0.389004 0.504928 -0.063758
v -0.389004 -0.538948 -0.063758
v -0.401069 -0.554722 0.033623
v -0.389004 0.504928 0.064788
v -0.401069 0.520699 0.033623
v -0.389004 -0.538948 0.064788
v -0.401069 -0.554722 0.033623
v -0.401069 0.520699 0.033623
v -0.389004 0.504928 0.000514
v -0.389004 -0.538948 0.000516
v -0.401069 -0.554722 -0.032592
v -0.389004 0.504928 0.000514
v -0.401069 0.520699 -0.032592
v -0.389004 -0.538948 0.000516
v -0.401069 -0.554722 0.099837
v -0.401069 0.520699 0.099837
v -0.389004 0.504928 0.064788
v -0.389004 -0.538948 0.064788
v -0.401069 -0.554722 -0.098807
v -0.389004 0.504928 -0.063758
v -0.401069 0.520699 -0.098808
v -0.389004 -0.538948 -0.063758
v -0.497192 -0.189205 0.060601
v -0.451339 -0.142507 0.072311
v -0.450522 -0.142507 0.060048
v -0.404184 -0.095807 0.068511
v -0.403820 -0.095807 0.056228
v -0.357253 -0.049108 0.064098
v -0.357195 -0.049108 0.051810
v 0.391510 0.198738 0.099837
v 0.391510 -0.040450 0.099837
v 0.391510 0.198738 -0.098808
v 0.391510 -0.040450 -0.098808
v 0.407509 -0.079078 0.099837
v 0.407509 -0.079078 -0.098808
v 0.407509 0.237367 -0.098808
v 0.407509 0.237367 0.099837
v 0.391510 0.275994 -0.098808
v 0.391510 0.275994 0.099837
v 0.391510 -0.117707 0.099837
v 0.391510 -0.356894 0.099837
v 0.391510 -0.117707 -0.098808
v 0.391510 -0.356894 -0.098807
v 0.407509 -0.395523 0.099837
v 0.407509 -0.395523 -0.098807
v 0.391510 -0.434152 -0.098807
v 0.391510 -0.434152 0.099837
v -0.069930 0.316194 0.037085
v -0.011555 0.257955 0.031266
v -0.011555 0.257796 0.047192
v 0.046818 0.199481 0.035299
v -0.069930 0.316834 0.021214
v -0.128306 0.374749 0.031065
v -0.128304 0.375845 0.015232
v -0.187422 0.433341 0.029448
v -0.186006 0.434603 0.013655
v -0.498490 -0.376003 0.072821
v -0.497192 -0.376003 0.060601
v -0.451339 -0.422701 0.072311
v -0.450522 -0.422701 0.060048
v -0.543616 -0.329303 0.057128
v -0.404184 -0.469402 0.068511
v -0.545292 -0.329303 0.069302
v -0.589800 -0.282604 0.050768
v -0.591631 -0.282604 0.062921
v -0.403820 -0.469402 0.056228
v -0.357253 -0.516100 0.064098
v -0.389004 -0.538948 -0.063758
v 0.416516 -0.538948 -0.063758
v 0.416516 -0.554722 -0.032592
v -0.401069 -0.554722 -0.032592
v 0.416516 -0.554722 0.033623
v -0.389004 -0.538948 0.064788
v -0.401069 -0.554722 0.033623
v 0.416516 -0.538948 0.064788
v -0.389004 -0.538948 0.000516
v 0.416516 -0.538948 0.000516
v 0.416516 -0.554722 0.033623
v -0.401069 -0.554722 0.033623
v -0.389004 -0.538948 0.064788
v 0.416516 -0.538948 0.064788
v 0.416516 -0.554722 0.099837
v -0.401069 -0.554722 0.099837
v 0.416516 -0.554722 -0.032592
v -0.389004 -0.538948 0.000516
v -0.401069 -0.554722 -0.032592
v 0.416516 -0.538948 0.000516
v 0.416516 -0.554722 -0.098807
v -0.389004 -0.538948 -0.063758
v -0.401069 -0.554722 -0.098807
v 0.416516 -0.538948 -0.063758
v -0.263819 -0.422701 0.050907
v -0.217123 -0.376003 0.062989
v -0.263828 -0.422701 0.063197
v -0.310504 -0.469402 0.051638
v -0.310543 -0.469402 0.063929
v -0.357195 -0.516100 0.051810
v -0.357253 -0.516100 0.064098
v 0.352881 -0.024450 0.099837
v 0.314252 -0.040450 0.099837
v 0.314252 -0.040450 -0.098808
v 0.352881 -0.024450 -0.098808
v 0.391510 -0.040450 0.099837
v 0.391510 -0.040450 -0.098808
v 0.391510 0.275994 -0.098808
v 0.391510 0.275994 0.099837
v 0.352881 0.291995 -0.098808
v 0.352881 0.291995 0.099837
v 0.314252 0.275994 -0.098808
v 0.314252 0.275994 0.099837
v 0.314252 -0.356894 0.099837
v 0.314252 -0.356894 -0.098807
v 0.352881 -0.340895 0.099837
v 0.352881 -0.340895 -0.098807
v 0.391510 -0.356894 0.099837
v 0.391510 -0.356894 -0.098807
v 0.105192 0.257955 0.031266
v 0.163566 0.316834 0.021214
v 0.163566 0.316194 0.037085
v 0.221939 0.374749 0.031066
v 0.105192 0.257796 0.047192
v 0.046818 0.199481 0.035299
v 0.046818 0.199481 0.051281
v -0.069930 0.316194 0.037085
v -0.011555 0.257955 0.031266
v -0.011555 0.257796 0.047192
v 0.046818 0.199481 0.035299
v 0.046818 0.199481 0.051281
v -0.069930 0.316834 0.021214
v -0.128306 0.374749 0.031065
v -0.128304 0.375845 0.015232
v -0.187422 0.433341 0.029448
v 0.046818 0.577290 0.003201
v -0.010559 0.628106 0.009807
v 0.046818 0.674470 0.039118
v 0.105192 0.628839 0.007909
v -0.062959 0.565613 -0.004116
v 0.163566 0.566779 -0.009126
v -0.009729 0.508849 0.000486
v 0.105192 0.509590 -0.002136
v -0.123272 0.498683 -0.007298
v 0.221939 0.497651 -0.002417
v -0.069153 0.438788 -0.006657
v -0.186006 0.434603 0.013655
v -0.128304 0.375845 0.015232
v 0.046818 0.443315 -0.020723
v -0.011557 0.377807 -0.000524
v -0.069930 0.316834 0.021214
v 0.163566 0.438923 -0.007497
v 0.280313 0.434350 0.016768
v 0.221939 0.375845 0.015232
v 0.105192 0.377807 -0.000524
v 0.163566 0.316834 0.021214
v 0.046818 0.317311 0.014648
v -0.011555 0.257955 0.031266
v 0.105192 0.257955 0.031266
v 0.046818 0.199481 0.035299
v -0.403820 -0.095807 0.056228
v -0.310504 -0.095807 0.051638
v -0.357140 -0.142507 0.056692
v -0.357195 -0.049108 0.051810
v -0.450522 -0.142507 0.060048
v -0.263819 -0.142507 0.050907
v -0.403888 -0.189205 0.061958
v -0.497192 -0.189205 0.060601
v -0.310460 -0.189205 0.055100
v -0.217123 -0.189205 0.050700
v -0.357174 -0.235905 0.060816
v -0.263798 -0.235905 0.052254
v -0.170424 -0.235905 0.050700
v -0.450683 -0.235905 0.064289
v -0.543616 -0.235905 0.057128
v -0.403973 -0.282604 0.064440
v -0.497286 -0.282604 0.062452
v -0.589800 -0.282604 0.050768
v -0.543616 -0.329303 0.057128
v -0.450683 -0.329303 0.064289
v -0.497192 -0.376003 0.060601
v -0.403888 -0.376003 0.061959
v -0.450522 -0.422701 0.060048
v -0.357174 -0.329303 0.060816
v -0.357140 -0.422701 0.056692
v -0.403820 -0.469402 0.056228
v -0.310504 -0.469402 0.051638
v -0.357195 -0.516100 0.051810
v -0.263819 -0.422701 0.050907
v -0.310460 -0.376003 0.055100
v -0.217123 -0.376003 0.050700
v -0.263798 -0.329303 0.052254
v -0.170424 -0.329303 0.050700
v -0.310454 -0.282604 0.056875
v -0.217123 -0.282604 0.050700
v -0.123725 -0.282604 0.050700
v 0.314252 0.198738 -0.098808
v 0.314252 -0.040450 -0.098808
v 0.352881 -0.024450 -0.098808
v 0.298253 -0.079078 -0.098808
v 0.352881 0.182737 -0.098808
v 0.391510 0.198738 -0.098808
v 0.391510 -0.040450 -0.098808
v 0.407509 -0.079078 -0.098808
v 0.407509 0.237367 -0.098808
v 0.391510 0.275994 -0.098808
v 0.416516 0.520699 -0.098808
v 0.352881 0.291995 -0.098808
v 0.314252 0.275994 -0.098808
v -0.401069 0.520699 -0.098808
v 0.298253 0.237367 -0.098808
v -0.401069 -0.554722 -0.098807
v 0.298253 -0.395523 -0.098807
v 0.314252 -0.117707 -0.098808
v 0.314252 -0.434152 -0.098807
v 0.416516 -0.554722 -0.098807
v 0.314252 -0.356894 -0.098807
v 0.352881 -0.340895 -0.098807
v 0.352881 -0.133708 -0.098808
v 0.391510 -0.117707 -0.098808
v 0.391510 -0.356894 -0.098807
v 0.407509 -0.395523 -0.098807
v 0.391510 -0.434152 -0.098807
v 0.352881 -0.450152 -0.098807
vn 0.7637 -0.6456 -0.0000
vn 0.5414 -0.6433 0.5413
vn 0.5414 -0.6433 -0.5413
vn 0.7637 0.6456 -0.0000
vn 0.5414 0.6433 0.5413
vn 0.5414 0.6433 -0.5413
vn 0.7637 -0.6455 -0.0000
vn 0.6872 0.7265 -0.0000
vn 0.4878 0.7239 -0.4878
vn -0.0000 0.7265 -0.6871
vn 0.6873 0.7264 -0.0000
vn 0.4878 0.7239 0.4878
vn -0.4878 0.7239 -0.4878
vn -0.0000 0.7265 0.6871
vn -0.6873 0.7264 -0.0000
vn -0.4878 0.7239 0.4878
vn 0.6871 0.7266 -0.0000
vn -0.0000 0.7266 -0.6871
vn 0.6871 0.7265 -0.0000
vn -0.0000 0.7266 0.6871
vn -0.6872 0.7265 -0.0000
vn -0.0000 0.7264 0.6873
vn 0.6870 0.7266 -0.0000
vn -0.0000 0.7266 0.6870
vn -0.6872 0.7264 -0.0000
vn -0.5413 -0.6433 0.5414
vn -0.0000 -0.6456 0.7637
vn 0.5412 -0.6434 0.5414
vn 0.5413 -0.6433 0.5414
vn -0.0000 0.6456 0.7637
vn -0.5413 0.6433 0.5414
vn -0.5412 0.6433 0.5415
vn 0.5413 0.6433 0.5414
vn -0.0000 0.6455 0.7638
vn 0.5412 -0.6434 0.5415
vn 0.5413 -0.6433 0.5415
vn -0.7637 -0.6456 -0.0000
vn -0.5414 -0.6433 0.5413
vn -0.5414 -0.6433 -0.5413
vn -0.5414 0.6433 0.5413
vn -0.7637 0.6456 -0.0000
vn -0.5414 0.6433 -0.5413
vn -0.5414 0.6434 -0.5413
vn -0.5415 0.6433 -0.5413
vn 0.6872 -0.7265 -0.0000
vn 0.4878 -0.7239 -0.4878
vn -0.0000 -0.7265 -0.6871
vn 0.6870 -0.7267 -0.0000
vn -0.0000 -0.7265 -0.6872
vn 0.4878 -0.7239 0.4878
vn -0.4878 -0.7239 -0.4878
vn 0.4878 -0.7240 0.4878
vn -0.4878 -0.7240 -0.4878
vn -0.0000 -0.7266 0.6870
vn -0.6873 -0.7264 -0.0000
vn -0.6871 -0.7266 -0.0000
vn -0.4878 -0.7239 0.4878
vn 0.6871 -0.7265 -0.0000
vn -0.0000 -0.7265 0.6871
vn -0.6872 -0.7265 -0.0000
vn 0.6870 -0.7266 -0.0000
vn -0.0000 -0.6456 -0.7637
vn -0.5413 -0.6433 -0.5414
vn -0.0000 -0.6455 -0.7637
vn 0.5413 -0.6433 -0.5414
vn -0.0000 0.6456 -0.7637
vn -0.5413 0.6433 -0.5414
vn 0.5413 0.6434 -0.5414
vn 0.5413 0.6433 -0.5414
vn -0.0000 0.6455 -0.7637
vn 1.0000 -0.0000 -0.0000
vn 0.9224 -0.3863 -0.0000
vn 0.9224 0.3863 -0.0000
vn 0.9224 -0.3862 -0.0000
vn -0.0000 1.0000 -0.0000
vn 0.3863 0.9224 -0.0000
vn -0.3863 0.9224 -0.0000
vn 0.3862 0.9224 -0.0000
vn -0.0000 -0.0000 1.0000
vn -1.0000 -0.0000 -0.0000
vn -0.9224 -0.3863 -0.0000
vn -0.9224 0.3863 -0.0000
vn -0.0000 -1.0000 -0.0000
vn 0.3863 -0.9224 -0.0000
vn 0.3862 -0.9224 -0.0000
vn -0.3863 -0.9224 -0.0000
vn -0.0000 -0.0000 -1.0000
vn 0.6464 0.4178 0.6385
vn 0.6700 0.4966 0.5518
vn 0.6632 0.4579 0.5921
vn 0.6993 0.5972 0.3929
vn 0.7056 0.6429 0.2980
vn 0.7026 0.6789 0.2132
vn 0.7026 0.6789 0.2131
vn 0.7071 -0.7071 -0.0000
vn 0.7072 -0.7070 0.0005
vn 0.7071 -0.7071 0.0001
vn 0.6829 -0.6437 -0.3454
vn 0.6829 -0.6437 0.3454
vn 0.9541 -0.0000 0.2995
vn 0.9541 -0.0000 -0.2995
vn 0.6829 0.6437 0.3454
vn 0.6829 0.6437 -0.3454
vn 0.7068 -0.7068 -0.0314
vn 0.7071 0.7071 -0.0000
vn 0.7071 0.7071 -0.0001
vn -0.0000 0.8927 -0.4506
vn -0.0000 0.8928 -0.4505
vn -0.0000 0.8928 0.4505
vn -0.0000 0.9022 -0.4313
vn -0.0000 0.9022 -0.4314
vn -0.0000 0.9021 -0.4315
vn -0.0000 0.9125 -0.4090
vn -0.0000 0.9125 -0.4091
vn -0.0000 0.9124 -0.4093
vn -0.0000 0.9021 0.4315
vn -0.0000 0.9022 0.4314
vn -0.0000 0.9125 0.4090
vn -0.0000 0.9125 0.4091
vn -0.7017 0.7096 -0.0631
vn -0.0000 0.8440 0.5364
vn -0.0000 0.8440 -0.5364
vn -0.6829 0.6437 0.3454
vn -0.6829 0.6437 -0.3454
vn -0.6232 0.5835 0.5207
vn -0.6232 0.5835 -0.5207
vn -0.0000 0.9224 -0.3863
vn -0.0000 0.9224 0.3863
vn 0.6829 0.6437 0.3455
vn 0.7071 0.7072 0.0005
vn 0.7071 0.7071 0.0001
vn 0.6632 0.4578 0.5921
vn -0.6799 0.4901 0.5455
vn -0.6453 0.4327 0.6296
vn 0.0550 0.0471 0.9974
vn 0.0707 0.0236 0.9972
vn 0.0706 0.0314 0.9970
vn 0.0471 0.0550 0.9974
vn 0.0550 0.0236 0.9982
vn 0.0393 0.0551 0.9977
vn 0.0315 0.0472 0.9984
vn 0.0079 0.0550 0.9985
vn 0.0551 0.0079 0.9985
vn 0.0315 0.0079 0.9995
vn 0.0863 -0.0000 0.9963
vn -0.0157 0.0236 0.9996
vn -0.0472 0.0314 0.9984
vn 0.0315 -0.0000 0.9995
vn 0.0707 -0.0236 0.9972
vn -0.0787 -0.0000 0.9969
vn -0.1026 0.0079 0.9947
vn -0.1260 -0.0000 0.9920
vn -0.1026 -0.0079 0.9947
vn -0.0472 -0.0314 0.9984
vn -0.0158 -0.0236 0.9996
vn 0.0079 -0.0550 0.9985
vn 0.0315 -0.0472 0.9984
vn 0.0393 -0.0551 0.9977
vn 0.0550 -0.0471 0.9974
vn 0.0471 -0.0549 0.9974
vn 0.0706 -0.0314 0.9970
vn 0.0550 -0.0236 0.9982
vn 0.0552 -0.0079 0.9984
vn 0.0315 -0.0079 0.9995
vn 0.0236 -0.0000 0.9997
vn 0.0079 -0.0000 1.0000
vn 0.1729 0.1886 0.9667
vn 0.0865 0.1022 0.9910
vn 0.0787 0.1023 0.9916
vn 0.1496 0.1574 0.9761
vn 0.0236 -0.0236 0.9994
vn -0.0393 -0.0393 0.9985
vn -0.0079 -0.1810 0.9835
vn 0.0787 0.2046 0.9757
vn 0.0947 0.1816 0.9788
vn 0.0079 0.1026 0.9947
vn 0.0236 -0.1809 0.9832
vn 0.0236 -0.3467 0.9377
vn 0.0472 -0.1808 0.9824
vn -0.0157 -0.0157 0.9998
vn 0.0158 -0.0236 0.9996
vn -0.1264 0.0948 0.9874
vn -0.1106 0.1106 0.9877
vn -0.2045 0.1494 0.9674
vn -0.1729 0.1415 0.9747
vn -0.0787 0.2046 0.9757
vn -0.0944 0.1967 0.9759
vn -0.0000 0.2444 0.9697
vn -0.0314 0.2276 0.9733
vn 0.0314 0.2276 0.9733
vn -0.0000 0.1733 0.9849
vn 0.6828 0.6437 0.3455
vn -0.0000 -0.8440 0.5363
vn -0.0001 0.8440 0.5363
vn 0.6830 -0.6435 0.3455
vn 0.9541 0.0001 0.2996
vn -0.6829 0.6436 0.3456
vn -0.6828 -0.6437 0.3456
vn -0.9541 -0.0001 0.2996
vn -0.6828 -0.6437 0.3455
vn -0.6232 0.5836 0.5206
vn -0.0001 0.9224 0.3863
vn -0.7017 -0.7096 -0.0631
vn -0.7018 -0.7096 -0.0631
vn -0.7302 0.6831 -0.0079
vn -0.7302 0.6832 -0.0079
vn -0.7331 0.6779 0.0552
vn -0.7329 0.6147 0.2916
vn -0.7091 0.5436 0.4491
vn -0.6453 0.4328 0.6295
vn -0.9317 -0.0000 -0.3632
vn -0.9317 -0.0000 0.3632
vn -0.9405 -0.0000 -0.3398
vn -0.9405 -0.0000 0.3398
vn -0.9405 -0.0000 0.3399
vn -0.9463 -0.0000 -0.3233
vn -0.9463 -0.0000 0.3233
vn -0.7018 0.7096 -0.0631
vn -0.6830 -0.6436 -0.3454
vn -0.9541 -0.0000 0.2995
vn -0.6829 -0.6437 0.3454
vn -0.9541 -0.0000 -0.2995
vn -0.6830 0.6436 0.3454
vn -0.6829 -0.6436 -0.3454
vn -0.6231 0.5837 0.5206
vn -0.6231 0.5837 -0.5206
vn -0.7066 -0.7066 -0.0392
vn -0.7066 -0.7066 -0.0393
vn -0.0000 -0.8928 -0.4504
vn -0.0000 -0.8928 -0.4505
vn -0.0000 -0.8928 0.4505
vn -0.0000 -0.8928 0.4504
vn -0.0000 -0.9021 -0.4315
vn -0.0000 -0.9022 -0.4314
vn -0.0000 -0.9125 -0.4091
vn -0.0000 -0.9021 0.4315
vn -0.0000 -0.9022 0.4314
vn -0.0000 -0.9125 0.4091
vn 0.7071 -0.7072 0.0005
vn -0.0000 -0.8440 0.5364
vn -0.0000 -0.8440 -0.5364
vn -0.6829 -0.6437 -0.3454
vn 0.6829 -0.6437 -0.3455
vn 0.7067 -0.7068 -0.0313
vn -0.0236 0.1885 -0.9818
vn 0.0236 0.1885 -0.9818
vn -0.0161 0.3467 -0.9378
vn -0.0632 0.1896 -0.9798
vn 0.0628 0.0471 -0.9969
vn -0.0472 0.0314 -0.9984
vn -0.0079 0.0394 -0.9992
vn -0.0000 0.0315 -0.9995
vn -0.0631 -0.0868 -0.9942
vn 0.1100 -0.0864 -0.9902
vn -0.0789 -0.0867 -0.9931
vn -0.1657 -0.1736 -0.9708
vn -0.1499 -0.1421 -0.9784
vn -0.0078 -0.0785 -0.9969
vn -0.0789 -0.1894 -0.9787
vn -0.0941 -0.1726 -0.9805
vn 0.1022 -0.0943 -0.9903
vn 0.1972 -0.1420 -0.9700
vn 0.1655 -0.1340 -0.9771
vn 0.0711 -0.1896 -0.9793
vn 0.0869 -0.1817 -0.9795
vn -0.0000 -0.2370 -0.9715
vn -0.0315 -0.2202 -0.9749
vn 0.0315 -0.2202 -0.9749
vn -0.0000 -0.1732 -0.9849
vn -0.0393 -0.0550 -0.9977
vn -0.0628 -0.0471 -0.9969
vn -0.0550 -0.0474 -0.9974
vn -0.0471 -0.0550 -0.9974
vn -0.0079 -0.0550 -0.9985
vn -0.0550 -0.0236 -0.9982
vn -0.0315 -0.0472 -0.9984
vn 0.0472 -0.0314 -0.9984
vn -0.0706 -0.0314 -0.9970
vn -0.0315 -0.0079 -0.9995
vn -0.0707 -0.0236 -0.9972
vn -0.0550 -0.0079 -0.9985
vn -0.0078 -0.0000 -1.0000
vn 0.0157 -0.0236 -0.9996
vn 0.1026 -0.0079 -0.9947
vn -0.0315 -0.0000 -0.9995
vn 0.0785 -0.0000 -0.9969
vn 0.1258 -0.0000 -0.9921
vn 0.1026 0.0079 -0.9947
vn 0.0157 0.0236 -0.9996
vn 0.0472 0.0314 -0.9984
vn -0.0315 0.0471 -0.9984
vn -0.0079 0.0550 -0.9985
vn -0.0706 0.0236 -0.9972
vn -0.0550 0.0472 -0.9974
vn -0.0393 0.0550 -0.9977
vn -0.0628 0.0471 -0.9969
vn -0.0471 0.0550 -0.9974
vn -0.0550 0.0236 -0.9982
vn -0.0707 0.0314 -0.9970
vn -0.0315 0.0079 -0.9995
vn -0.0550 0.0079 -0.9985
vn -0.0863 -0.0000 -0.9963
vn -0.0236 -0.0000 -0.9997
vn 0.6828 -0.6437 -0.3456
vn 0.6830 0.6435 -0.3455
vn -0.0001 -0.8440 -0.5363
vn 0.9541 -0.0001 -0.2996
vn -0.0000 0.8440 -0.5363
vn -0.6828 0.6437 -0.3456
vn -0.6830 -0.6435 -0.3455
vn -0.9541 0.0001 -0.2996
vn -0.6829 0.6437 -0.3455
vn 0.0001 0.9224 -0.3863
vt 50.000000 -15.075000
vt 49.970402 -15.075000
vt 49.975399 -15.083400
vt 50.000000 -15.083400
vt 50.024601 -15.083400
vt 50.029598 -15.075000
vt 50.000000 -14.925000
vt 49.975399 -14.916600
vt 49.970402 -14.925000
vt 50.024601 -14.916600
vt 50.029598 -14.925000
vt 50.000000 -14.916600
vt 50.000000 -15.000000
vt 49.975399 -14.991600
vt 49.970402 -15.000000
vt 50.024601 -14.991600
vt 50.029598 -15.000000
vt 50.000000 -14.991600
vt 49.975399 -15.008400
vt 50.000000 -15.008400
vt 50.024601 -15.008400
vt 49.975399 -15.066600
vt 50.024601 -15.066600
vt 50.000000 -15.066600
vt 49.975399 -14.933400
vt 50.000000 -14.933400
vt 50.024601 -14.933400
vt 50.034801 -15.000000
vt 50.024601 -14.975400
vt 50.018398 -14.981600
vt 50.000000 -14.965200
vt 50.026001 -15.000000
vt 50.000000 -14.974000
vt 50.018398 -15.018400
vt 49.981602 -14.981600
vt 50.024601 -15.024600
vt 49.975399 -14.975400
vt 50.000000 -15.034800
vt 49.965199 -15.000000
vt 50.000000 -15.026000
vt 49.973999 -15.000000
vt 49.981602 -15.018400
vt 49.975399 -15.024600
vt 54.031399 -48.869301
vt 53.968601 -49.130699
vt 54.031399 -49.130699
vt 53.968601 -48.869301
vt 53.977001 -49.081402
vt 53.968601 -49.089699
vt 53.977001 -49.089699
vt 53.968601 -49.081402
vt 54.031399 -49.089699
vt 54.031399 -49.081402
vt 54.022999 -49.089699
vt 54.022999 -49.081402
vt 53.977001 -48.939701
vt 53.968601 -48.948002
vt 53.977001 -48.948002
vt 53.968601 -48.939701
vt 54.031399 -48.948002
vt 54.031399 -48.939701
vt 54.022999 -48.948002
vt 54.022999 -48.939701
vt 53.977001 -49.006401
vt 53.968601 -49.014702
vt 53.977001 -49.014702
vt 53.968601 -49.006401
vt 54.031399 -49.014702
vt 54.031399 -49.006401
vt 54.022999 -49.014702
vt 54.022999 -49.006401
vt 53.968601 -49.022999
vt 53.977001 -49.022999
vt 54.031399 -49.022999
vt 54.022999 -49.022999
vt 53.977001 -48.931400
vt 53.968601 -48.931400
vt 54.031399 -48.931400
vt 54.022999 -48.931400
vt 53.968601 -49.098000
vt 53.977001 -49.098000
vt 54.031399 -49.098000
vt 54.022999 -49.098000
vt 54.099998 -48.968601
vt 53.910000 -48.977001
vt 54.099998 -48.977001
vt 53.910000 -48.968601
vt 53.900002 -48.968601
vt 53.900002 -49.031399
vt 53.910000 -49.022999
vt 53.910000 -49.031399
vt 54.099998 -49.022999
vt 54.099998 -49.031399
vt 53.918800 -49.031399
vt 53.927101 -49.031399
vt 53.918800 -49.022999
vt 53.927101 -49.022999
vt 53.918800 -48.977001
vt 53.927101 -48.977001
vt 53.918800 -48.968601
vt 53.927101 -48.968601
vt 53.910500 -49.031399
vt 53.910500 -49.022999
vt 53.910500 -48.977001
vt 53.910500 -48.968601
vt 54.072899 -48.931400
vt 53.900002 -48.869301
vt 54.069401 -48.939701
vt 54.090000 -48.869301
vt 54.081200 -48.927898
vt 54.089500 -48.931400
vt 54.090000 -48.932598
vt 54.099998 -48.869301
vt 54.092999 -48.939701
vt 54.069401 -49.014702
vt 53.900002 -49.130699
vt 54.072899 -49.006401
vt 54.072899 -48.948002
vt 54.081200 -49.002899
vt 54.081200 -48.951500
vt 54.089500 -49.006401
vt 54.089500 -48.948002
vt 54.090000 -48.946899
vt 54.090000 -49.007599
vt 54.092999 -49.014702
vt 54.099998 -49.130699
vt 54.092999 -49.089699
vt 54.090000 -49.021900
vt 54.090000 -49.096901
vt 54.090000 -49.082600
vt 54.089500 -49.081402
vt 54.089500 -49.022999
vt 54.081200 -49.026501
vt 54.081200 -49.077900
vt 54.072899 -49.081402
vt 54.072899 -49.022999
vt 54.069401 -49.089699
vt 54.072899 -49.098000
vt 54.090000 -49.130699
vt 54.081200 -49.101501
vt 54.089500 -49.098000
vt 53.977001 -49.130699
vt 53.977001 -48.869301
vt 54.022999 -48.869301
vt 54.022999 -49.130699
vt 54.031399 -49.082600
vt 54.022999 -49.082600
vt 53.977001 -49.082600
vt 53.968601 -49.082600
vt 53.977001 -48.946899
vt 53.968601 -48.946899
vt 54.022999 -48.946899
vt 54.031399 -48.946899
vt 53.977001 -49.096901
vt 54.022999 -49.096901
vt 53.977001 -49.007599
vt 54.022999 -49.007599
vt 53.977001 -49.021900
vt 54.022999 -49.021900
vt 53.977001 -48.932598
vt 54.022999 -48.932598
vt 54.031399 -49.007599
vt 53.968601 -49.007599
vt 53.968601 -49.021900
vt 54.031399 -49.021900
vt 54.031399 -48.932598
vt 53.968601 -48.932598
vt 54.031399 -49.096901
vt 53.968601 -49.096901
vt 54.090000 -49.031399
vt 54.090000 -49.022999
vt 53.900002 -49.022999
vt 54.090000 -48.977001
vt 54.090000 -48.968601
vt 53.900002 -48.977001
vt 54.072899 -49.031399
vt 54.081200 -49.031399
vt 54.081200 -49.022999
vt 54.072899 -48.977001
vt 54.081200 -48.977001
vt 54.081200 -48.968601
vt 54.072899 -48.968601
vt 54.089500 -49.031399
vt 54.089500 -48.977001
vt 54.089500 -48.968601
vt 53.910000 -48.932598
vt 53.910000 -48.869301
vt 53.910500 -48.931400
vt 53.918800 -48.927898
vt 53.907001 -48.939701
vt 53.927101 -48.931400
vt 53.930599 -48.939701
vt 53.907001 -49.014702
vt 53.910000 -49.007599
vt 53.910000 -48.946899
vt 53.910500 -49.006401
vt 53.910500 -48.948002
vt 53.918800 -49.002899
vt 53.918800 -48.951500
vt 53.927101 -48.948002
vt 53.927101 -49.006401
vt 53.930599 -49.014702
vt 53.930599 -49.089699
vt 53.927101 -49.098000
vt 53.927101 -49.081402
vt 53.918800 -49.026501
vt 53.918800 -49.077900
vt 53.910500 -49.081402
vt 53.910000 -49.021900
vt 53.910000 -49.082600
vt 53.907001 -49.089699
vt 53.910000 -49.096901
vt 53.910000 -49.130699
vt 53.910500 -49.098000
vt 53.918800 -49.101501
vt 25.988899 -34.858101
vt 25.995600 -34.868500
vt 25.998199 -34.865200
vt 26.002300 -34.879902
vt 25.998899 -34.882099
vt 26.000700 -34.896198
vt 25.997000 -34.897202
vt 25.996099 -34.911201
vt 25.992399 -34.911499
vt 25.988100 -35.114399
vt 25.988100 -35.103298
vt 25.985201 -35.103298
vt 25.988100 -35.092201
vt 25.985201 -35.092201
vt 25.985201 -35.081200
vt 25.988100 -35.081200
vt 25.985100 -35.114399
vt 25.987900 -35.125401
vt 25.985001 -35.125401
vt 25.987801 -35.136501
vt 26.023500 -35.023800
vt 25.976500 -35.023800
vt 25.976500 -35.032902
vt 26.023500 -35.032902
vt 26.023500 -34.948799
vt 25.976500 -34.948799
vt 25.976500 -34.957901
vt 26.023500 -34.957901
vt 25.976500 -34.967098
vt 26.023500 -34.967098
vt 25.976500 -35.042099
vt 26.023500 -35.042099
vt 25.976500 -35.117100
vt 26.023500 -35.107899
vt 25.976500 -35.107899
vt 26.023500 -35.117100
vt 26.023500 -35.098801
vt 25.976500 -35.098801
vt 25.992701 -34.953098
vt 25.995100 -34.939098
vt 25.991301 -34.939301
vt 25.988899 -34.953098
vt 25.991800 -34.966900
vt 25.996500 -34.925098
vt 25.992800 -34.925400
vt 25.985201 -35.058998
vt 25.988100 -35.058998
vt 25.988100 -35.048000
vt 25.988100 -35.070099
vt 25.985201 -35.070099
vt 25.987900 -35.036900
vt 25.985100 -35.048000
vt 25.987801 -35.025799
vt 25.985001 -35.036900
vt 26.071400 -35.015202
vt 25.880501 -35.007801
vt 25.880501 -35.015202
vt 26.074301 -35.007801
vt 25.880501 -34.992199
vt 26.074301 -34.992199
vt 26.071400 -34.984798
vt 25.880501 -34.984798
vt 26.071400 -35.000000
vt 25.880501 -35.000000
vt 25.926600 -35.000702
vt 25.926600 -34.997002
vt 25.912800 -34.996101
vt 25.880501 -34.976501
vt 26.074301 -34.976501
vt 25.880501 -35.023499
vt 26.074301 -35.023499
vt 26.097099 -34.985802
vt 26.097401 -34.982899
vt 26.086201 -34.983002
vt 26.108101 -34.986599
vt 26.108500 -34.983700
vt 26.118999 -34.988098
vt 26.119499 -34.985199
vt 26.075001 -34.983898
vt 26.086000 -34.985901
vt 26.063900 -34.984901
vt 26.075001 -34.986801
vt 25.904800 -35.023499
vt 25.904800 -34.976501
vt 25.895599 -34.976501
vt 25.895599 -35.023499
vt 25.886499 -34.976501
vt 25.886499 -35.023499
vt 26.030701 -34.985199
vt 26.041800 -34.988098
vt 26.041800 -34.985100
vt 26.052799 -34.987900
vt 26.052799 -34.985001
vt 26.063900 -34.987801
vt 26.031799 -34.858101
vt 26.045700 -34.865200
vt 26.031799 -34.854301
vt 26.018200 -34.865299
vt 25.936001 -35.048000
vt 25.936001 -35.070099
vt 25.947100 -35.058998
vt 25.947201 -35.036900
vt 25.936100 -35.025799
vt 25.958200 -35.048000
vt 25.924999 -35.036900
vt 25.924900 -35.058998
vt 25.913799 -35.048000
vt 25.958200 -35.070099
vt 25.969299 -35.058998
vt 25.947100 -35.081200
vt 25.913700 -35.070099
vt 25.902599 -35.058998
vt 25.924801 -35.081200
vt 25.936001 -35.092201
vt 25.902500 -35.081200
vt 25.891500 -35.070099
vt 25.880501 -35.081200
vt 25.891500 -35.092201
vt 25.902599 -35.103298
vt 25.913700 -35.092201
vt 25.913799 -35.114399
vt 25.924900 -35.103298
vt 25.924999 -35.125401
vt 25.936001 -35.114399
vt 25.936100 -35.136501
vt 25.947201 -35.125401
vt 25.947100 -35.103298
vt 25.958200 -35.114399
vt 25.958200 -35.092201
vt 25.969299 -35.103298
vt 25.969299 -35.081200
vt 25.980400 -35.092201
vt 25.980400 -35.070099
vt 25.991400 -35.081200
vt 25.976299 -34.911499
vt 26.004000 -34.910999
vt 25.990101 -34.896999
vt 25.990299 -34.925400
vt 26.018101 -34.895599
vt 26.004400 -34.882500
vt 26.018101 -34.868801
vt 26.018000 -34.925098
vt 26.004200 -34.939301
vt 26.031799 -34.910301
vt 26.031799 -34.880402
vt 26.045700 -34.868500
vt 26.045700 -34.895401
vt 26.059500 -34.882099
vt 26.073400 -34.897202
vt 26.059500 -34.910999
vt 26.087200 -34.911499
vt 26.073400 -34.925400
vt 26.045700 -34.925098
vt 26.059500 -34.939301
vt 26.031799 -34.939201
vt 26.045700 -34.953098
vt 26.018000 -34.953098
vt 26.031799 -34.966900
vt 26.095200 -34.967098
vt 26.104401 -35.020000
vt 26.104401 -34.970901
vt 26.095200 -35.023800
vt 26.091400 -35.032902
vt 26.113501 -34.967098
vt 26.113501 -35.023800
vt 26.117300 -35.032902
vt 26.117300 -34.957901
vt 26.119499 -34.890800
vt 26.113501 -34.948799
vt 26.104401 -34.945000
vt 26.095200 -34.948799
vt 25.925699 -34.890800
vt 26.119499 -35.145699
vt 26.091400 -34.957901
vt 25.925699 -35.145699
vt 26.091400 -35.107899
vt 26.095200 -35.042099
vt 26.095200 -35.098801
vt 26.095200 -35.117100
vt 26.104401 -35.095001
vt 26.104401 -35.045898
vt 26.113501 -35.042099
vt 26.113501 -35.098801
vt 26.117300 -35.107899
vt 26.113501 -35.117100
vt 26.104401 -35.120899
vt 26.014099 -35.114399
vt 26.017000 -35.114399
vt 26.014200 -35.103298
vt 26.016100 -35.125401
vt 26.013201 -35.125401
vt 26.015100 -35.136501
vt 26.012199 -35.136501
vt 26.003099 -34.911201
vt 26.001801 -34.896999
vt 25.998100 -34.896000
vt 26.006901 -34.911499
vt 26.002199 -34.882500
vt 25.998899 -34.880100
vt 26.005100 -34.868801
vt 26.002199 -34.865299
vt 26.011101 -34.858101
vt 25.992201 -35.145699
vt 25.992201 -34.890800
vt 25.984800 -34.894501
vt 25.984800 -35.141899
vt 26.007799 -35.145699
vt 26.015200 -34.894501
vt 26.007799 -34.890800
vt 26.015200 -35.141899
vt 26.000000 -34.894501
vt 26.000000 -35.141899
vt 26.023500 -35.145699
vt 26.023500 -34.890800
vt 25.976500 -35.145699
vt 25.976500 -34.890800
vt 26.014200 -35.058998
vt 26.017000 -35.048000
vt 26.014099 -35.048000
vt 26.016100 -35.036900
vt 26.013201 -35.036900
vt 26.015100 -35.025799
vt 26.012199 -35.025799
vt 26.008200 -34.966900
vt 26.011101 -34.953098
vt 26.007299 -34.953098
vt 26.008699 -34.939301
vt 26.004900 -34.939098
vt 26.007200 -34.925400
vt 26.003500 -34.925098
vt 25.902599 -34.982899
vt 25.902901 -34.985802
vt 25.913799 -34.983002
vt 25.891899 -34.986599
vt 25.914000 -34.985901
vt 25.924999 -34.983898
vt 25.891500 -34.983700
vt 25.881001 -34.988098
vt 25.880501 -34.985199
vt 25.924999 -34.986801
vt 25.936100 -34.984901
vt 25.928600 -35.015202
vt 26.119499 -35.015202
vt 26.119499 -35.007801
vt 25.925699 -35.007801
vt 26.119499 -34.992199
vt 25.928600 -34.984798
vt 25.925699 -34.992199
vt 26.119499 -34.984798
vt 25.928600 -35.000000
vt 26.119499 -35.000000
vt 26.119499 -34.976501
vt 25.925699 -34.976501
vt 26.119499 -35.023499
vt 25.925699 -35.023499
vt 25.958200 -34.985100
vt 25.958200 -34.988098
vt 25.969299 -34.985199
vt 25.947201 -34.987900
vt 25.947201 -34.985001
vt 25.936100 -34.987801
vt 26.095200 -35.023499
vt 26.104401 -34.976501
vt 26.095200 -34.976501
vt 26.104401 -35.023499
vt 26.113501 -34.976501
vt 26.113501 -35.023499
vt 26.073400 -34.992802
vt 26.059500 -34.991299
vt 26.059500 -34.995098
vt 26.045700 -34.992699
vt 26.045700 -34.988899
vt 26.031799 -34.991798
vt 26.031799 -34.987999
vt 26.004200 -34.991299
vt 26.018000 -34.992699
vt 26.018000 -34.988899
vt 25.990299 -34.992802
vt 26.004200 -34.995098
vt 25.976299 -34.993099
vt 25.990299 -34.996498
vt 25.968201 -34.877399
vt 25.981800 -34.865299
vt 25.968201 -34.854301
vt 25.954300 -34.865200
vt 25.994200 -34.880100
vt 25.940500 -34.879902
vt 25.981600 -34.893600
vt 25.954300 -34.893398
vt 26.008499 -34.896000
vt 25.926600 -34.896198
vt 25.995600 -34.910198
vt 26.023300 -34.911201
vt 26.009701 -34.925098
vt 25.968201 -34.909100
vt 25.982000 -34.924599
vt 25.995800 -34.939098
vt 25.940500 -34.910198
vt 25.912800 -34.911201
vt 25.926600 -34.925098
vt 25.954300 -34.924599
vt 25.940500 -34.939098
vt 25.968201 -34.938999
vt 25.982000 -34.953098
vt 25.954300 -34.953098
vt 25.968201 -34.966900
vt 26.075001 -35.036900
vt 26.052799 -35.036900
vt 26.063900 -35.048000
vt 26.063900 -35.025799
vt 26.086000 -35.048000
vt 26.041800 -35.048000
vt 26.075001 -35.058998
vt 26.097099 -35.058998
vt 26.052799 -35.058998
vt 26.030701 -35.058998
vt 26.063900 -35.070099
vt 26.041800 -35.070099
vt 26.019600 -35.070099
vt 26.086100 -35.070099
vt 26.108101 -35.070099
vt 26.075001 -35.081200
vt 26.097099 -35.081200
vt 26.118999 -35.081200
vt 26.108101 -35.092201
vt 26.086100 -35.092201
vt 26.097099 -35.103298
vt 26.075001 -35.103298
vt 26.086000 -35.114399
vt 26.063900 -35.092201
vt 26.063900 -35.114399
vt 26.075001 -35.125401
vt 26.052799 -35.125401
vt 26.063900 -35.136501
vt 26.041800 -35.114399
vt 26.052799 -35.103298
vt 26.030701 -35.103298
vt 26.041800 -35.092201
vt 26.019600 -35.092201
vt 26.052799 -35.081200
vt 26.030701 -35.081200
vt 26.008600 -35.081200
vt 25.904800 -35.023800
vt 25.904800 -34.967098
vt 25.895599 -35.020000
vt 25.908600 -35.032902
vt 25.895599 -34.970901
vt 25.886499 -34.967098
vt 25.886499 -35.023800
vt 25.882700 -35.032902
vt 25.882700 -34.957901
vt 25.880501 -34.890800
vt 25.886499 -34.948799
vt 25.895599 -34.945000
vt 25.904800 -34.948799
vt 26.074301 -34.890800
vt 25.908600 -34.957901
vt 26.074301 -35.145699
vt 25.908600 -35.107899
vt 25.904800 -35.042099
vt 25.904800 -35.117100
vt 25.880501 -35.145699
vt 25.904800 -35.098801
vt 25.895599 -35.095001
vt 25.895599 -35.045898
vt 25.886499 -35.042099
vt 25.886499 -35.098801
vt 25.882700 -35.107899
vt 25.886499 -35.117100
vt 25.895599 -35.120899
s 1
usemtl Meshpart1Mtl
f 3/1/1 2/2/2 1/3/2
f 3/1/1 1/3/2 4/4/1
f 5/5/3 3/1/1 4/4/1
f 3/1/1 5/5/3 6/6/3
f 11/7/4 7/8/5 9/9/5
f 8/10/6 11/7/4 10/11/6
f 7/8/5 11/7/4 12/12/4
f 11/7/4 8/10/6 12/12/4
f 17/13/4 13/14/5 15/15/5
f 14/16/6 17/13/4 16/17/6
f 13/14/5 17/13/4 18/18/4
f 17/13/4 14/16/6 18/18/4
f 21/13/1 20/15/2 19/19/2
f 21/13/1 19/19/2 22/20/1
f 23/21/3 21/13/1 22/20/1
f 21/13/1 23/21/3 24/17/3
f 29/1/4 25/22/5 27/2/5
f 26/23/6 29/1/4 28/6/6
f 25/22/5 29/1/4 30/24/4
f 29/1/4 26/23/6 30/24/4
f 33/7/1 32/9/2 31/25/2
f 33/7/1 31/25/2 34/26/7
f 35/27/3 33/7/1 34/26/7
f 33/7/1 35/27/3 36/11/3
f 37/28/8 38/29/9 39/30/9
f 40/31/10 39/30/9 38/29/9
f 37/28/8 39/30/9 41/32/11
f 39/30/9 40/31/10 42/33/10
f 43/34/12 37/28/8 41/32/11
f 44/35/13 42/33/10 40/31/10
f 37/28/8 43/34/12 45/36/12
f 40/31/10 46/37/13 44/35/13
f 43/34/12 47/38/14 45/36/12
f 48/39/15 44/35/13 46/37/13
f 47/38/14 43/34/12 49/40/14
f 44/35/13 48/39/15 50/41/15
f 51/42/16 47/38/14 49/40/14
f 48/39/15 51/42/16 50/41/15
f 47/38/14 51/42/16 52/43/16
f 48/39/15 52/43/16 51/42/16
f 53/28/17 54/29/9 55/30/9
f 56/31/18 55/30/9 54/29/9
f 53/28/17 55/30/9 57/32/19
f 55/30/9 56/31/18 58/33/10
f 59/34/12 53/28/17 57/32/19
f 60/35/13 58/33/10 56/31/18
f 53/28/17 59/34/12 61/36/12
f 56/31/18 62/37/13 60/35/13
f 59/34/12 63/38/20 61/36/12
f 64/39/21 60/35/13 62/37/13
f 63/38/20 59/34/12 65/40/22
f 60/35/13 64/39/21 66/41/15
f 67/42/16 63/38/20 65/40/22
f 64/39/21 67/42/16 66/41/15
f 63/38/20 67/42/16 68/43/16
f 64/39/21 68/43/16 67/42/16
f 69/28/17 70/29/9 71/30/9
f 72/31/10 71/30/9 70/29/9
f 69/28/17 71/30/9 73/32/23
f 71/30/9 72/31/10 74/33/10
f 75/34/12 69/28/17 73/32/23
f 76/35/13 74/33/10 72/31/10
f 69/28/17 75/34/12 77/36/12
f 72/31/10 78/37/13 76/35/13
f 75/34/12 79/38/14 77/36/12
f 80/39/15 76/35/13 78/37/13
f 79/38/14 75/34/12 81/40/24
f 76/35/13 80/39/15 82/41/25
f 83/42/16 79/38/14 81/40/24
f 80/39/15 83/42/16 82/41/25
f 79/38/14 83/42/16 84/43/16
f 80/39/15 84/43/16 83/42/16
f 85/3/26 87/1/27 86/2/26
f 85/3/26 88/4/27 87/1/27
f 89/5/28 87/1/27 88/4/27
f 87/1/27 89/5/28 90/6/29
f 93/7/30 91/8/31 92/9/32
f 91/8/31 93/7/30 94/12/30
f 93/7/30 95/10/33 94/12/30
f 93/7/30 96/11/33 95/10/33
f 99/13/30 97/14/31 98/15/32
f 97/14/31 99/13/30 100/18/34
f 99/13/30 101/16/33 100/18/34
f 101/16/33 99/13/30 102/17/33
f 103/19/26 105/13/27 104/15/26
f 103/19/26 106/20/27 105/13/27
f 107/21/35 105/13/27 106/20/27
f 105/13/27 107/21/35 108/17/36
f 111/1/30 109/22/31 110/2/32
f 109/22/31 111/1/30 112/24/30
f 111/1/30 113/23/33 112/24/30
f 113/23/33 111/1/30 114/6/33
f 115/25/26 117/7/27 116/9/26
f 115/25/26 118/26/27 117/7/27
f 119/27/28 117/7/27 118/26/27
f 117/7/27 119/27/28 120/11/29
f 121/1/37 122/5/38 123/6/38
f 122/5/38 121/1/37 124/4/37
f 125/3/39 124/4/37 121/1/37
f 121/1/37 126/2/39 125/3/39
f 127/10/40 128/12/41 129/7/41
f 130/8/42 129/7/41 128/12/41
f 129/7/41 131/11/40 127/10/40
f 129/7/41 130/8/42 132/9/42
f 133/16/40 134/18/41 135/13/41
f 136/14/43 135/13/41 134/18/41
f 135/13/41 137/17/40 133/16/40
f 135/13/41 136/14/43 138/15/44
f 139/13/37 140/21/38 141/17/38
f 140/21/38 139/13/37 142/20/37
f 143/19/39 142/20/37 139/13/37
f 139/13/37 144/15/39 143/19/39
f 145/23/40 146/24/41 147/1/41
f 148/22/42 147/1/41 146/24/41
f 147/1/41 149/6/40 145/23/40
f 147/1/41 148/22/42 150/2/42
f 151/7/37 152/27/38 153/11/38
f 152/27/38 151/7/37 154/26/37
f 155/25/39 154/26/37 151/7/37
f 151/7/37 156/9/39 155/25/39
f 157/39/45 158/35/46 159/37/46
f 158/35/46 160/31/47 159/37/46
f 158/35/46 157/39/45 161/41/48
f 160/31/47 158/35/46 162/33/49
f 163/42/50 161/41/48 157/39/45
f 164/30/51 160/31/47 162/33/49
f 163/42/50 157/39/45 165/43/52
f 160/31/47 164/30/51 166/29/53
f 167/38/54 163/42/50 165/43/52
f 168/28/55 166/29/53 164/30/51
f 163/42/50 167/38/54 169/40/54
f 168/28/55 164/30/51 170/32/56
f 167/38/54 171/34/57 169/40/54
f 171/34/57 168/28/55 170/32/56
f 167/38/54 172/36/57 171/34/57
f 168/28/55 171/34/57 172/36/57
f 173/39/58 174/35/46 175/37/46
f 174/35/46 176/31/49 175/37/46
f 174/35/46 173/39/58 177/41/58
f 176/31/49 174/35/46 178/33/47
f 179/42/50 177/41/58 173/39/58
f 180/30/51 176/31/49 178/33/47
f 179/42/50 173/39/58 181/43/50
f 176/31/49 180/30/51 182/29/53
f 183/38/59 179/42/50 181/43/50
f 184/28/60 182/29/53 180/30/51
f 179/42/50 183/38/59 185/40/54
f 184/28/60 180/30/51 186/32/60
f 183/38/59 187/34/57 185/40/54
f 187/34/57 184/28/60 186/32/60
f 183/38/59 188/36/57 187/34/57
f 184/28/60 187/34/57 188/36/57
f 189/39/45 190/35/46 191/37/46
f 190/35/46 192/31/47 191/37/46
f 190/35/46 189/39/45 193/41/61
f 192/31/47 190/35/46 194/33/47
f 195/42/50 193/41/61 189/39/45
f 196/30/51 192/31/47 194/33/47
f 195/42/50 189/39/45 197/43/52
f 192/31/47 196/30/51 198/29/51
f 199/38/59 195/42/50 197/43/52
f 200/28/55 198/29/51 196/30/51
f 195/42/50 199/38/59 201/40/59
f 200/28/55 196/30/51 202/32/60
f 199/38/59 203/34/57 201/40/59
f 203/34/57 200/28/55 202/32/60
f 199/38/59 204/36/57 203/34/57
f 200/28/55 203/34/57 204/36/57
f 207/1/62 205/5/63 206/6/63
f 205/5/63 207/1/62 208/4/64
f 207/1/62 209/3/65 208/4/64
f 207/1/62 210/2/65 209/3/65
f 213/7/66 212/11/67 211/10/67
f 211/10/67 214/12/66 213/7/66
f 215/8/68 213/7/66 214/12/66
f 213/7/66 215/8/68 216/9/69
f 219/13/66 218/17/67 217/16/67
f 217/16/67 220/18/70 219/13/66
f 221/14/69 219/13/66 220/18/70
f 219/13/66 221/14/69 222/15/69
f 225/13/62 223/21/63 224/17/63
f 223/21/63 225/13/62 226/20/62
f 225/13/62 227/19/65 226/20/62
f 225/13/62 228/15/65 227/19/65
f 231/1/66 230/6/67 229/23/67
f 229/23/67 232/24/70 231/1/66
f 233/22/68 231/1/66 232/24/70
f 231/1/66 233/22/68 234/2/69
f 237/7/62 235/27/63 236/11/63
f 235/27/63 237/7/62 238/26/62
f 237/7/62 239/25/65 238/26/62
f 237/7/62 240/9/65 239/25/65
usemtl Meshpart2Mtl
f 241/44/71 242/45/71 243/46/71
f 242/45/71 241/44/71 244/47/71
f 245/48/72 246/49/72 247/50/72
f 246/49/72 245/48/72 248/51/72
f 249/52/72 250/53/72 251/54/72
f 250/53/72 252/55/72 251/54/72
f 253/56/73 254/57/73 255/58/73
f 254/57/73 253/56/73 256/59/73
f 257/60/73 258/61/73 259/62/73
f 258/61/73 260/63/73 259/62/73
f 261/64/72 262/65/72 263/66/72
f 262/65/72 261/64/72 264/67/74
f 265/68/72 266/69/72 267/70/72
f 266/69/72 268/71/72 267/70/72
f 269/66/73 270/72/73 271/73/73
f 270/72/73 269/66/73 272/65/73
f 273/74/73 274/68/73 275/75/73
f 274/68/73 276/70/73 275/75/73
f 277/76/72 278/59/72 279/56/72
f 278/59/72 277/76/72 280/77/72
f 281/61/72 282/78/72 283/63/72
f 282/78/72 284/79/72 283/63/72
f 285/50/73 286/80/73 287/81/73
f 286/80/73 285/50/73 288/49/73
f 289/82/73 290/52/73 291/83/73
f 290/52/73 292/54/73 291/83/73
f 293/84/75 294/85/75 295/86/75
f 294/85/75 293/84/75 296/87/75
f 297/88/75 294/85/75 296/87/75
f 298/89/75 294/85/75 297/88/75
f 294/85/75 298/89/75 299/90/75
f 299/90/75 298/89/75 300/91/75
f 300/91/75 301/92/75 299/90/75
f 301/92/75 300/91/75 302/93/75
f 303/94/76 304/95/76 305/96/76
f 304/95/76 306/97/76 305/96/76
f 307/98/76 308/99/76 309/100/76
f 308/99/76 310/101/76 309/100/76
f 311/102/77 312/94/77 313/103/77
f 312/94/77 314/96/77 313/103/77
f 315/104/77 316/98/77 317/105/77
f 316/98/77 318/100/77 317/105/77
f 319/94/76 320/95/76 321/96/76
f 320/95/76 322/97/76 321/96/76
f 323/98/76 324/99/76 325/100/76
f 324/99/76 326/101/76 325/100/76
f 327/102/77 328/94/77 329/103/77
f 328/94/77 330/96/77 329/103/77
f 331/104/77 332/98/77 333/105/77
f 332/98/77 334/100/77 333/105/77
f 335/94/76 336/95/76 337/96/78
f 336/95/76 338/97/76 337/96/78
f 339/98/78 340/99/76 341/100/76
f 340/99/76 342/101/78 341/100/76
f 343/102/77 344/94/77 345/103/77
f 344/94/77 346/96/77 345/103/77
f 347/104/77 348/98/77 349/105/77
f 348/98/77 350/100/77 349/105/77
f 351/106/79 352/107/79 353/108/79
f 352/107/79 351/106/79 354/109/79
f 354/109/79 351/106/79 355/110/79
f 356/111/79 354/109/79 355/110/79
f 357/112/79 354/109/79 356/111/79
f 357/112/79 358/113/79 354/109/79
f 358/113/79 357/112/79 359/114/79
f 352/107/79 360/115/79 353/108/79
f 361/116/79 360/115/79 352/107/79
f 362/117/79 353/108/79 360/115/79
f 353/108/79 362/117/79 363/118/79
f 363/118/79 362/117/79 364/119/79
f 363/118/79 364/119/79 365/120/79
f 366/121/79 365/120/79 364/119/79
f 365/120/79 366/121/79 367/122/79
f 367/122/79 366/121/79 368/123/79
f 368/123/79 366/121/79 369/124/79
f 369/124/79 359/114/79 368/123/79
f 370/125/79 359/114/79 369/124/79
f 370/125/79 358/113/79 359/114/79
f 370/125/79 371/126/79 358/113/79
f 371/126/79 370/125/79 372/127/79
f 373/128/79 372/127/79 370/125/79
f 374/129/79 371/126/79 372/127/79
f 372/127/79 373/128/79 375/130/79
f 373/128/79 376/131/79 375/130/79
f 376/131/79 373/128/79 377/132/79
f 378/133/79 376/131/79 377/132/79
f 376/131/79 378/133/79 379/134/79
f 379/134/79 378/133/79 380/135/79
f 380/135/79 378/133/79 381/136/79
f 381/136/79 382/137/79 380/135/79
f 382/137/79 381/136/79 360/115/79
f 382/137/79 360/115/79 361/116/79
f 361/116/79 383/138/79 382/137/79
f 384/139/79 383/138/79 361/116/79
f 371/126/79 374/129/79 384/139/79
f 383/138/79 384/139/79 385/140/79
f 384/139/79 374/129/79 386/141/79
f 384/139/79 386/141/79 385/140/79
f 387/134/79 388/133/79 389/135/79
f 390/131/79 388/133/79 387/134/79
f 391/136/79 389/135/79 388/133/79
f 388/133/79 390/131/79 392/132/79
f 390/131/79 393/128/79 392/132/79
f 393/128/79 390/131/79 394/130/79
f 391/136/79 395/137/79 389/135/79
f 396/115/79 395/137/79 391/136/79
f 395/137/79 396/115/79 397/116/79
f 397/116/79 398/138/79 395/137/79
f 399/139/79 398/138/79 397/116/79
f 398/138/79 399/139/79 400/140/79
f 399/139/79 401/141/79 400/140/79
f 399/139/79 402/129/79 401/141/79
f 397/116/79 396/115/79 403/107/79
f 404/108/79 403/107/79 396/115/79
f 405/117/79 404/108/79 396/115/79
f 406/106/79 403/107/79 404/108/79
f 404/108/79 405/117/79 407/118/79
f 403/107/79 406/106/79 408/109/79
f 409/119/79 407/118/79 405/117/79
f 408/109/79 406/106/79 410/110/79
f 411/111/79 408/109/79 410/110/79
f 412/112/79 408/109/79 411/111/79
f 407/118/79 409/119/79 413/120/79
f 409/119/79 414/122/79 413/120/79
f 414/122/79 409/119/79 415/121/79
f 415/121/79 416/123/79 414/122/79
f 415/121/79 417/124/79 416/123/79
f 418/47/80 419/45/80 420/142/80
f 418/47/80 420/142/80 421/143/80
f 422/144/80 423/145/80 424/46/80
f 422/144/80 424/46/80 425/44/80
f 426/55/81 427/146/81 428/53/81
f 429/147/81 427/146/81 426/55/81
f 427/146/81 429/147/81 430/52/81
f 431/148/81 430/52/81 429/147/81
f 430/52/81 431/148/81 432/49/81
f 433/149/81 432/49/81 431/148/81
f 431/148/81 434/51/81 433/149/81
f 434/51/81 431/148/81 435/48/81
f 436/150/82 437/151/82 438/58/82
f 438/58/82 437/151/82 439/57/82
f 437/151/82 436/150/82 440/59/82
f 436/150/82 441/61/82 440/59/82
f 441/61/82 436/150/82 442/152/82
f 442/152/82 443/153/82 441/61/82
f 442/152/82 444/60/82 443/153/82
f 445/62/82 444/60/82 442/152/82
f 446/154/80 447/142/80 448/155/80
f 447/142/80 449/145/80 448/155/80
f 450/150/80 451/156/80 452/152/80
f 451/156/80 453/157/80 452/152/80
f 454/158/80 455/148/80 456/147/80
f 454/158/80 456/147/80 457/159/80
f 458/143/80 459/160/80 460/161/80
f 458/143/80 460/161/80 461/144/80
f 462/71/81 463/162/81 464/69/81
f 465/157/81 463/162/81 462/71/81
f 463/162/81 465/157/81 466/68/81
f 467/156/81 466/68/81 465/157/81
f 466/68/81 467/156/81 468/65/81
f 469/163/81 468/65/81 467/156/81
f 467/156/81 470/67/81 469/163/81
f 470/67/81 467/156/81 471/64/81
f 472/158/82 473/164/82 474/73/82
f 474/73/82 473/164/82 475/72/82
f 473/164/82 472/158/82 476/65/82
f 472/158/82 477/68/82 476/65/82
f 477/68/82 472/158/82 478/159/82
f 478/159/82 479/165/82 477/68/82
f 478/159/82 480/74/82 479/165/82
f 481/75/82 480/74/82 478/159/82
f 482/79/81 483/166/81 484/78/81
f 485/161/81 483/166/81 482/79/81
f 483/166/81 485/161/81 486/61/81
f 487/160/81 486/61/81 485/161/81
f 486/61/81 487/160/81 488/59/81
f 489/167/81 488/59/81 487/160/81
f 487/160/81 490/77/81 489/167/81
f 490/77/81 487/160/81 491/76/81
f 492/83/82 493/82/82 494/155/82
f 494/155/82 493/82/82 495/168/82
f 495/168/82 496/52/82 494/155/82
f 497/49/82 494/155/82 496/52/82
f 494/155/82 497/49/82 498/154/82
f 499/169/82 498/154/82 497/49/82
f 498/154/82 499/169/82 500/81/82
f 500/81/82 499/169/82 501/80/82
f 502/89/83 503/170/83 504/171/83
f 502/89/83 504/171/83 505/172/83
f 506/93/83 504/171/83 503/170/83
f 506/93/83 507/173/83 504/171/83
f 507/173/83 506/93/83 508/84/83
f 507/173/83 508/84/83 509/174/83
f 509/174/83 510/175/83 507/173/83
f 510/175/83 509/174/83 511/88/83
f 512/176/84 513/177/84 514/178/85
f 512/176/84 514/178/85 515/136/84
f 516/179/84 517/180/85 518/181/84
f 516/179/84 518/181/84 519/182/85
f 520/177/86 521/183/86 522/132/86
f 520/177/86 522/132/86 523/178/86
f 524/180/86 525/184/86 526/185/86
f 524/180/86 526/185/86 527/181/86
f 528/176/84 529/177/84 530/178/85
f 528/176/84 530/178/85 531/136/84
f 532/179/84 533/180/85 534/181/84
f 532/179/84 534/181/84 535/182/85
f 536/177/86 537/183/86 538/132/86
f 536/177/86 538/132/86 539/178/86
f 540/180/86 541/184/86 542/185/86
f 540/180/86 542/185/86 543/181/86
f 544/176/84 545/177/84 546/178/85
f 544/176/84 546/178/85 547/136/84
f 548/179/84 549/180/85 550/181/84
f 548/179/84 550/181/84 551/182/85
f 552/177/86 553/183/86 554/132/86
f 552/177/86 554/132/86 555/178/86
f 556/180/86 557/184/86 558/185/86
f 556/180/86 558/185/86 559/181/86
f 560/107/87 561/186/87 562/187/87
f 562/187/87 561/186/87 563/188/87
f 562/187/87 563/188/87 564/189/87
f 565/190/87 561/186/87 560/107/87
f 566/191/87 562/187/87 564/189/87
f 562/187/87 566/191/87 567/113/87
f 567/113/87 566/191/87 568/192/87
f 560/107/87 569/193/87 565/190/87
f 569/193/87 560/107/87 570/116/87
f 571/194/87 565/190/87 569/193/87
f 565/190/87 571/194/87 572/195/87
f 572/195/87 571/194/87 573/196/87
f 572/195/87 573/196/87 574/197/87
f 575/198/87 574/197/87 573/196/87
f 574/197/87 575/198/87 576/199/87
f 576/199/87 575/198/87 577/200/87
f 578/201/87 577/200/87 575/198/87
f 577/200/87 578/201/87 568/192/87
f 579/202/87 568/192/87 578/201/87
f 568/192/87 579/202/87 567/113/87
f 567/113/87 579/202/87 580/126/87
f 579/202/87 581/203/87 580/126/87
f 582/97/87 581/203/87 579/202/87
f 580/126/87 581/203/87 583/204/87
f 581/203/87 582/97/87 584/205/87
f 585/206/87 584/205/87 582/97/87
f 584/205/87 585/206/87 586/207/87
f 585/206/87 587/208/87 586/207/87
f 587/208/87 585/206/87 588/103/87
f 589/209/87 587/208/87 588/103/87
f 587/208/87 589/209/87 590/210/87
f 589/209/87 591/211/87 590/210/87
f 569/193/87 591/211/87 589/209/87
f 569/193/87 570/116/87 591/211/87
f 570/116/87 592/212/87 591/211/87
f 592/212/87 570/116/87 593/213/87
f 593/213/87 580/126/87 583/204/87
f 592/212/87 593/213/87 594/214/87
f 593/213/87 583/204/87 595/215/87
f 594/214/87 593/213/87 595/215/87
f 596/191/87 597/187/87 598/189/87
f 597/187/87 599/188/87 598/189/87
f 597/187/87 600/186/87 599/188/87
f 597/187/87 596/191/87 601/113/87
f 601/113/87 596/191/87 602/192/87
f 602/192/87 603/202/87 601/113/87
f 601/113/87 603/202/87 604/126/87
f 603/202/87 602/192/87 605/201/87
f 606/200/87 605/201/87 602/192/87
f 605/201/87 606/200/87 607/198/87
f 608/199/87 607/198/87 606/200/87
f 609/197/87 607/198/87 608/199/87
f 607/198/87 609/197/87 610/196/87
f 611/195/87 610/196/87 609/197/87
f 611/195/87 612/194/87 610/196/87
f 603/202/87 613/203/87 604/126/87
f 614/97/87 613/203/87 603/202/87
f 604/126/87 613/203/87 615/204/87
f 613/203/87 614/97/87 616/205/87
f 617/213/87 604/126/87 615/204/87
f 618/206/87 616/205/87 614/97/87
f 617/213/87 615/204/87 619/215/87
f 620/214/87 617/213/87 619/215/87
f 621/212/87 617/213/87 620/214/87
f 616/205/87 618/206/87 622/207/87
f 618/206/87 623/208/87 622/207/87
f 623/208/87 618/206/87 624/103/87
f 625/209/87 623/208/87 624/103/87
f 623/208/87 625/209/87 626/210/87
usemtl Meshpart3Mtl
f 627/216/88 628/217/89 629/218/90
f 628/217/89 630/219/91 629/218/90
f 630/219/91 628/217/89 631/220/92
f 632/221/93 630/219/91 631/220/92
f 633/222/94 632/221/93 631/220/92
f 634/223/94 633/222/94 635/224/94
f 636/225/95 637/226/95 638/227/95
f 639/228/95 638/227/95 637/226/95
f 639/228/95 641/229/95 638/227/95
f 641/229/95 639/228/95 642/230/95
f 639/228/95 643/231/95 642/230/95
f 636/225/96 640/232/96 644/233/96
f 645/234/97 646/235/97 644/233/97
f 651/236/98 649/237/99 650/238/100
f 650/238/100 652/239/101 651/236/98
f 653/240/98 654/241/99 655/242/100
f 655/242/100 656/243/101 653/240/98
f 656/243/101 655/242/100 647/244/102
f 647/244/102 648/245/103 656/243/101
f 652/239/101 650/238/100 658/246/102
f 658/246/102 660/247/103 652/239/101
f 662/248/102 659/249/101 657/250/100
f 659/249/101 662/248/102 663/251/103
f 657/250/100 659/249/101 664/252/98
f 664/252/98 661/253/99 657/250/100
f 665/254/104 666/255/104 667/256/104
f 669/257/104 670/258/104 665/254/104
f 666/255/104 671/259/104 668/260/104
f 671/259/104 672/224/104 668/260/104
f 672/224/104 671/259/104 673/223/104
f 674/261/105 675/262/105 676/263/105
f 675/262/105 674/261/105 677/264/105
f 677/264/105 674/261/105 679/265/105
f 679/265/105 680/230/105 677/264/105
f 681/231/105 677/264/105 680/230/105
f 682/266/106 678/267/106 676/263/106
f 684/268/105 683/269/105 682/266/105
f 685/270/107 686/271/108 687/272/108
f 686/271/108 685/270/107 688/273/107
f 689/274/109 690/275/109 691/276/109
f 689/274/109 691/276/109 692/277/109
f 693/278/110 694/274/111 695/279/111
f 694/274/111 693/278/110 696/275/112
f 697/280/94 698/281/94 699/282/94
f 700/276/113 701/283/114 702/277/114
f 701/283/114 700/276/113 703/284/115
f 704/271/116 705/273/117 706/278/117
f 704/271/116 706/278/117 707/279/116
f 708/285/118 709/286/119 710/270/118
f 708/285/118 710/270/118 711/272/119
f 712/287/120 713/288/120 714/289/120
f 715/290/120 713/288/120 712/287/120
f 713/288/120 715/290/120 717/291/120
f 718/292/120 717/291/120 715/290/120
f 717/291/120 718/292/120 719/293/120
f 714/289/120 720/294/120 716/295/120
f 722/296/120 721/297/120 720/294/120
f 725/298/103 723/299/102 724/300/121
f 724/300/121 727/301/122 725/298/103
f 727/301/122 724/300/121 726/302/123
f 726/302/123 728/303/124 727/301/122
f 730/298/103 729/299/102 733/300/121
f 733/300/121 734/301/122 730/298/103
f 734/301/122 733/300/121 735/302/123
f 735/302/123 736/303/124 734/301/122
f 738/302/125 737/303/126 739/301/127
f 739/301/127 740/300/128 738/302/125
f 740/300/128 739/301/127 732/298/103
f 732/298/103 731/299/129 740/300/128
f 741/304/130 742/305/130 743/306/130
f 744/307/131 745/308/131 743/306/131
f 745/308/131 746/309/131 747/296/131
f 748/310/88 749/311/132 750/312/88
f 751/313/133 752/310/134 753/312/134
f 754/314/135 755/315/136 756/316/137
f 756/316/137 757/317/135 754/314/135
f 758/318/138 754/314/135 757/317/135
f 757/317/135 756/316/137 759/319/139
f 754/314/135 758/318/138 760/320/140
f 760/320/140 761/321/141 754/314/135
f 755/315/136 754/314/135 761/321/141
f 761/321/141 760/320/140 762/322/142
f 763/323/143 759/319/139 756/316/137
f 759/319/139 763/323/143 764/324/144
f 765/325/145 756/316/137 755/315/136
f 756/316/137 765/325/145 763/323/143
f 762/322/142 766/326/146 761/321/141
f 766/326/146 762/322/142 767/327/147
f 761/321/141 768/328/148 755/315/136
f 768/328/148 761/321/141 766/326/146
f 755/315/136 769/329/149 765/325/145
f 769/329/149 755/315/136 768/328/148
f 767/327/147 770/330/150 766/326/146
f 770/330/150 767/327/147 771/331/151
f 772/332/152 770/330/150 771/331/151
f 770/330/150 772/332/152 773/333/153
f 774/334/154 770/330/150 773/333/153
f 775/335/155 766/326/146 770/330/150
f 770/330/150 774/334/154 775/335/155
f 766/326/146 775/335/155 768/328/148
f 776/336/156 775/335/155 774/334/154
f 777/337/157 768/328/148 775/335/155
f 775/335/155 776/336/156 777/337/157
f 768/328/148 777/337/157 769/329/149
f 778/338/158 777/337/157 776/336/156
f 777/337/157 778/338/158 779/339/159
f 779/339/159 769/329/149 777/337/157
f 780/340/160 779/339/159 778/338/158
f 779/339/159 780/340/160 781/341/159
f 769/329/149 779/339/159 782/342/161
f 781/341/159 782/342/161 779/339/159
f 782/342/161 765/325/145 769/329/149
f 782/342/161 781/341/159 783/343/162
f 765/325/145 782/342/161 784/344/163
f 783/343/162 784/344/163 782/342/161
f 784/344/163 763/323/143 765/325/145
f 784/344/163 783/343/162 785/345/164
f 763/323/143 784/344/163 786/346/165
f 785/345/164 786/346/165 784/344/163
f 786/346/165 764/324/144 763/323/143
f 786/346/165 785/345/164 787/347/166
f 764/324/144 786/346/165 788/348/166
f 789/349/79 786/346/165 787/347/166
f 786/346/165 789/349/79 788/348/166
f 790/350/167 791/351/168 792/352/169
f 791/351/168 790/350/167 793/353/170
f 794/354/171 792/352/169 791/351/168
f 792/352/169 794/354/171 795/355/172
f 794/354/171 796/356/173 795/355/172
f 793/353/170 797/357/174 791/351/168
f 797/357/174 793/353/170 798/358/175
f 791/351/168 799/359/176 794/354/171
f 799/359/176 791/351/168 797/357/174
f 796/356/173 794/354/171 800/360/177
f 800/360/177 801/310/178 796/356/173
f 801/310/178 800/360/177 802/361/179
f 794/354/171 803/362/180 800/360/177
f 803/362/180 802/361/179 800/360/177
f 803/362/180 794/354/171 799/359/176
f 802/361/179 803/362/180 804/363/181
f 803/362/180 805/364/182 804/363/181
f 805/364/182 803/362/180 806/365/183
f 799/359/176 806/365/183 803/362/180
f 806/365/183 807/366/184 805/364/182
f 807/366/184 806/365/183 808/367/185
f 809/368/186 806/365/183 799/359/176
f 806/365/183 809/368/186 808/367/185
f 797/357/174 809/368/186 799/359/176
f 808/367/185 809/368/186 810/369/187
f 809/368/186 797/357/174 811/370/188
f 811/370/188 810/369/187 809/368/186
f 798/358/175 811/370/188 797/357/174
f 810/369/187 811/370/188 812/371/189
f 811/370/188 798/358/175 813/372/190
f 813/372/190 812/371/189 811/370/188
f 812/371/189 813/372/190 814/373/191
f 815/374/192 816/375/193 817/376/194
f 816/375/193 815/374/192 818/377/195
f 818/377/195 815/374/192 819/378/196
f 816/375/193 820/379/197 817/376/194
f 820/379/197 816/375/193 821/380/198
f 822/381/199 820/379/197 821/380/198
f 822/381/199 823/382/199 820/379/197
f 823/382/199 825/383/79 824/384/200
f 822/381/199 825/383/79 823/382/199
f 825/383/79 826/385/193 824/384/200
f 825/383/79 827/386/195 826/385/193
f 825/383/79 828/387/79 827/386/195
f 822/381/199 829/388/79 825/383/79
f 827/386/195 828/387/79 830/389/196
f 830/389/196 828/387/79 819/378/196
f 831/390/79 819/378/196 828/387/79
f 819/378/196 815/374/192 830/389/196
f 832/391/196 819/378/196 831/390/79
f 819/378/196 832/391/196 833/392/192
f 833/392/192 832/391/196 834/393/195
f 831/390/79 835/394/192 832/391/196
f 829/388/79 835/394/192 831/390/79
f 836/395/193 833/392/192 834/393/195
f 833/392/192 836/395/193 837/396/194
f 836/395/193 838/397/197 837/396/194
f 838/397/197 836/395/193 839/398/200
f 840/399/199 838/397/197 839/398/200
f 840/399/199 822/381/199 838/397/197
f 829/388/79 822/381/199 840/399/199
f 841/400/201 829/388/79 840/399/199
f 842/401/202 829/388/79 841/400/201
f 835/394/192 829/388/79 842/401/202
f 845/402/203 844/403/203 843/404/203
f 846/405/204 845/402/203 847/406/204
f 848/407/203 847/406/203 849/408/203
f 850/409/205 851/410/205 852/411/205
f 851/410/205 850/409/205 853/412/206
f 854/413/207 852/411/205 851/410/205
f 852/411/205 854/413/207 855/414/208
f 856/415/209 855/414/208 854/413/207
f 855/414/208 856/415/209 857/416/133
f 858/417/210 857/416/133 856/415/209
f 859/418/211 860/419/211 861/420/211
f 859/418/211 861/420/211 862/421/211
f 863/422/212 864/423/212 865/424/212
f 864/423/212 863/422/212 866/425/212
f 867/422/213 868/424/213 869/426/213
f 867/422/213 869/426/213 870/427/213
f 871/418/214 872/426/214 873/419/214
f 872/426/214 871/418/214 874/427/215
f 875/428/216 876/429/216 877/423/216
f 875/428/216 877/423/216 878/425/216
f 879/430/217 880/420/217 881/431/217
f 880/420/217 879/430/217 882/421/217
f 883/432/120 884/433/120 885/434/120
f 885/434/218 886/435/120 887/436/120
f 887/436/120 888/437/120 889/438/120
f 893/237/219 894/239/220 891/236/221
f 895/238/222 894/239/220 893/237/219
f 892/244/124 890/245/223 896/242/222
f 896/242/222 890/245/223 897/243/220
f 896/242/222 897/243/220 898/241/224
f 898/241/224 897/243/220 899/240/221
f 903/253/219 904/249/220 901/252/221
f 905/250/222 904/249/220 903/253/219
f 902/246/124 900/247/223 895/238/222
f 895/238/222 900/247/223 894/239/220
f 905/250/222 907/251/225 904/249/220
f 906/248/226 907/251/225 905/250/222
f 911/439/227 910/440/227 909/441/227
f 909/441/227 908/442/227 912/443/227
f 912/443/228 913/444/228 914/445/228
f 916/409/228 914/445/228 915/412/228
f 917/446/203 918/447/203 919/448/203
f 918/447/203 917/446/203 921/449/203
f 919/448/203 920/450/204 922/451/203
f 923/452/203 921/449/203 917/446/203
f 921/449/203 923/452/203 924/453/203
f 924/453/203 923/452/203 925/454/203
f 926/455/203 927/456/203 922/451/203
f 928/457/229 929/458/229 930/459/230
f 930/459/230 931/460/230 928/457/229
f 932/461/231 933/462/232 934/463/231
f 933/462/232 932/461/231 935/464/231
f 936/465/233 937/466/233 938/461/233
f 938/461/233 939/463/234 936/465/233
f 940/462/235 941/464/235 942/467/235
f 942/467/235 943/468/235 940/462/235
f 944/459/236 945/465/237 946/460/237
f 945/465/237 944/459/236 947/466/236
f 948/469/238 949/457/238 950/470/238
f 949/457/238 948/469/238 951/458/238
f 954/471/239 952/472/239 953/473/239
f 955/474/95 954/471/95 956/475/95
f 957/476/95 956/475/95 958/456/95
f 961/477/98 959/478/240 960/479/99
f 962/480/241 959/478/240 961/477/98
f 962/480/241 963/481/221 959/478/240
f 964/482/242 963/481/221 962/480/241
f 965/482/242 966/481/221 967/480/241
f 967/480/241 966/481/221 968/478/240
f 967/480/241 968/478/240 969/477/243
f 969/477/243 968/478/240 970/479/99
f 972/477/98 973/478/240 971/479/99
f 974/480/241 973/478/240 972/477/98
f 974/480/241 975/481/221 973/478/240
f 976/482/242 975/481/221 974/480/241
f 980/483/244 979/484/244 978/485/244
f 977/486/104 979/484/104 981/487/104
f 982/488/104 981/487/104 983/489/104
f 984/490/227 985/491/227 986/492/227
f 986/492/227 987/488/227 988/489/227
f 990/493/227 989/494/227 984/490/227
f 990/493/228 992/495/228 991/496/228
f 993/497/245 994/498/246 995/499/247
f 993/497/245 995/499/247 996/500/248
f 993/497/245 997/501/249 994/498/246
f 998/502/250 993/497/245 996/500/248
f 997/501/249 993/497/245 999/503/251
f 993/497/245 998/502/250 1000/504/252
f 1000/504/252 999/503/251 993/497/245
f 999/503/251 1001/505/253 997/501/249
f 1002/506/254 1000/504/252 998/502/250
f 1001/505/253 999/503/251 1003/507/255
f 1003/507/255 1004/508/256 1001/505/253
f 1004/508/256 1003/507/255 1005/509/257
f 1006/510/258 1003/507/255 999/503/251
f 999/503/251 1000/504/252 1006/510/258
f 1007/511/259 1005/509/257 1003/507/255
f 1003/507/255 1006/510/258 1007/511/259
f 1005/509/257 1007/511/259 1008/512/260
f 1000/504/252 1002/506/254 1009/513/261
f 1009/513/261 1006/510/258 1000/504/252
f 1010/514/262 1009/513/261 1002/506/254
f 1009/513/261 1010/514/262 1011/515/263
f 1006/510/258 1009/513/261 1012/516/264
f 1011/515/263 1012/516/264 1009/513/261
f 1012/516/264 1007/511/259 1006/510/258
f 1012/516/264 1011/515/263 1013/517/265
f 1014/518/266 1008/512/260 1007/511/259
f 1007/511/259 1012/516/264 1014/518/266
f 1013/517/265 1014/518/266 1012/516/264
f 1008/512/260 1014/518/266 1015/519/267
f 1014/518/266 1013/517/265 1016/520/268
f 1016/520/268 1015/519/267 1014/518/266
f 1015/519/267 1016/520/268 1017/521/269
f 1018/522/270 1019/523/271 1020/524/272
f 1019/523/271 1018/522/270 1021/525/273
f 1020/524/272 1022/526/274 1018/522/270
f 1020/524/272 1019/523/271 1023/527/275
f 1022/526/274 1020/524/272 1024/528/276
f 1024/528/276 1025/529/277 1022/526/274
f 1026/530/278 1020/524/272 1023/527/275
f 1027/531/279 1026/530/278 1023/527/275
f 1020/524/272 1028/532/280 1024/528/276
f 1028/532/280 1020/524/272 1026/530/278
f 1026/530/278 1027/531/279 1029/533/281
f 1029/533/281 1028/532/280 1026/530/278
f 1030/534/282 1029/533/281 1027/531/279
f 1025/529/277 1024/528/276 1031/535/283
f 1031/535/283 1032/536/284 1025/529/277
f 1033/537/285 1024/528/276 1028/532/280
f 1031/535/283 1024/528/276 1033/537/285
f 1032/536/284 1031/535/283 1034/538/286
f 1033/537/285 1034/538/286 1031/535/283
f 1034/538/286 1035/539/287 1032/536/284
f 1035/539/287 1034/538/286 1036/540/288
f 1037/541/289 1036/540/288 1034/538/286
f 1034/538/286 1033/537/285 1037/541/289
f 1036/540/288 1037/541/289 1038/542/290
f 1039/543/291 1038/542/290 1037/541/289
f 1039/543/291 1037/541/289 1033/537/285
f 1038/542/290 1039/543/291 1040/544/292
f 1039/543/291 1033/537/285 1041/545/293
f 1033/537/285 1028/532/280 1041/545/293
f 1042/546/294 1040/544/292 1039/543/291
f 1042/546/294 1039/543/291 1041/545/293
f 1040/544/292 1042/546/294 1043/547/295
f 1044/548/296 1043/547/295 1042/546/294
f 1043/547/295 1044/548/296 1045/549/297
f 1042/546/294 1046/550/298 1044/548/296
f 1046/550/298 1042/546/294 1047/551/299
f 1047/551/299 1042/546/294 1041/545/293
f 1047/551/299 1048/552/300 1046/550/298
f 1048/552/300 1047/551/299 1049/553/301
f 1041/545/293 1049/553/301 1047/551/299
f 1049/553/301 1050/554/282 1048/552/300
f 1041/545/293 1028/532/280 1051/555/302
f 1049/553/301 1041/545/293 1051/555/302
f 1028/532/280 1029/533/281 1051/555/302
f 1051/555/302 1052/556/303 1049/553/301
f 1052/556/303 1051/555/302 1029/533/281
f 1050/554/282 1049/553/301 1052/556/303
f 1029/533/281 1030/534/282 1052/556/303
f 1050/554/282 1052/556/303 1030/534/282
f 1050/554/282 1030/534/282 1053/557/87
f 1055/558/304 1054/559/305 1056/560/306
f 1057/561/307 1054/559/305 1055/558/304
f 1056/560/306 1054/559/305 1058/562/308
f 1059/563/309 1056/560/306 1058/562/308
f 1056/560/306 1059/563/309 1060/564/310
f 1060/564/310 1059/563/309 1061/565/311
f 1061/565/311 1059/563/309 1062/566/311
f 1064/567/87 1062/566/311 1063/568/310
f 1064/567/87 1061/565/311 1062/566/311
f 1065/569/306 1064/567/87 1063/568/310
f 1066/570/304 1064/567/87 1065/569/306
f 1064/567/87 1066/570/304 1067/571/87
f 1067/571/87 1066/570/304 1068/572/307
f 1054/559/305 1057/561/307 1068/572/307
f 1068/572/307 1057/561/307 1067/571/87
f 1067/571/87 1057/561/307 1069/573/87
f 1057/561/307 1070/574/307 1069/573/87
f 1071/575/305 1070/574/307 1057/561/307
f 1069/573/87 1070/574/307 1072/576/305
f 1073/577/87 1069/573/87 1072/576/305
f 1070/574/307 1071/575/305 1074/578/304
f 1074/578/304 1071/575/305 1075/579/306
f 1075/579/306 1071/575/305 1076/580/308
f 1077/581/312 1075/579/306 1076/580/308
f 1075/579/306 1077/581/312 1078/582/310
f 1078/582/310 1077/581/312 1079/583/311
f 1061/565/311 1079/583/311 1077/581/312
f 1061/565/311 1073/577/87 1079/583/311
f 1061/565/311 1064/567/87 1073/577/87
f 1079/583/311 1073/577/87 1080/584/226
f 1080/584/226 1073/577/87 1081/585/313
f 1073/577/87 1072/576/305 1081/585/313
