# Blender 5.1.1
# www.blender.org
mtllib notebook satchel detonator.mtl
o notebook_satchel_detonator
v 0.174414 -0.211810 -0.076960
v 0.162882 -0.190067 -0.064690
v 0.159106 -0.169402 -0.106972
v 0.170821 -0.191364 -0.118649
v 0.141076 -0.188441 -0.154364
v 0.129046 -0.166348 -0.143251
v 0.149749 -0.237804 -0.053718
v 0.174414 -0.211810 -0.076960
v 0.138163 -0.216237 -0.041174
v 0.111273 -0.254118 -0.062539
v 0.162882 -0.190067 -0.064690
v 0.099428 -0.232583 -0.050197
v 0.111273 -0.254118 -0.062539
v 0.099428 -0.232583 -0.050197
v 0.069368 -0.229530 -0.086476
v 0.081528 -0.251195 -0.098254
v 0.077935 -0.230748 -0.139943
v 0.065592 -0.208864 -0.128758
v 0.141076 -0.188441 -0.154364
v 0.077935 -0.230748 -0.139943
v 0.129046 -0.166348 -0.143251
v 0.065592 -0.208864 -0.128758
v 0.090311 -0.182694 -0.152274
v 0.102601 -0.204755 -0.163185
v -0.125674 0.316503 0.197947
v -0.153196 0.366794 0.224984
v -0.127028 0.332014 0.167718
v -0.154550 0.382305 0.194755
v -0.149623 0.333291 0.142341
v -0.177145 0.383582 0.169379
v 0.216529 -0.393607 -0.202660
v 0.216345 -0.397534 -0.205718
v 0.216546 -0.399843 -0.201218
v 0.216656 -0.395063 -0.199822
v 0.218777 -0.395184 -0.197439
v 0.219910 -0.400033 -0.197440
v -0.068258 0.338301 0.180642
v -0.092776 0.355487 0.123716
v -0.110237 0.358931 0.132277
v -0.085720 0.341744 0.189202
v 0.225205 -0.390125 -0.210480
v 0.177445 -0.260151 -0.180656
v 0.201925 -0.261535 -0.153163
v 0.230595 -0.390429 -0.204427
v 0.230918 -0.394129 -0.197215
v 0.203391 -0.278339 -0.120414
v 0.203391 -0.278339 -0.120414
v 0.204715 -0.263408 -0.106464
v 0.202117 -0.242732 -0.147569
v 0.201925 -0.261535 -0.153163
v 0.177445 -0.260151 -0.180656
v 0.172013 -0.240484 -0.182392
v 0.038971 0.114744 -0.005712
v -0.092776 0.355487 0.123716
v -0.068258 0.338301 0.180642
v 0.063489 0.097557 0.051214
v 0.002956 0.090873 0.078736
v -0.081155 0.244569 0.161366
v 0.001437 0.108267 0.044836
v -0.082673 0.261963 0.127466
v -0.023902 0.109701 0.016376
v -0.108013 0.263397 0.099006
v -0.088662 0.310238 0.108282
v -0.064144 0.293052 0.165208
v -0.102803 0.260618 0.099392
v -0.078286 0.243431 0.156318
v 0.195841 -0.252155 -0.099671
v 0.204715 -0.263408 -0.106464
v 0.202117 -0.242732 -0.147569
v 0.192590 -0.232114 -0.140260
v 0.163427 -0.229434 -0.174930
v 0.172013 -0.240484 -0.182392
v -0.173875 0.346138 0.242357
v -0.204475 0.332435 0.236696
v -0.227070 0.333713 0.211319
v -0.206247 0.352088 0.231865
v -0.153196 0.366794 0.224984
v -0.228424 0.349223 0.181091
v -0.154550 0.382305 0.194755
v -0.207745 0.369880 0.163719
v -0.177145 0.383582 0.169379
v -0.171621 0.375288 0.223957
v -0.187793 0.386624 0.186411
v -0.172536 0.385761 0.203546
v -0.185585 0.361341 0.235686
v -0.208454 0.377371 0.182590
v -0.221503 0.352951 0.214730
v -0.222418 0.363423 0.194319
v -0.110237 0.358931 0.132277
v -0.144165 0.336198 0.140026
v -0.119647 0.319011 0.196951
v -0.085720 0.341744 0.189202
v -0.173875 0.346138 0.242357
v -0.146354 0.295847 0.215319
v -0.125674 0.316503 0.197947
v -0.204475 0.332435 0.236696
v -0.176953 0.282144 0.209659
v -0.153196 0.366794 0.224984
v 0.221344 -0.390380 -0.203760
v 0.223980 -0.392418 -0.207462
v 0.219424 -0.394458 -0.208305
v 0.218471 -0.391667 -0.204292
v 0.216529 -0.393607 -0.202660
v 0.216345 -0.397534 -0.205718
v 0.218684 -0.402327 -0.194421
v 0.147835 -0.315564 -0.107725
v 0.180987 -0.300718 -0.101592
v 0.225985 -0.399057 -0.193071
v 0.230918 -0.394129 -0.197215
v 0.203391 -0.278339 -0.120414
v 0.178286 -0.290402 -0.083156
v 0.147835 -0.315564 -0.107725
v 0.180987 -0.300718 -0.101592
v 0.203391 -0.278339 -0.120414
v 0.138312 -0.307901 -0.091297
v 0.204715 -0.263408 -0.106464
v -0.078286 0.243431 0.156318
v -0.064144 0.293052 0.165208
v -0.119647 0.319011 0.196951
v -0.085720 0.341744 0.189202
v -0.068258 0.338301 0.180642
v 0.063489 0.097557 0.051214
v 0.044362 0.094778 0.058613
v -0.138663 0.206036 0.174501
v -0.054553 0.052340 0.091871
v -0.020236 0.067707 0.098219
v -0.104346 0.221403 0.180849
v 0.002956 0.090873 0.078736
v -0.081155 0.244569 0.161366
v 0.195841 -0.252155 -0.099671
v 0.178286 -0.290402 -0.083156
v 0.204715 -0.263408 -0.106464
v 0.171275 -0.277820 -0.076941
v 0.133283 -0.294072 -0.085383
v 0.138312 -0.307901 -0.091297
v -0.204475 0.332435 0.236696
v -0.176953 0.282144 0.209659
v -0.227070 0.333713 0.211319
v -0.199548 0.283422 0.184282
v -0.228424 0.349223 0.181091
v -0.200902 0.298932 0.154054
v 0.221344 -0.390380 -0.203760
v 0.227344 -0.392608 -0.203684
v 0.223465 -0.390501 -0.201377
v 0.223980 -0.392418 -0.207462
v 0.223593 -0.391957 -0.198539
v 0.227545 -0.394917 -0.199184
v 0.212971 -0.398322 -0.207686
v 0.121890 -0.297375 -0.167966
v 0.123356 -0.314179 -0.135218
v 0.213294 -0.402022 -0.200475
v 0.218684 -0.402327 -0.194421
v 0.147835 -0.315564 -0.107725
v 0.147835 -0.315564 -0.107725
v 0.138312 -0.307901 -0.091297
v 0.108209 -0.305654 -0.126120
v 0.123356 -0.314179 -0.135218
v 0.121890 -0.297375 -0.167966
v 0.105610 -0.284978 -0.167225
v -0.138663 0.206036 0.174501
v -0.054553 0.052340 0.091871
v -0.164003 0.207469 0.146041
v -0.079893 0.053773 0.063412
v -0.165521 0.224863 0.112141
v -0.081411 0.071167 0.029512
v 0.019844 0.111964 0.001687
v -0.064144 0.293052 0.165208
v -0.088662 0.310238 0.108282
v 0.044362 0.094778 0.058613
v 0.133283 -0.294072 -0.085383
v 0.138312 -0.307901 -0.091297
v 0.108209 -0.305654 -0.126120
v 0.104120 -0.291392 -0.120053
v 0.100869 -0.271350 -0.160641
v 0.105610 -0.284978 -0.167225
v 0.212971 -0.398322 -0.207686
v 0.217905 -0.393394 -0.211831
v 0.219424 -0.394458 -0.208305
v 0.225205 -0.390125 -0.210480
v 0.216345 -0.397534 -0.205718
v 0.223980 -0.392418 -0.207462
v 0.216546 -0.399843 -0.201218
v 0.227344 -0.392608 -0.203684
v 0.213294 -0.402022 -0.200475
v 0.230595 -0.390429 -0.204427
v 0.218684 -0.402327 -0.194421
v 0.230918 -0.394129 -0.197215
v 0.219910 -0.400033 -0.197440
v 0.227545 -0.394917 -0.199184
v 0.224467 -0.397993 -0.196596
v 0.225985 -0.399057 -0.193071
v 0.221344 -0.390380 -0.203760
v 0.223465 -0.390501 -0.201377
v 0.218471 -0.391667 -0.204292
v 0.216529 -0.393607 -0.202660
v 0.216656 -0.395063 -0.199822
v 0.218777 -0.395184 -0.197439
v 0.221651 -0.393897 -0.196908
v 0.223593 -0.391957 -0.198539
v 0.038971 0.114744 -0.005712
v 0.044362 0.094778 0.058613
v 0.019844 0.111964 0.001687
v 0.063489 0.097557 0.051214
v -0.228424 0.349223 0.181091
v -0.200902 0.298932 0.154054
v -0.207745 0.369880 0.163719
v -0.149623 0.333291 0.142341
v -0.180223 0.319589 0.136681
v -0.177145 0.383582 0.169379
v 0.218777 -0.395184 -0.197439
v 0.219910 -0.400033 -0.197440
v 0.224467 -0.397993 -0.196596
v 0.221651 -0.393897 -0.196908
v 0.223593 -0.391957 -0.198539
v 0.227545 -0.394917 -0.199184
v 0.144293 -0.274996 -0.186788
v 0.212971 -0.398322 -0.207686
v 0.121890 -0.297375 -0.167966
v 0.217905 -0.393394 -0.211831
v 0.225205 -0.390125 -0.210480
v 0.177445 -0.260151 -0.180656
v 0.121890 -0.297375 -0.167966
v 0.177445 -0.260151 -0.180656
v 0.105610 -0.284978 -0.167225
v 0.172013 -0.240484 -0.182392
v 0.132039 -0.257984 -0.190533
v 0.144293 -0.274996 -0.186788
v -0.144165 0.336198 0.140026
v -0.088662 0.310238 0.108282
v -0.102803 0.260618 0.099392
v -0.110237 0.358931 0.132277
v -0.092776 0.355487 0.123716
v 0.038971 0.114744 -0.005712
v 0.019844 0.111964 0.001687
v -0.165521 0.224863 0.112141
v -0.081411 0.071167 0.029512
v -0.142330 0.248029 0.092658
v -0.058220 0.094333 0.010029
v -0.023902 0.109701 0.016376
v -0.108013 0.263397 0.099006
v 0.163427 -0.229434 -0.174930
v 0.172013 -0.240484 -0.182392
v 0.132039 -0.257984 -0.190533
v 0.125435 -0.245686 -0.183372
v 0.100869 -0.271350 -0.160641
v 0.105610 -0.284978 -0.167225
v 0.195336 -0.252226 -0.099647
v 0.173920 -0.211842 -0.076861
v 0.170328 -0.191396 -0.118550
v 0.192086 -0.232184 -0.140235
v 0.162923 -0.229504 -0.174905
v 0.140582 -0.188473 -0.154265
v 0.162388 -0.190099 -0.064591
v 0.148267 -0.163472 -0.049568
v 0.144266 -0.142540 -0.092574
v 0.158612 -0.169433 -0.106873
v 0.128552 -0.166380 -0.143152
v 0.113822 -0.139326 -0.129542
v -0.117790 0.324717 0.207670
v -0.037016 0.183913 0.139631
v -0.119557 0.344951 0.168235
v -0.036941 0.198620 0.088473
v -0.074508 0.210195 0.052581
v -0.149034 0.346618 0.135129
v 0.001499 0.108834 0.100375
v 0.136500 -0.141283 -0.037048
v 0.001446 0.121830 0.048755
v 0.132311 -0.120130 -0.080659
v 0.101547 -0.116782 -0.118202
v -0.035993 0.135116 0.013325
v -0.210353 0.312356 0.160699
v -0.157186 0.347980 0.148556
v -0.188912 0.333773 0.142687
v -0.133760 0.346655 0.174867
v -0.185522 0.294950 0.218351
v -0.208949 0.296275 0.192040
v -0.132356 0.330574 0.206207
v -0.153796 0.309157 0.224220
v -0.184689 0.279892 0.222950
v -0.208949 0.296275 0.192040
v -0.214165 0.281559 0.189844
v -0.215932 0.301793 0.150408
v -0.185522 0.294950 0.218351
v -0.210353 0.312356 0.160699
v -0.153796 0.309157 0.224220
v -0.188912 0.333773 0.142687
v -0.144769 0.297769 0.230334
v -0.188954 0.328742 0.127745
v -0.117790 0.324717 0.207670
v -0.149034 0.346618 0.135129
v -0.132356 0.330574 0.206207
v -0.157186 0.347980 0.148556
v -0.119557 0.344951 0.168235
v -0.133760 0.346655 0.174867
v -0.126248 0.135815 0.052408
v -0.035993 0.135116 0.013325
v -0.088886 0.140909 0.014838
v 0.001446 0.121830 0.048755
v -0.126194 0.122818 0.104028
v -0.088755 0.109533 0.139459
v 0.001499 0.108834 0.100375
v -0.035863 0.103741 0.137946
v 0.132778 -0.294142 -0.085359
v 0.149254 -0.237836 -0.053619
v 0.110779 -0.254149 -0.062439
v 0.170770 -0.277890 -0.076916
v 0.195336 -0.252226 -0.099647
v 0.173920 -0.211842 -0.076861
v 0.098934 -0.232615 -0.050098
v 0.123482 -0.189860 -0.025713
v 0.084428 -0.206247 -0.034986
v 0.137668 -0.216269 -0.041074
v 0.162388 -0.190099 -0.064591
v 0.148267 -0.163472 -0.049568
v -0.127892 0.176349 0.176488
v -0.144769 0.297769 0.230334
v -0.184689 0.279892 0.222950
v -0.074689 0.174687 0.176088
v -0.117790 0.324717 0.207670
v -0.037016 0.183913 0.139631
v 0.072341 -0.184273 -0.022393
v -0.035863 0.103741 0.137946
v -0.088755 0.109533 0.139459
v 0.111660 -0.167853 -0.012912
v 0.001499 0.108834 0.100375
v 0.136500 -0.141283 -0.037048
v 0.132778 -0.294142 -0.085359
v 0.110779 -0.254149 -0.062439
v 0.081034 -0.251227 -0.098154
v 0.103615 -0.291462 -0.120028
v 0.100365 -0.271421 -0.160617
v 0.077441 -0.230780 -0.139843
v 0.098934 -0.232615 -0.050098
v 0.084428 -0.206247 -0.034986
v 0.053984 -0.203033 -0.071954
v 0.068874 -0.229561 -0.086376
v 0.065098 -0.208896 -0.128659
v 0.049983 -0.182101 -0.114961
v -0.127892 0.176349 0.176488
v -0.184689 0.279892 0.222950
v -0.165460 0.187923 0.140596
v -0.214165 0.281559 0.189844
v -0.215932 0.301793 0.150408
v -0.165385 0.202631 0.089438
v 0.072341 -0.184273 -0.022393
v -0.088755 0.109533 0.139459
v 0.041576 -0.180925 -0.059935
v -0.126194 0.122818 0.104028
v -0.126248 0.135815 0.052408
v 0.037388 -0.159771 -0.103548
v -0.165385 0.202631 0.089438
v -0.036941 0.198620 0.088473
v -0.165460 0.187923 0.140596
v -0.127892 0.176349 0.176488
v -0.074508 0.210195 0.052581
v -0.127711 0.211856 0.052980
v -0.037016 0.183913 0.139631
v -0.074689 0.174687 0.176088
v 0.100365 -0.271421 -0.160617
v 0.077441 -0.230780 -0.139843
v 0.102107 -0.204786 -0.163086
v 0.124930 -0.245756 -0.183348
v 0.162923 -0.229504 -0.174905
v 0.140582 -0.188473 -0.154265
v 0.065098 -0.208896 -0.128659
v 0.049983 -0.182101 -0.114961
v 0.074769 -0.155713 -0.138815
v 0.089818 -0.182726 -0.152175
v 0.128552 -0.166380 -0.143152
v 0.113822 -0.139326 -0.129542
v -0.215932 0.301793 0.150408
v -0.165385 0.202631 0.089438
v -0.188954 0.328742 0.127745
v -0.074508 0.210195 0.052581
v -0.127711 0.211856 0.052980
v -0.149034 0.346618 0.135129
v -0.126248 0.135815 0.052408
v 0.037388 -0.159771 -0.103548
v -0.088886 0.140909 0.014838
v 0.101547 -0.116782 -0.118202
v 0.062228 -0.133202 -0.127683
v -0.035993 0.135116 0.013325
vn 0.8689 0.2054 0.4503
vn 0.8218 0.5373 -0.1896
vn 0.8690 0.2054 0.4502
vn 0.3553 0.5684 -0.7421
vn 0.3532 0.5651 -0.7456
vn 0.3929 -0.2908 0.8724
vn 0.3930 -0.2908 0.8724
vn -0.3390 -0.5992 0.7253
vn -0.3320 -0.6007 0.7273
vn -0.8098 -0.5582 0.1808
vn -0.3320 -0.6008 0.7272
vn -0.8510 -0.2443 -0.4649
vn -0.8495 -0.2360 -0.4719
vn 0.3552 0.5684 -0.7421
vn -0.3697 0.2438 -0.8966
vn -0.8510 -0.2442 -0.4649
vn -0.8494 -0.2359 -0.4720
vn 0.8183 0.5430 -0.1888
vn 0.6379 0.4646 0.6143
vn 0.8470 0.1961 0.4941
vn 0.6061 0.7950 -0.0236
vn 0.3077 0.5759 -0.7574
vn 0.1338 0.8185 -0.5587
vn 0.8485 -0.5264 -0.0550
vn 0.9244 0.0869 -0.3714
vn 0.9504 -0.2199 0.2199
vn 0.8307 -0.3213 -0.4546
vn 0.5352 -0.3069 -0.7870
vn 0.4820 0.1107 -0.8692
vn 0.2685 0.9475 0.1737
vn 0.9037 0.3143 -0.2907
vn 0.4100 0.3469 -0.8435
vn 0.9037 0.3144 -0.2908
vn 0.9314 -0.0236 0.3631
vn 0.9315 -0.0237 0.3631
vn 0.9578 -0.2355 0.1648
vn 0.9250 0.0791 -0.3716
vn 0.9468 -0.2603 0.1893
vn 0.5202 0.0710 -0.8511
vn 0.4903 0.0554 -0.8698
vn 0.8183 0.5429 -0.1888
vn 0.8470 0.1961 0.4940
vn 0.8840 -0.1736 -0.4341
vn 0.8840 -0.1737 -0.4341
vn 0.8840 -0.1736 -0.4342
vn 0.7228 0.6835 -0.1021
vn 0.7907 0.2926 0.5377
vn 0.7958 0.3231 0.5121
vn 0.2590 0.6671 -0.6985
vn 0.2911 0.6765 -0.6765
vn 0.2051 0.0315 0.9782
vn -0.5282 0.4415 0.7253
vn -0.4413 -0.2600 0.8589
vn -0.9177 -0.2294 0.3244
vn 0.6061 0.7951 -0.0236
vn -0.0000 0.7953 0.6063
vn 0.6378 0.4646 0.6142
vn -0.2443 0.9692 0.0315
vn -0.5100 0.5335 -0.6747
vn -0.0158 0.9562 0.2924
vn -0.2134 0.5849 0.7825
vn -0.5602 0.8280 -0.0236
vn -0.7575 0.4576 0.4655
vn -0.7726 0.6149 0.1577
vn -0.9468 0.0947 -0.3077
vn -0.4329 0.7950 0.4250
vn 0.3795 -0.2687 0.8853
vn 0.8470 0.1960 0.4941
vn -0.3077 -0.5759 0.7574
vn 0.6378 0.4646 0.6143
vn -0.0552 -0.8915 0.4497
vn 0.1737 -0.9794 0.1027
vn 0.5448 -0.6237 0.5606
vn 0.5769 -0.7981 0.1739
vn 0.9504 -0.2199 0.2200
vn 0.4817 -0.4659 0.7422
vn -0.1817 -0.7663 0.6162
vn 0.9314 -0.0237 0.3631
vn 0.5586 -0.6766 0.4799
vn -0.0553 -0.9169 0.3952
vn 0.9578 -0.2356 0.1649
vn -0.0235 -0.9122 0.4090
vn 0.9467 -0.2604 0.1894
vn 0.3794 -0.2688 0.8853
vn 0.3794 -0.2687 0.8853
vn -0.3076 -0.5759 0.7574
vn 0.7907 0.2925 0.5377
vn 0.3534 -0.2121 0.9111
vn 0.7958 0.3230 0.5122
vn -0.3609 -0.4787 0.8004
vn -0.4016 -0.4804 0.7797
vn -0.9177 -0.2294 0.3243
vn -0.8183 -0.5429 0.1888
vn -0.8470 -0.1961 -0.4941
vn 0.1738 -0.9794 0.1027
vn -0.4964 -0.8668 -0.0473
vn -0.1263 -0.9633 -0.2369
vn -0.1419 -0.7566 -0.6384
vn -0.5282 -0.5598 -0.6385
vn -0.7004 -0.4014 -0.5902
vn -0.6690 -0.7399 0.0708
vn -0.6690 -0.7398 0.0708
vn -0.4965 -0.8668 -0.0473
vn -0.0554 -0.9169 0.3952
vn -0.0236 -0.9122 0.4090
vn -0.4959 -0.6061 -0.6218
vn -0.4812 -0.5917 -0.6468
vn -0.3077 -0.5760 0.7574
vn -0.8470 -0.1961 -0.4940
vn -0.3610 -0.4787 0.8004
vn -0.8818 -0.3937 0.2598
vn -0.4017 -0.4804 0.7797
vn -0.8960 -0.1022 -0.4322
vn -0.9068 -0.1262 -0.4021
vn 0.4329 -0.7950 -0.4250
vn 0.4329 -0.7949 -0.4250
vn -0.1264 -0.9633 -0.2368
vn 0.8485 -0.5263 -0.0550
vn 0.1257 -0.4871 -0.8643
vn 0.5351 -0.3069 -0.7870
vn -0.1419 -0.7566 -0.6383
vn 0.0236 -0.9538 -0.2995
vn 0.0237 -0.9538 -0.2996
vn -0.5100 0.5335 -0.6748
vn -0.3795 0.2687 -0.8853
vn 0.1338 0.8185 -0.5588
vn -0.1177 -0.1569 -0.9806
vn 0.4820 0.1106 -0.8692
vn -0.5282 -0.5597 -0.6386
vn -0.2515 0.0472 -0.9667
vn -0.7004 -0.4013 -0.5902
vn -0.2515 0.0471 -0.9667
vn 0.4099 0.3469 -0.8436
vn -0.0631 -0.2365 -0.9696
vn -0.4959 -0.6061 -0.6219
vn -0.4812 -0.5916 -0.6469
vn 0.5201 0.0709 -0.8512
vn 0.4902 0.0554 -0.8698
vn -0.0630 -0.2365 -0.9696
vn -0.3794 0.2688 -0.8853
vn -0.3794 0.2687 -0.8853
vn -0.8470 -0.1960 -0.4941
vn 0.3076 0.5759 -0.7574
vn -0.4087 0.3144 -0.8568
vn -0.8959 -0.1022 -0.4323
vn -0.9068 -0.1262 -0.4022
vn 0.8659 0.2047 0.4565
vn 0.3463 0.5667 -0.7476
vn 0.8725 0.2123 0.4402
vn 0.3621 0.5668 -0.7400
vn 0.8630 0.2981 0.4079
vn 0.8098 0.5582 -0.1808
vn 0.8408 0.2515 0.4793
vn 0.3936 0.6219 -0.6770
vn 0.3237 0.6158 -0.7184
vn 0.8675 0.2287 0.4417
vn 0.8183 0.5428 -0.1889
vn 0.8418 0.1731 0.5113
vn 0.3610 0.5807 -0.7297
vn 0.2834 0.5589 -0.7793
vn -0.4329 0.7949 0.4250
vn -0.5282 0.2207 0.8199
vn -0.8643 0.2436 0.4400
vn -0.8815 0.4722 -0.0000
vn -0.0785 0.4237 0.9024
vn -0.5767 0.7742 -0.2607
vn 0.2277 0.7304 0.6440
vn -0.1260 0.9768 -0.1733
vn 0.2278 0.7303 0.6440
vn -0.1260 0.9768 -0.1732
vn 0.2044 0.9590 0.1965
vn 0.1106 0.9633 0.2447
vn 0.1105 0.9633 0.2448
vn 0.3930 -0.2908 0.8723
vn -0.3301 -0.5973 0.7309
vn 0.8658 0.2046 0.4566
vn -0.3389 -0.5992 0.7253
vn 0.8725 0.2122 0.4402
vn -0.2671 -0.5107 0.8172
vn 0.3634 -0.2054 0.9087
vn -0.3536 -0.5422 0.7622
vn 0.4717 -0.1258 0.8727
vn 0.8408 0.2514 0.4794
vn 0.8630 0.2981 0.4080
vn -0.3634 -0.5925 0.7189
vn 0.2364 -0.3704 0.8983
vn -0.4497 -0.6075 0.6548
vn 0.3854 -0.2753 0.8808
vn 0.8417 0.1730 0.5114
vn -0.8299 -0.5217 0.1976
vn -0.2672 -0.5108 0.8172
vn -0.8761 -0.1736 -0.4498
vn -0.8424 -0.1103 -0.5275
vn -0.8133 -0.5528 0.1816
vn -0.3635 -0.5925 0.7189
vn -0.8133 -0.5527 0.1816
vn -0.8851 -0.3003 -0.3556
vn -0.8593 -0.2444 -0.4493
vn -0.0315 -0.9607 -0.2757
vn -0.0316 -0.9607 -0.2757
vn -0.0315 -0.9608 -0.2756
vn -0.3696 0.2438 -0.8966
vn 0.3531 0.5651 -0.7456
vn 0.3463 0.5666 -0.7477
vn -0.3935 0.3305 -0.8578
vn -0.8424 -0.1102 -0.5275
vn -0.8761 -0.1736 -0.4499
vn -0.2754 0.4014 -0.8735
vn 0.3236 0.6158 -0.7184
vn -0.5127 0.1578 -0.8440
vn -0.8593 -0.2444 -0.4494
vn -0.3783 0.2522 -0.8906
vn 0.2833 0.5589 -0.7793
vn 0.3609 0.5806 -0.7298
vt 9.988190 -13.003700
vt 10.000000 -12.996300
vt 9.988010 -12.996300
vt 10.000000 -13.003700
vt 10.011800 -13.003700
vt 10.012000 -12.996300
vt 10.010400 -13.003700
vt 9.989550 -13.003700
vt 10.010500 -12.996300
vt 9.989500 -12.996300
vt 6.000000 -16.890699
vt 5.991510 -16.873501
vt 5.991510 -16.890699
vt 6.000000 -16.873501
vt 6.008490 -16.890699
vt 6.008490 -16.873501
vt 6.000800 -17.129101
vt 6.000000 -17.130301
vt 6.001260 -17.130301
vt 6.000000 -17.129101
vt 5.999200 -17.129101
vt 5.998740 -17.130301
vt 5.991310 -16.894699
vt 6.008690 -16.894699
vt 6.008690 -16.891001
vt 5.991310 -16.891001
vt 6.000000 -17.093399
vt 6.002020 -17.130301
vt 6.009190 -17.093399
vt 5.997980 -17.130301
vt 5.990810 -17.093399
vt 6.000000 -17.088800
vt 5.988410 -17.088800
vt 6.011590 -17.088800
vt 6.008690 -16.976700
vt 5.991310 -16.976700
vt 6.000000 -16.967800
vt 5.990480 -16.915501
vt 5.990480 -16.967800
vt 6.000000 -16.915501
vt 6.009520 -16.967800
vt 6.009520 -16.915501
vt 6.008690 -16.906700
vt 5.991310 -16.906700
vt 6.008690 -16.916700
vt 5.991310 -16.916700
vt 5.988520 -17.084499
vt 6.000000 -17.084499
vt 6.011480 -17.084499
vt 6.004850 -16.988001
vt 6.010580 -16.994301
vt 6.013330 -16.991501
vt 6.016850 -17.000000
vt 5.992850 -17.000000
vt 5.999120 -16.994301
vt 5.996360 -16.991501
vt 5.996360 -17.008499
vt 5.999120 -17.005699
vt 6.004850 -17.011999
vt 5.996750 -17.000000
vt 6.004850 -16.991899
vt 6.004850 -17.008101
vt 6.012950 -17.000000
vt 6.010580 -17.005699
vt 6.013330 -17.008499
vt 5.983390 -17.008699
vt 5.994610 -17.008699
vt 5.994610 -16.991301
vt 5.983390 -16.991301
vt 5.995150 -16.873501
vt 5.995150 -16.890699
vt 6.003640 -16.890699
vt 5.986670 -16.873501
vt 5.986670 -16.890699
vt 6.003640 -16.873501
vt 5.996420 -17.130301
vt 5.995950 -17.129101
vt 5.995150 -17.130301
vt 5.995150 -17.129101
vt 5.994360 -17.129101
vt 5.993890 -17.130301
vt 5.995150 -17.093399
vt 5.985960 -17.093399
vt 5.993130 -17.130301
vt 5.997180 -17.130301
vt 6.004340 -17.093399
vt 5.995150 -17.088800
vt 5.984160 -17.088800
vt 6.006140 -17.088800
vt 6.005390 -16.916700
vt 6.015390 -16.906700
vt 6.005390 -16.891001
vt 6.016610 -16.891001
vt 6.020390 -16.894699
vt 6.020390 -16.976700
vt 6.015390 -16.974199
vt 5.985640 -16.915501
vt 5.985640 -16.967800
vt 5.995150 -16.967800
vt 5.995150 -16.915501
vt 6.004670 -16.967800
vt 6.004670 -16.915501
vt 6.005500 -17.084499
vt 5.995150 -17.084499
vt 5.984800 -17.084499
vt 5.991310 -16.974199
vt 6.008690 -16.974199
vt 5.993130 -17.002001
vt 5.995150 -17.002899
vt 5.995150 -17.001801
vt 5.997180 -17.002001
vt 5.993890 -17.001301
vt 5.996420 -17.001301
vt 5.993370 -17.000000
vt 5.996940 -17.000000
vt 5.992290 -17.000000
vt 5.998010 -17.000000
vt 5.993130 -16.997999
vt 5.997180 -16.997999
vt 5.993890 -16.998699
vt 5.996420 -16.998699
vt 5.995150 -16.998199
vt 5.995150 -16.997101
vt 5.996280 -17.000000
vt 5.995150 -17.001101
vt 5.995950 -17.000799
vt 5.994030 -17.000000
vt 5.994360 -17.000799
vt 5.995150 -16.998899
vt 5.994360 -16.999201
vt 5.995950 -16.999201
vt 6.020390 -17.008699
vt 6.015390 -16.991301
vt 6.015390 -17.008699
vt 6.020390 -16.991301
vt 6.004850 -16.873501
vt 6.013330 -16.890699
vt 6.013330 -16.873501
vt 6.004850 -16.890699
vt 5.996360 -16.873501
vt 5.996360 -16.890699
vt 6.004850 -17.130301
vt 6.006110 -17.130301
vt 6.005640 -17.129101
vt 6.004850 -17.129101
vt 6.004050 -17.129101
vt 6.003580 -17.130301
vt 6.004850 -17.093399
vt 6.006870 -17.130301
vt 6.014040 -17.093399
vt 6.002820 -17.130301
vt 5.995660 -17.093399
vt 6.004850 -17.088800
vt 6.015840 -17.088800
vt 5.993860 -17.088800
vt 5.994610 -16.891001
vt 5.984610 -16.906700
vt 5.994610 -16.916700
vt 5.983390 -16.891001
vt 5.979610 -16.894699
vt 5.979610 -16.976700
vt 5.984610 -16.974199
vt 6.004850 -16.915501
vt 6.014360 -16.967800
vt 6.014360 -16.915501
vt 6.004850 -16.967800
vt 5.995330 -16.915501
vt 5.995330 -16.967800
vt 5.994500 -17.084499
vt 6.004850 -17.084499
vt 6.015200 -17.084499
vt 37.988499 -47.099300
vt 38.000000 -47.085499
vt 37.988201 -47.085499
vt 38.000000 -47.099300
vt 38.011501 -47.099300
vt 38.011799 -47.085499
vt 37.987999 -47.078098
vt 38.000000 -47.069000
vt 37.987801 -47.069000
vt 38.000000 -47.078098
vt 38.012001 -47.078098
vt 38.012199 -47.069000
vt 37.986698 -46.951000
vt 38.000000 -46.903500
vt 37.988899 -46.903500
vt 38.000000 -46.953701
vt 38.013302 -46.951000
vt 38.011101 -46.903500
vt 37.987598 -47.061401
vt 38.000000 -46.979301
vt 37.986698 -46.976101
vt 38.000000 -47.061401
vt 38.012402 -47.061401
vt 38.013302 -46.976101
vt 38.008801 -47.008801
vt 37.991199 -47.008801
vt 38.000000 -47.012402
vt 37.987598 -47.000000
vt 38.008801 -46.991199
vt 38.012402 -47.000000
vt 37.991199 -46.991199
vt 38.000000 -46.987598
vt 38.011101 -46.988899
vt 38.015701 -47.000000
vt 38.011101 -47.011101
vt 38.000000 -46.984299
vt 38.000000 -47.015701
vt 37.988899 -46.988899
vt 37.988899 -47.011101
vt 37.984299 -47.000000
vt 38.010899 -47.013302
vt 37.989101 -47.013302
vt 38.000000 -47.018799
vt 37.984600 -47.000000
vt 38.015400 -47.000000
vt 38.010899 -46.986698
vt 37.989101 -46.986698
vt 38.000000 -46.981201
vt 37.989601 -47.099300
vt 37.989601 -47.085499
vt 38.010399 -47.099300
vt 38.010399 -47.085499
vt 37.989498 -47.078098
vt 37.989399 -47.069000
vt 38.010502 -47.078098
vt 38.010601 -47.069000
vt 37.988499 -46.937698
vt 38.000000 -46.944401
vt 38.011501 -46.951000
vt 37.989399 -47.061401
vt 38.000000 -46.968498
vt 37.989101 -46.960899
vt 38.010899 -46.976101
vt 38.010601 -47.061401
vt 38.000000 -46.935001
vt 38.013302 -46.937698
vt 37.986698 -46.937698
vt 38.013302 -46.960899
vt 38.000000 -46.957699
vt 37.986698 -46.960899
vt 37.988499 -47.013302
vt 38.016300 -47.000000
vt 37.983700 -47.000000
vt 37.988499 -46.986698
vt 38.011501 -47.013302
vt 38.011501 -46.986698
vt 38.011501 -46.937698
vt 37.988499 -46.951000
vt 38.010899 -46.960899
vt 37.989101 -46.976101
s 1
usemtl Meshpart1Mtl.001
f 1/1/1 3/2/2 2/3/3
f 3/2/2 1/1/1 4/4/2
f 5/5/4 3/2/2 4/4/2
f 6/6/5 3/2/2 5/5/4
f 7/4/6 8/7/1 9/2/7
f 9/2/7 10/8/8 7/4/6
f 8/7/1 11/9/1 9/2/7
f 10/8/8 9/2/7 12/10/9
f 15/2/10 13/5/8 14/6/11
f 15/2/10 16/4/10 13/5/8
f 15/2/10 17/1/12 16/4/10
f 17/1/12 15/2/10 18/3/13
f 19/8/14 23/2/15 21/10/5
f 23/2/15 20/7/16 22/9/17
f 23/2/15 19/8/14 24/4/15
f 20/7/16 23/2/15 24/4/15
usemtl Meshpart2Mtl.001
f 27/11/18 26/12/19 25/13/20
f 27/11/18 28/14/21 26/12/19
f 29/15/22 28/14/21 27/11/18
f 29/15/22 30/16/23 28/14/21
f 31/17/24 33/18/25 32/19/26
f 33/18/25 31/17/24 34/20/27
f 35/21/28 33/18/25 34/20/27
f 33/18/25 35/21/28 36/22/29
f 37/23/30 38/24/30 39/25/30
f 39/25/30 40/26/30 37/23/30
f 43/27/31 41/28/32 42/29/32
f 41/28/32 43/27/31 44/18/33
f 44/18/33 43/27/31 45/30/34
f 46/31/35 45/30/34 43/27/31
f 47/31/36 49/32/37 48/33/38
f 49/32/37 47/31/36 50/27/37
f 51/29/39 49/32/37 50/27/37
f 52/34/40 49/32/37 51/29/39
f 53/35/41 54/24/41 55/23/41
f 53/35/41 55/23/41 56/36/41
f 59/37/41 58/38/20 57/39/42
f 59/37/41 60/40/41 58/38/20
f 61/41/22 60/40/41 59/37/41
f 61/41/22 62/42/22 60/40/41
f 63/43/43 64/44/43 65/45/44
f 65/45/44 64/44/43 66/46/45
f 69/32/46 67/47/47 68/33/48
f 67/47/47 69/32/46 70/48/46
f 69/32/46 71/49/49 70/48/46
f 71/49/49 69/32/46 72/34/50
f 73/50/51 76/51/52 74/52/53
f 75/53/54 74/52/53 76/51/52
f 79/54/55 82/55/56 77/56/57
f 73/50/51 77/56/57 82/55/56
f 79/54/55 81/57/23 83/58/58
f 80/59/59 83/58/58 81/57/23
f 82/55/56 79/54/55 84/60/60
f 79/54/55 83/58/58 84/60/60
f 82/55/56 85/61/61 73/50/51
f 84/60/60 85/61/61 82/55/56
f 76/51/52 73/50/51 85/61/61
f 86/62/62 84/60/60 83/58/58
f 83/58/58 80/59/59 86/62/62
f 84/60/60 87/63/63 85/61/61
f 85/61/61 87/63/63 76/51/52
f 87/63/63 84/60/60 86/62/62
f 75/53/54 76/51/52 87/63/63
f 80/59/59 88/64/64 86/62/62
f 87/63/63 86/62/62 88/64/64
f 88/64/64 75/53/54 87/63/63
f 88/64/64 80/59/59 78/65/65
f 75/53/54 88/64/64 78/65/65
f 89/66/66 90/67/66 91/68/66
f 89/66/66 91/68/66 92/69/66
f 93/70/51 94/71/67 95/72/68
f 94/71/67 93/70/51 96/73/53
f 96/73/53 97/74/69 94/71/67
f 95/72/68 98/75/70 93/70/51
f 100/76/71 99/77/72 101/78/73
f 101/78/73 99/77/72 102/79/74
f 103/80/24 101/78/73 102/79/74
f 101/78/73 103/80/24 104/81/75
f 107/82/76 106/83/77 105/84/77
f 108/78/76 107/82/76 105/84/77
f 109/85/78 107/82/76 108/78/76
f 107/82/76 109/85/78 110/86/78
f 111/87/79 112/83/80 113/82/79
f 113/82/79 114/86/81 111/87/79
f 112/83/80 111/87/79 115/88/82
f 116/89/83 111/87/79 114/86/81
f 117/90/84 118/91/67 119/92/85
f 118/91/67 120/93/84 119/92/85
f 120/93/84 118/91/67 121/94/67
f 122/95/67 121/94/67 118/91/67
f 118/91/67 123/96/85 122/95/67
f 124/97/86 125/98/69 126/99/85
f 126/99/85 127/100/67 124/97/86
f 127/100/67 126/99/85 128/101/68
f 128/101/68 129/102/68 127/100/67
f 130/103/87 131/87/88 132/89/89
f 131/87/88 130/103/87 133/104/88
f 133/104/88 134/105/90 131/87/88
f 135/88/91 131/87/88 134/105/90
f 138/14/92 137/15/69 136/16/53
f 138/14/92 139/11/93 137/15/69
f 140/12/65 139/11/93 138/14/92
f 140/12/65 141/13/94 139/11/93
f 142/21/95 143/18/96 144/20/97
f 143/18/96 142/21/95 145/22/71
f 144/20/97 143/18/96 146/17/98
f 143/18/96 147/19/99 146/17/98
f 148/30/100 150/27/101 149/31/100
f 150/27/101 148/30/100 151/18/102
f 152/28/77 150/27/101 151/18/102
f 150/27/101 152/28/77 153/29/77
f 156/32/103 154/29/104 155/34/105
f 157/27/96 154/29/104 156/32/103
f 156/32/103 158/31/106 157/27/96
f 158/31/106 156/32/103 159/33/107
f 162/40/93 161/41/108 160/42/69
f 162/40/93 163/37/93 161/41/108
f 164/38/109 163/37/93 162/40/93
f 164/38/109 165/39/94 163/37/93
f 166/106/93 167/43/93 168/44/93
f 167/43/93 166/106/93 169/107/93
f 170/49/110 172/32/111 171/34/112
f 172/32/111 170/49/110 173/48/111
f 174/47/113 172/32/111 173/48/111
f 175/33/114 172/32/111 174/47/113
f 176/108/115 177/109/115 178/110/115
f 179/111/115 178/110/115 177/109/115
f 176/108/115 178/110/115 180/112/115
f 178/110/115 179/111/115 181/113/115
f 182/114/115 176/108/115 180/112/115
f 179/111/115 183/115/115 181/113/115
f 176/108/115 182/114/115 184/116/115
f 179/111/115 185/117/115 183/115/115
f 182/114/115 186/118/115 184/116/115
f 187/119/115 183/115/115 185/117/115
f 186/118/115 182/114/115 188/120/115
f 183/115/115 187/119/115 189/121/116
f 190/122/115 186/118/115 188/120/115
f 187/119/115 190/122/115 189/121/116
f 186/118/115 190/122/115 191/123/116
f 190/122/115 187/119/115 191/123/116
f 193/124/117 194/125/74 192/126/95
f 194/125/74 196/127/27 195/128/118
f 193/124/117 196/127/27 194/125/74
f 196/127/27 198/129/119 197/130/120
f 196/127/27 193/124/117 198/129/119
f 198/129/119 193/124/117 199/131/121
f 200/132/122 201/133/123 202/134/122
f 201/133/123 200/132/122 203/135/122
f 206/136/124 205/137/94 204/138/65
f 205/137/94 206/136/124 208/139/125
f 208/139/125 209/140/126 207/141/22
f 209/140/126 208/139/125 206/136/124
f 212/142/127 211/143/128 210/144/28
f 210/144/28 213/145/119 212/142/127
f 214/146/98 212/142/127 213/145/119
f 212/142/127 214/146/98 215/147/129
f 216/148/130 217/149/131 218/150/131
f 217/149/131 216/148/130 219/142/132
f 216/148/130 220/151/133 219/142/132
f 220/151/133 216/148/130 221/152/133
f 226/153/134 222/150/135 224/154/136
f 223/152/137 226/153/134 225/155/138
f 222/150/135 226/153/134 227/148/139
f 226/153/134 223/152/137 227/148/139
f 228/156/140 229/157/125 230/158/141
f 229/157/125 228/156/140 231/159/125
f 229/157/125 231/159/125 232/160/140
f 232/160/140 233/161/140 229/157/125
f 234/162/141 229/157/125 233/161/140
f 237/163/125 236/164/142 235/165/142
f 236/164/142 237/163/125 238/166/141
f 240/167/143 238/166/141 237/163/125
f 238/166/141 240/167/143 239/168/143
f 243/153/144 241/169/49 242/155/50
f 241/169/49 243/153/144 244/170/144
f 243/153/144 245/171/145 244/170/144
f 245/171/145 243/153/144 246/154/146
usemtl Meshpart3Mtl.001
f 247/172/1 249/173/2 248/174/147
f 249/173/2 247/172/1 250/175/2
f 251/176/5 249/173/2 250/175/2
f 252/177/148 249/173/2 251/176/5
f 253/178/149 255/179/2 254/180/1
f 255/179/2 253/178/149 256/181/2
f 257/182/150 255/179/2 256/181/2
f 258/183/4 255/179/2 257/182/150
f 260/184/151 261/185/152 259/186/153
f 261/185/152 260/184/151 262/187/152
f 263/188/154 261/185/152 262/187/152
f 261/185/152 263/188/154 264/189/155
f 266/190/156 267/191/157 265/192/158
f 267/191/157 266/190/156 268/193/157
f 269/194/159 267/191/157 268/193/157
f 269/194/159 270/195/160 267/191/157
f 271/196/66 272/197/66 273/198/66
f 271/196/66 274/199/161 272/197/66
f 274/199/161 271/196/66 275/200/161
f 275/200/161 271/196/66 276/201/66
f 274/199/161 275/200/161 277/202/66
f 277/202/66 275/200/161 278/203/66
f 279/204/162 280/201/163 281/205/163
f 282/206/164 281/205/163 280/201/163
f 280/201/163 279/204/162 283/200/162
f 282/206/164 280/201/163 284/196/164
f 279/204/162 285/203/165 283/200/162
f 286/198/166 282/206/164 284/196/164
f 285/203/165 279/204/162 287/207/165
f 282/206/164 286/198/166 288/208/166
f 289/209/167 285/203/165 287/207/165
f 290/210/168 288/208/166 286/198/166
f 285/203/165 289/209/167 291/202/169
f 286/198/166 292/197/170 290/210/168
f 293/211/171 291/202/169 289/209/167
f 293/211/171 290/210/168 292/197/170
f 291/202/169 293/211/171 294/199/171
f 293/211/171 292/197/170 294/199/171
f 295/212/172 296/213/172 297/214/172
f 295/212/172 298/215/172 296/213/172
f 299/216/172 298/215/172 295/212/172
f 298/215/172 299/216/172 300/217/173
f 298/215/172 300/217/173 301/218/173
f 301/218/173 300/217/173 302/219/172
f 303/220/8 304/173/174 305/221/175
f 304/173/174 303/220/8 306/175/7
f 306/175/7 307/222/1 304/173/174
f 307/222/1 308/223/176 304/173/174
f 309/224/8 310/179/7 311/225/177
f 310/179/7 309/224/8 312/181/7
f 312/181/7 313/226/178 310/179/7
f 313/226/178 314/227/1 310/179/7
f 315/228/179 316/185/180 317/186/181
f 316/185/180 315/228/179 318/229/182
f 318/229/182 319/189/183 316/185/180
f 319/189/183 318/229/182 320/230/184
f 321/231/185 322/232/186 323/233/187
f 322/232/186 321/231/185 324/193/188
f 324/193/188 325/234/189 322/232/186
f 325/234/189 324/193/188 326/235/156
f 329/173/10 327/176/8 328/177/175
f 329/173/10 330/175/10 327/176/8
f 329/173/10 331/172/13 330/175/10
f 331/172/13 329/173/10 332/174/13
f 335/179/10 333/182/8 334/183/8
f 335/179/10 336/181/10 333/182/8
f 335/179/10 337/178/12 336/181/10
f 337/178/12 335/179/10 338/180/12
f 340/189/181 341/236/190 339/237/191
f 341/236/190 340/189/181 342/185/190
f 343/186/192 341/236/190 342/185/190
f 343/186/192 344/238/193 341/236/190
f 346/239/187 347/193/194 345/194/195
f 347/193/194 346/239/187 348/240/196
f 349/241/197 347/193/194 348/240/196
f 349/241/197 350/190/198 347/193/194
f 351/242/199 352/243/199 353/244/200
f 353/244/200 352/243/199 354/245/200
f 352/243/199 351/242/199 355/246/201
f 355/246/201 351/242/199 356/214/201
f 357/247/201 354/245/200 352/243/199
f 354/245/200 357/247/201 358/219/201
f 361/173/202 359/222/13 360/223/13
f 359/222/13 361/173/202 362/175/15
f 361/173/202 363/220/203 362/175/15
f 363/220/203 361/173/202 364/221/204
f 367/179/15 365/226/16 366/227/12
f 365/226/16 367/179/15 368/181/15
f 367/179/15 369/224/150 368/181/15
f 369/224/150 367/179/15 370/225/14
f 373/185/205 372/248/206 371/189/207
f 373/185/205 375/229/208 372/248/206
f 376/186/209 375/229/208 373/185/205
f 376/186/209 374/249/154 375/229/208
f 379/232/210 378/235/211 377/250/197
f 378/235/211 379/232/210 381/193/212
f 382/251/213 381/193/212 379/232/210
f 381/193/212 382/251/213 380/231/214
