# Blender 5.1.1
# www.blender.org
mtllib pumpv7.mtl
o 114195368565223
v 0.348965 -0.117288 -0.524560
v 0.318078 -0.223971 -0.515835
v 0.266280 -0.199973 -0.521578
v 0.374761 -0.163720 -0.533399
v 0.360215 -0.206157 -0.531654
v 0.008385 -0.502747 0.479876
v 0.002652 -0.546438 0.420982
v 0.085267 -0.520158 0.528276
v 0.042007 -0.420512 0.533332
v 0.119680 -0.581153 0.476016
v 0.132624 -0.561502 0.343889
v 0.570805 -0.034624 0.528276
v 0.597084 0.047993 0.420982
v 0.553392 0.042260 0.479876
v 0.471155 0.008640 0.533332
v 0.631797 -0.069036 0.476016
v 0.612146 -0.081976 0.343889
v 0.294209 -0.507347 0.574515
v 0.176415 -0.460005 0.574515
v 0.196609 -0.491132 0.472621
v 0.222677 -0.338137 1.527573
v 0.327420 -0.554576 0.526368
v 0.337493 -0.492761 0.358451
v 0.269235 -0.297735 -0.316597
v 0.194874 -0.271378 -0.322569
v 0.271531 -0.276904 -0.377861
v 0.172022 -0.294231 -0.286989
v 0.268451 -0.327662 -0.279152
v 0.211024 -0.255225 -0.381486
v 0.185216 -0.281041 -0.448169
v 0.267036 -0.314009 -0.439664
v 0.255189 -0.211068 -0.500662
v 0.317814 -0.238435 -0.493376
v 0.318078 -0.223971 -0.515835
v 0.266280 -0.199973 -0.521578
v 0.566517 -0.241329 0.574515
v 0.548121 -0.155690 0.470528
v 0.519362 -0.123427 0.574515
v 0.372692 -0.118174 1.522705
v 0.604759 -0.286788 0.530255
v 0.545257 -0.301246 0.361868
v 0.475669 -0.342395 0.520146
v 0.566517 -0.241329 0.574515
v 0.448953 -0.304851 0.574515
v 0.372692 -0.118174 1.522705
v 0.604759 -0.286788 0.530255
v 0.545257 -0.301246 0.361868
v 0.347889 -0.403362 0.574515
v 0.294209 -0.507347 0.574515
v 0.327420 -0.554576 0.526368
v 0.222677 -0.338137 1.527573
v 0.388297 -0.427906 0.516001
v 0.337493 -0.492761 0.358451
v 0.533291 -0.141848 0.453355
v 0.570805 -0.034624 0.528276
v 0.509029 -0.089759 0.502387
v 0.471155 0.008640 0.533332
v 0.631797 -0.069036 0.476016
v 0.612146 -0.081976 0.343889
v 0.192493 -0.482646 0.453355
v 0.085267 -0.520158 0.528276
v 0.119680 -0.581153 0.476016
v 0.132624 -0.561502 0.343889
v 0.140405 -0.458387 0.502389
v 0.042007 -0.420512 0.533332
v 0.340893 -0.263804 -0.314366
v 0.271531 -0.276904 -0.377861
v 0.329438 -0.249404 -0.375252
v 0.339720 -0.279141 -0.427743
v 0.269235 -0.297735 -0.316597
v 0.362495 -0.283132 -0.276223
v 0.268451 -0.327662 -0.279152
v 0.267036 -0.314009 -0.439664
v 0.317814 -0.238435 -0.493376
v 0.371261 -0.215844 -0.513441
v 0.318078 -0.223971 -0.515835
v 0.360215 -0.206157 -0.531654
v 0.341183 -0.125070 -0.323395
v 0.351009 -0.189016 -0.375185
v 0.329368 -0.136880 -0.377699
v 0.334269 -0.131984 -0.419487
v 0.367746 -0.189336 -0.317182
v 0.364038 -0.102218 -0.288075
v 0.397736 -0.185396 -0.279918
v 0.365963 -0.202141 -0.419385
v 0.360058 -0.106195 -0.504444
v 0.389706 -0.162016 -0.515655
v 0.374761 -0.163720 -0.533399
v 0.348965 -0.117288 -0.524560
v 0.211024 -0.255225 -0.381486
v 0.334269 -0.131984 -0.419487
v 0.255189 -0.211068 -0.500662
v 0.185216 -0.281041 -0.448169
v 0.266280 -0.199973 -0.521578
v 0.348965 -0.117288 -0.524560
v 0.360058 -0.106195 -0.504444
v 0.329368 -0.136880 -0.377699
v 0.341183 -0.125070 -0.323395
v 0.194874 -0.271378 -0.322569
v 0.364038 -0.102218 -0.288075
v 0.172022 -0.294231 -0.286989
v 0.367746 -0.189336 -0.317182
v 0.340893 -0.263804 -0.314366
v 0.351009 -0.189016 -0.375185
v 0.362495 -0.283132 -0.276223
v 0.397736 -0.185396 -0.279918
v 0.329438 -0.249404 -0.375252
v 0.365963 -0.202141 -0.419385
v 0.339720 -0.279141 -0.427743
v 0.371261 -0.215844 -0.513441
v 0.389706 -0.162016 -0.515655
v 0.374761 -0.163720 -0.533399
v 0.360215 -0.206157 -0.531654
v 0.230096 -0.356020 0.574515
v 0.196609 -0.491132 0.472621
v 0.176415 -0.460005 0.574515
v 0.222677 -0.338137 1.527573
v 0.257488 -0.364462 0.462254
v 0.337493 -0.492761 0.358451
v 0.063522 -0.440973 0.453988
v 0.002652 -0.546438 0.420982
v 0.008385 -0.502747 0.479876
v 0.042007 -0.420512 0.533332
v 0.075465 -0.447933 0.398320
v 0.132624 -0.561502 0.343889
v 0.491616 -0.012874 0.453988
v 0.597084 0.047993 0.420982
v 0.498578 -0.024821 0.398320
v 0.612146 -0.081976 0.343889
v 0.553392 0.042260 0.479876
v 0.471155 0.008640 0.533332
v 0.401799 -0.186952 0.574515
v 0.548121 -0.155690 0.470528
v 0.419032 -0.211297 0.460418
v 0.545257 -0.301246 0.361868
v 0.519362 -0.123427 0.574515
v 0.372692 -0.118174 1.522705
v 0.419032 -0.211297 0.460418
v 0.448953 -0.304851 0.574515
v 0.401799 -0.186952 0.574515
v 0.372692 -0.118174 1.522705
v 0.475669 -0.342395 0.520146
v 0.545257 -0.301246 0.361868
v 0.347889 -0.403362 0.574515
v 0.257488 -0.364462 0.462254
v 0.230096 -0.356020 0.574515
v 0.222677 -0.338137 1.527573
v 0.388297 -0.427906 0.516001
v 0.337493 -0.492761 0.358451
v 0.491616 -0.012874 0.453988
v 0.498578 -0.024821 0.398320
v 0.533291 -0.141848 0.453355
v 0.612146 -0.081976 0.343889
v 0.509029 -0.089759 0.502387
v 0.471155 0.008640 0.533332
v 0.063522 -0.440973 0.453988
v 0.192493 -0.482646 0.453355
v 0.075465 -0.447933 0.398320
v 0.132624 -0.561502 0.343889
v 0.140405 -0.458387 0.502389
v 0.042007 -0.420512 0.533332
vn -0.1311 -0.0351 -0.9907
vn -0.1310 -0.0351 -0.9908
vn -0.1312 -0.0351 -0.9907
vn -0.5379 -0.4682 0.7010
vn -0.4355 -0.8116 0.3894
vn -0.5006 -0.6257 0.5983
vn -0.5561 -0.2811 0.7822
vn -0.3143 -0.9474 0.0605
vn -0.2089 -0.9641 -0.1639
vn 0.6251 0.5008 0.5987
vn 0.8164 0.4332 0.3819
vn 0.4648 0.5385 0.7028
vn 0.2811 0.5561 0.7822
vn 0.9474 0.3143 0.0605
vn 0.9641 0.2089 -0.1639
vn -0.4202 -0.8750 0.2406
vn -0.3958 -0.8987 0.1887
vn -0.4197 -0.8984 0.1294
vn -0.3695 -0.9193 0.1355
vn -0.3604 -0.9232 -0.1335
vn -0.2906 -0.8922 -0.3459
vn -0.2483 -0.8194 -0.5167
vn -0.2555 -0.8321 -0.4922
vn -0.3547 -0.9296 0.1005
vn -0.2152 -0.7571 -0.6169
vn -0.3529 -0.9328 0.0731
vn -0.3309 -0.9166 -0.2243
vn -0.2962 -0.8668 -0.4012
vn -0.2022 -0.6516 -0.7311
vn -0.1885 -0.6292 -0.7540
vn -0.2924 -0.7885 -0.5412
vn -0.2924 -0.7885 -0.5411
vn 0.8993 0.4021 0.1721
vn 0.9243 0.3788 0.0455
vn 0.9109 0.3827 0.1540
vn 0.9193 0.3677 0.1402
vn 0.9357 0.3065 -0.1747
vn 0.9094 0.2372 -0.3417
vn 0.3610 -0.8273 0.4303
vn 0.3794 -0.7720 0.5099
vn 0.4233 -0.8226 0.3797
vn 0.4651 -0.8608 0.2069
vn 0.3862 -0.8851 0.2599
vn 0.3990 -0.9148 -0.0624
vn 0.8442 -0.4210 0.3317
vn 0.8050 -0.3914 0.4459
vn 0.8825 -0.4220 0.2077
vn 0.8790 -0.4538 0.1465
vn 0.8520 -0.4027 0.3346
vn 0.8926 -0.4378 -0.1076
vn 0.4737 -0.7810 0.4069
vn 0.1287 -0.5202 0.8443
vn 0.1103 -0.5063 0.8553
vn -0.0966 -0.3323 0.9382
vn 0.5195 -0.8032 0.2914
vn 0.5959 -0.8030 -0.0100
vn 0.7878 -0.4860 0.3785
vn 0.5088 -0.1135 0.8534
vn 0.8010 -0.5136 0.3076
vn 0.8030 -0.5959 -0.0100
vn 0.5184 -0.1263 0.8458
vn 0.3322 0.0966 0.9382
vn 0.3919 -0.7953 -0.4626
vn 0.4120 -0.9086 0.0691
vn 0.4113 -0.9083 0.0764
vn 0.3745 -0.9174 -0.1345
vn 0.4014 -0.8180 -0.4120
vn 0.3642 -0.7312 -0.5768
vn 0.3779 -0.9244 0.0513
vn 0.2463 -0.7912 -0.5598
vn 0.2356 -0.7962 -0.5572
vn 0.1512 -0.8319 -0.5340
vn 0.1512 -0.8318 -0.5341
vn 0.8328 0.3004 -0.4649
vn 0.9222 0.3857 -0.0289
vn 0.9221 0.3828 -0.0571
vn 0.8803 0.3909 0.2689
vn 0.8120 0.2863 -0.5086
vn 0.7400 0.2413 -0.6278
vn 0.8724 0.3884 0.2968
vn 0.8724 0.4831 -0.0743
vn 0.8824 0.4703 0.0160
vn 0.6461 0.4685 -0.6026
vn -0.7071 0.7071 -0.0000
vn -0.7071 0.7071 -0.0001
vn -0.7071 0.7071 0.0001
vn 0.8601 -0.3216 -0.3959
vn 0.8303 -0.3145 -0.4602
vn 0.9383 -0.3458 -0.0032
vn 0.7592 -0.2957 -0.5798
vn 0.9356 -0.3458 0.0711
vn 0.9133 -0.3288 0.2404
vn 0.9187 -0.3288 0.2187
vn 0.9397 -0.3316 -0.0838
vn 0.8923 -0.3225 -0.3158
vn 0.7472 -0.2808 -0.6024
vn 0.7471 -0.2809 -0.6025
vn -0.8865 0.4449 -0.1274
vn -0.7734 0.3406 -0.5346
vn -0.8839 0.4400 -0.1585
vn -0.8885 0.4587 -0.0155
vn -0.8232 0.3788 -0.4229
vn -0.6109 0.2316 -0.7571
vn -0.7809 0.5426 -0.3094
vn -0.7124 0.4121 -0.5680
vn -0.7818 0.5428 -0.3068
vn -0.7672 0.5393 -0.3471
vn -0.7338 0.4419 -0.5161
vn -0.4890 0.1644 -0.8566
vn -0.5425 0.7803 -0.3111
vn -0.3945 0.6991 -0.5963
vn -0.4522 0.7407 -0.4969
vn -0.1644 0.4891 -0.8566
vn -0.5429 0.7824 -0.3051
vn -0.5393 0.7672 -0.3471
vn -0.4485 0.8769 -0.1729
vn -0.3039 0.7488 -0.5891
vn -0.3630 0.8209 -0.4409
vn -0.1925 0.5895 -0.7845
vn -0.4372 0.8745 -0.2101
vn -0.4739 0.8771 -0.0782
vn -0.8831 -0.4352 -0.1754
vn -0.9174 -0.3928 -0.0633
vn -0.9232 -0.3827 -0.0340
vn -0.9285 -0.3714 -0.0016
vn -0.8012 -0.4909 -0.3421
vn -0.7242 -0.5195 -0.4535
vn 0.3978 0.9174 -0.0139
vn 0.4482 0.8859 -0.1193
vn 0.3871 0.9219 -0.0142
vn 0.3729 0.9278 -0.0145
vn 0.5069 0.7996 -0.3222
vn 0.5336 0.7076 -0.4633
vn -0.9420 -0.3091 -0.1308
vn -0.8994 -0.3642 -0.2418
vn -0.7297 -0.4511 -0.5139
vn -0.5640 -0.4825 -0.6702
vn -0.9459 -0.3067 -0.1063
vn -0.9372 -0.3113 -0.1573
vn 0.3090 0.9420 -0.1313
vn 0.4513 0.7291 -0.5145
vn 0.3646 0.8989 -0.2429
vn 0.4825 0.5640 -0.6702
vn 0.3067 0.9459 -0.1059
vn 0.3113 0.9372 -0.1573
vt 0.000000 0.000000
s 1
f 1/1/1 2/1/2 3/1/2
f 2/1/2 1/1/1 4/1/3
f 2/1/2 4/1/3 5/1/3
f 6/1/4 7/1/5 8/1/6
f 6/1/4 8/1/6 9/1/7
f 7/1/5 10/1/8 8/1/6
f 10/1/8 7/1/5 11/1/9
f 12/1/10 13/1/11 14/1/12
f 14/1/12 15/1/13 12/1/10
f 13/1/11 12/1/10 16/1/14
f 16/1/14 17/1/15 13/1/11
f 18/1/16 19/1/17 20/1/18
f 19/1/17 18/1/16 21/1/19
f 20/1/18 22/1/20 18/1/16
f 22/1/20 20/1/18 23/1/21
f 24/1/22 25/1/23 26/1/24
f 24/1/22 27/1/25 25/1/23
f 27/1/25 24/1/22 28/1/25
f 25/1/23 29/1/26 26/1/24
f 30/1/27 26/1/24 29/1/26
f 26/1/24 30/1/27 31/1/28
f 32/1/29 31/1/28 30/1/27
f 31/1/28 32/1/29 33/1/30
f 32/1/29 34/1/31 33/1/30
f 34/1/31 32/1/29 35/1/32
f 36/1/33 37/1/34 38/1/35
f 38/1/35 39/1/36 36/1/33
f 40/1/37 37/1/34 36/1/33
f 40/1/37 41/1/38 37/1/34
f 42/1/39 43/1/40 44/1/41
f 43/1/40 45/1/42 44/1/41
f 43/1/40 42/1/39 46/1/43
f 42/1/39 47/1/44 46/1/43
f 48/1/45 49/1/46 50/1/47
f 49/1/46 48/1/45 51/1/48
f 48/1/45 50/1/47 52/1/49
f 52/1/49 50/1/47 53/1/50
f 54/1/51 55/1/52 56/1/53
f 55/1/52 57/1/54 56/1/53
f 55/1/52 54/1/51 58/1/55
f 54/1/51 59/1/56 58/1/55
f 60/1/57 61/1/58 62/1/59
f 60/1/57 62/1/59 63/1/60
f 61/1/58 60/1/57 64/1/61
f 61/1/58 64/1/61 65/1/62
f 66/1/63 67/1/64 68/1/65
f 67/1/64 69/1/66 68/1/65
f 67/1/64 66/1/63 70/1/67
f 71/1/68 70/1/67 66/1/63
f 71/1/68 72/1/68 70/1/67
f 69/1/66 67/1/64 73/1/69
f 74/1/70 69/1/66 73/1/69
f 69/1/66 74/1/70 75/1/71
f 75/1/71 74/1/70 76/1/72
f 75/1/71 76/1/72 77/1/73
f 78/1/74 79/1/75 80/1/76
f 79/1/75 81/1/77 80/1/76
f 79/1/75 78/1/74 82/1/78
f 83/1/79 82/1/78 78/1/74
f 83/1/79 84/1/79 82/1/78
f 81/1/77 79/1/75 85/1/80
f 85/1/80 86/1/81 81/1/77
f 86/1/81 85/1/80 87/1/82
f 88/1/83 86/1/81 87/1/82
f 86/1/81 88/1/83 89/1/83
f 90/1/84 91/1/84 92/1/84
f 90/1/84 92/1/84 93/1/85
f 91/1/84 94/1/84 92/1/84
f 94/1/84 91/1/84 95/1/84
f 95/1/84 91/1/84 96/1/84
f 91/1/84 90/1/84 97/1/84
f 90/1/84 98/1/86 97/1/84
f 98/1/86 90/1/84 99/1/84
f 99/1/84 100/1/86 98/1/86
f 101/1/84 100/1/86 99/1/84
f 102/1/87 103/1/88 104/1/89
f 102/1/87 105/1/90 103/1/88
f 105/1/90 102/1/87 106/1/90
f 103/1/88 107/1/91 104/1/89
f 107/1/91 108/1/92 104/1/89
f 108/1/92 107/1/91 109/1/93
f 110/1/94 108/1/92 109/1/93
f 108/1/92 110/1/94 111/1/95
f 110/1/94 112/1/96 111/1/95
f 112/1/96 110/1/94 113/1/97
f 114/1/98 115/1/99 116/1/100
f 114/1/98 116/1/100 117/1/101
f 115/1/99 114/1/98 118/1/102
f 115/1/99 118/1/102 119/1/103
f 120/1/104 121/1/105 122/1/106
f 120/1/104 122/1/106 123/1/107
f 121/1/105 120/1/104 124/1/108
f 121/1/105 124/1/108 125/1/109
f 126/1/110 127/1/111 128/1/112
f 127/1/111 129/1/113 128/1/112
f 127/1/111 126/1/110 130/1/114
f 126/1/110 131/1/115 130/1/114
f 132/1/116 133/1/117 134/1/118
f 133/1/117 135/1/119 134/1/118
f 133/1/117 132/1/116 136/1/120
f 132/1/116 137/1/121 136/1/120
f 138/1/122 139/1/123 140/1/124
f 139/1/123 141/1/125 140/1/124
f 139/1/123 138/1/122 142/1/126
f 138/1/122 143/1/127 142/1/126
f 144/1/128 145/1/129 146/1/130
f 144/1/128 146/1/130 147/1/131
f 145/1/129 144/1/128 148/1/132
f 145/1/129 148/1/132 149/1/133
f 150/1/134 151/1/135 152/1/136
f 151/1/135 153/1/137 152/1/136
f 152/1/136 154/1/138 150/1/134
f 154/1/138 155/1/139 150/1/134
f 156/1/140 157/1/141 158/1/142
f 158/1/142 157/1/141 159/1/143
f 157/1/141 156/1/140 160/1/144
f 160/1/144 156/1/140 161/1/145
o 118000300472017
v -0.062446 -0.504353 -0.050321
v 0.056299 -0.650544 -0.047481
v -0.120392 -0.551958 0.029583
v 0.017639 -0.722124 0.048569
v 0.096559 -0.579375 -0.162872
v 0.038543 -0.632788 0.226895
v -0.002522 -0.457590 -0.152016
v -0.078468 -0.488332 0.197262
v 0.166090 -0.437080 -0.273960
v 0.105071 -0.362374 -0.247640
v 0.263137 -0.212492 -0.310870
v -0.110704 -0.509370 0.283779
v 0.015876 -0.665764 0.324119
v -0.063255 -0.446364 0.403992
v 0.041388 -0.575910 0.454556
v 0.716407 0.034769 0.324119
v 0.497009 0.113900 0.403992
v 0.626555 0.009258 0.454556
v 0.560015 0.161349 0.283779
v 0.683433 0.012101 0.226895
v 0.538978 0.129113 0.197262
v 0.602602 0.171037 0.029583
v 0.772769 0.033006 0.048568
v 0.701188 -0.005655 -0.047481
v 0.554999 0.113092 -0.050321
v 0.630019 -0.045915 -0.162872
v 0.508235 0.053167 -0.152016
v 0.487726 -0.115444 -0.273960
v 0.413019 -0.054425 -0.247640
v 0.263137 -0.212492 -0.310870
v -0.063255 -0.446364 0.403992
v 0.522937 -0.192160 0.510181
v 0.497009 0.113900 0.403992
v 0.626555 0.009258 0.454556
v 0.242805 -0.472293 0.510181
v 0.444919 -0.394273 0.600126
v 0.041388 -0.575910 0.454556
v -0.078468 -0.488332 0.197262
v 0.538978 0.129113 0.197262
v 0.105071 -0.362374 -0.247640
v -0.002522 -0.457590 -0.152016
v -0.062446 -0.504353 -0.050321
v -0.120392 -0.551958 0.029583
v 0.413019 -0.054425 -0.247640
v 0.263137 -0.212492 -0.310870
v 0.508235 0.053167 -0.152016
v 0.554999 0.113092 -0.050321
v 0.602602 0.171037 0.029583
v -0.063255 -0.446364 0.403992
v -0.110704 -0.509370 0.283779
v 0.497009 0.113900 0.403992
v 0.560015 0.161349 0.283779
v 0.087688 -0.562346 0.087123
v 0.064264 -0.551557 0.202584
v 0.112763 -0.600056 0.208321
v 0.078170 -0.541569 0.218328
v 0.136187 -0.610845 0.092859
v 0.126669 -0.590068 0.224065
v 0.141939 -0.607823 0.011421
v 0.161353 -0.520190 0.289871
v 0.093441 -0.559325 0.005685
v 0.209853 -0.568689 0.295609
v 0.159448 -0.526793 -0.040041
v 0.214759 -0.490192 0.271518
v 0.207948 -0.575292 -0.034304
v 0.263259 -0.538691 0.277254
v 0.195504 -0.491896 -0.074322
v 0.292615 -0.453254 0.246768
v 0.244004 -0.540395 -0.068586
v 0.341115 -0.501753 0.252506
v 0.223722 -0.494900 -0.034455
v 0.333417 -0.432899 0.225622
v 0.272221 -0.543400 -0.028719
v 0.381916 -0.481399 0.231358
v 0.231552 -0.491114 -0.016701
v 0.378215 -0.421102 0.206885
v 0.280051 -0.539613 -0.010965
v 0.426714 -0.469602 0.212621
v 0.238810 -0.488815 -0.001994
v 0.408290 -0.419550 0.158648
v 0.287309 -0.537314 0.003742
v 0.456789 -0.468050 0.164384
v 0.339610 -0.454695 0.095581
v 0.402337 -0.495339 0.117021
v 0.388109 -0.503194 0.101319
v 0.353839 -0.446841 0.111285
v 0.510387 -0.459742 -0.031910
v 0.536940 -0.230917 -0.133517
v 0.589699 -0.230331 -0.027958
v 0.472188 -0.421542 -0.149991
v 0.392565 -0.341920 -0.266194
v 0.430326 -0.225707 -0.236487
v 0.263137 -0.212492 -0.310870
v 0.587923 -0.236630 0.003738
v 0.590259 -0.229406 -0.010965
v 0.553839 -0.337464 0.101319
v 0.510798 -0.460153 0.106376
v 0.546095 -0.351804 0.117035
v 0.518877 -0.406325 0.164406
v 0.492632 -0.441987 0.242466
v 0.520423 -0.376246 0.212642
v 0.532044 -0.331271 0.231358
v 0.495103 -0.444458 0.257219
v 0.527002 -0.405540 0.329308
v 0.530080 -0.400161 0.333242
v 0.552948 -0.291019 0.252570
v 0.597710 -0.211706 0.308070
v 0.589337 -0.212613 0.277254
v 0.535335 -0.353484 0.355785
v 0.522937 -0.192160 0.510181
v 0.500143 -0.371918 0.439598
v 0.472307 -0.421662 0.489639
v 0.444919 -0.394273 0.600126
v 0.242805 -0.472293 0.510181
v 0.405691 -0.486251 0.355970
v 0.425638 -0.452575 0.439962
v 0.472307 -0.421662 0.489639
v 0.444919 -0.394273 0.600126
v 0.262350 -0.547065 0.308070
v 0.450806 -0.479435 0.333242
v 0.341115 -0.501753 0.252506
v 0.263259 -0.538691 0.277254
v 0.381916 -0.481399 0.231358
v 0.456233 -0.476404 0.329313
v 0.495103 -0.444458 0.257219
v 0.492632 -0.441987 0.242466
v 0.426714 -0.469602 0.212621
v 0.456789 -0.468050 0.164384
v 0.510798 -0.460153 0.106376
v 0.402337 -0.495339 0.117021
v 0.388109 -0.503194 0.101319
v 0.510387 -0.459742 -0.031910
v 0.287309 -0.537314 0.003742
v 0.280977 -0.539055 -0.027958
v 0.280051 -0.539613 -0.010965
v 0.281562 -0.486295 -0.133517
v 0.472188 -0.421542 -0.149991
v 0.392565 -0.341920 -0.266194
v 0.276352 -0.379681 -0.236487
v 0.263137 -0.212492 -0.310870
v 0.626555 0.009258 0.454556
v 0.522937 -0.192160 0.510181
v 0.597710 -0.211706 0.308070
v 0.716407 0.034769 0.324119
v 0.619027 -0.158902 0.295572
v 0.589337 -0.212613 0.277254
v 0.640714 -0.076023 0.224065
v 0.683433 0.012101 0.226895
v 0.650588 -0.062004 0.208307
v 0.661491 -0.085542 0.092859
v 0.772769 0.033006 0.048568
v 0.658806 -0.091634 0.011462
v 0.701188 -0.005655 -0.047481
v 0.625938 -0.157302 -0.034304
v 0.630019 -0.045915 -0.162872
v 0.589972 -0.192290 -0.068713
v 0.536940 -0.230917 -0.133517
v 0.487726 -0.115444 -0.273960
v 0.430326 -0.225707 -0.236487
v 0.263137 -0.212492 -0.310870
v 0.589699 -0.230331 -0.027958
v 0.594044 -0.221577 -0.028719
v 0.590259 -0.229406 -0.010965
v 0.041388 -0.575910 0.454556
v 0.262350 -0.547065 0.308070
v 0.242805 -0.472293 0.510181
v 0.015876 -0.665764 0.324119
v 0.209853 -0.568689 0.295609
v 0.263259 -0.538691 0.277254
v 0.126669 -0.590068 0.224065
v 0.038543 -0.632788 0.226895
v 0.112763 -0.600056 0.208321
v 0.136187 -0.610845 0.092859
v 0.017639 -0.722124 0.048569
v 0.141939 -0.607823 0.011421
v 0.056299 -0.650544 -0.047481
v 0.207948 -0.575292 -0.034304
v 0.096559 -0.579375 -0.162872
v 0.244004 -0.540395 -0.068586
v 0.281562 -0.486295 -0.133517
v 0.166090 -0.437080 -0.273960
v 0.276352 -0.379681 -0.236487
v 0.263137 -0.212492 -0.310870
v 0.280977 -0.539055 -0.027958
v 0.272221 -0.543400 -0.028719
v 0.280051 -0.539613 -0.010965
v 0.465519 -0.344057 0.322036
v 0.495103 -0.444458 0.257219
v 0.527002 -0.405540 0.329308
v 0.433621 -0.382975 0.249947
v 0.530080 -0.400161 0.333242
v 0.468596 -0.338677 0.325968
v 0.535335 -0.353484 0.355785
v 0.473850 -0.292000 0.348512
v 0.500143 -0.371918 0.439598
v 0.438659 -0.310434 0.432326
v 0.410824 -0.360178 0.482365
v 0.472307 -0.421662 0.489639
v 0.425638 -0.452575 0.439962
v 0.364154 -0.391091 0.432689
v 0.344207 -0.424767 0.348698
v 0.405691 -0.486251 0.355970
v 0.389323 -0.417951 0.325968
v 0.450806 -0.479435 0.333242
v 0.394749 -0.414920 0.322040
v 0.456233 -0.476404 0.329313
v 0.495103 -0.444458 0.257219
v 0.433621 -0.382975 0.249947
v 0.540837 -0.164114 0.271518
v 0.570527 -0.110402 0.289835
v 0.619027 -0.158902 0.295572
v 0.640714 -0.076023 0.224065
v 0.589337 -0.212613 0.277254
v 0.592214 -0.027524 0.218328
v 0.504450 -0.242520 0.246834
v 0.650588 -0.062004 0.208307
v 0.552948 -0.291019 0.252570
v 0.602089 -0.013505 0.202571
v 0.483545 -0.282772 0.225622
v 0.612991 -0.037042 0.087123
v 0.532044 -0.331271 0.231358
v 0.661491 -0.085542 0.092859
v 0.471923 -0.327747 0.206906
v 0.658806 -0.091634 0.011462
v 0.520423 -0.376246 0.212642
v 0.610307 -0.043134 0.005724
v 0.470379 -0.357827 0.158670
v 0.577438 -0.108803 -0.040041
v 0.518877 -0.406325 0.164406
v 0.625938 -0.157302 -0.034304
v 0.546095 -0.351804 0.117035
v 0.589972 -0.192290 -0.068713
v 0.497596 -0.303305 0.111297
v 0.541472 -0.143790 -0.074449
v 0.553839 -0.337464 0.101319
v 0.545545 -0.173078 -0.034455
v 0.505340 -0.288965 0.095581
v 0.594044 -0.221577 -0.028719
v 0.587923 -0.236630 0.003738
v 0.541759 -0.180907 -0.016702
v 0.539425 -0.188131 -0.001998
v 0.590259 -0.229406 -0.010965
vn -0.6062 -0.5063 -0.6133
vn -0.6001 -0.5061 -0.6194
vn -0.7685 -0.6165 -0.1713
vn -0.7745 -0.6178 -0.1359
vn -0.6067 -0.4186 -0.6758
vn -0.7668 -0.6415 -0.0212
vn -0.6002 -0.4049 -0.6898
vn -0.7704 -0.6374 0.0145
vn -0.4827 -0.1690 -0.8593
vn -0.4708 -0.1455 -0.8701
vn -0.3822 0.0133 -0.9240
vn -0.7910 -0.6111 0.0294
vn -0.7960 -0.5992 0.0862
vn -0.7472 -0.4481 0.4908
vn 0.5992 0.7960 0.0862
vn 0.4481 0.7472 0.4908
vn 0.6111 0.7910 0.0294
vn 0.6415 0.7668 -0.0212
vn 0.6374 0.7704 0.0145
vn 0.6165 0.7685 -0.1713
vn 0.6178 0.7745 -0.1359
vn 0.5061 0.6001 -0.6194
vn 0.5063 0.6062 -0.6133
vn 0.4186 0.6067 -0.6758
vn 0.4049 0.6002 -0.6898
vn 0.1690 0.4827 -0.8593
vn 0.1455 0.4708 -0.8701
vn -0.0133 0.3822 -0.9240
vn -0.3054 0.3054 0.9019
vn -0.3053 0.3054 0.9020
vn -0.3052 0.3054 0.9020
vn -0.3055 0.3054 0.9019
vn -0.3054 0.3052 0.9020
vn -0.7042 0.7042 -0.0911
vn -0.7042 0.7041 -0.0911
vn 0.7006 0.7095 0.0758
vn 0.6804 0.6376 -0.3613
vn 0.6760 0.6309 -0.3808
vn 0.5208 0.4338 -0.7352
vn 0.5706 0.6325 0.5238
vn 0.2815 0.1697 -0.9444
vn 0.5905 0.6475 0.4817
vn 0.1065 -0.0111 -0.9942
vn 0.3498 0.4472 0.8232
vn -0.1678 -0.2796 -0.9453
vn -0.0814 0.0364 0.9960
vn -0.2112 -0.3204 -0.9234
vn -0.3352 -0.2271 0.9144
vn -0.2296 -0.3376 -0.9128
vn -0.6649 -0.6147 0.4243
vn -0.2714 -0.3762 -0.8859
vn -0.2715 -0.3762 -0.8859
vn -0.4290 -0.5166 -0.7410
vn -0.5130 -0.5870 -0.6263
vn -0.6240 -0.5594 0.5455
vn -0.6991 -0.6694 0.2512
vn -0.5961 -0.5241 0.6083
vn -0.7011 -0.6733 0.2349
vn -0.5366 -0.4523 0.7124
vn -0.5064 -0.4172 0.7546
vn -0.5159 -0.4281 0.7420
vn 0.9291 -0.3115 -0.1995
vn 0.8216 -0.2239 -0.5243
vn 0.9301 -0.3122 -0.1937
vn 0.8186 -0.2210 -0.5301
vn 0.6104 -0.0423 -0.7910
vn 0.6168 -0.0474 -0.7857
vn 0.4110 0.0981 -0.9063
vn 0.9445 -0.3285 -0.0071
vn 0.9444 -0.3271 0.0349
vn 0.9422 -0.3250 0.0813
vn 0.9326 -0.3191 0.1686
vn 0.9326 -0.3191 0.1685
vn 0.9384 -0.3432 -0.0399
vn 0.9231 -0.3499 -0.1593
vn 0.9094 -0.3519 -0.2217
vn 0.9342 -0.3394 -0.1102
vn 0.9479 -0.3165 0.0372
vn 0.9094 -0.3520 -0.2217
vn 0.9125 -0.2506 0.3234
vn 0.9125 -0.2505 0.3235
vn 0.2431 -0.9136 0.3260
vn 0.3125 -0.9492 0.0371
vn 0.3370 -0.9349 -0.1116
vn 0.3507 -0.9093 -0.2242
vn 0.3507 -0.9092 -0.2242
vn 0.3490 -0.9231 -0.1616
vn 0.3417 -0.9389 -0.0413
vn 0.3170 -0.9333 0.1686
vn 0.3240 -0.9425 0.0813
vn 0.3267 -0.9445 0.0352
vn 0.3115 -0.9290 -0.1996
vn 0.3285 -0.9445 -0.0072
vn 0.3123 -0.9300 -0.1937
vn 0.2239 -0.8215 -0.5243
vn 0.2210 -0.8186 -0.5301
vn 0.0422 -0.6104 -0.7910
vn 0.0474 -0.6168 -0.7857
vn -0.0981 -0.4110 -0.9063
vn 0.8326 -0.3775 0.4054
vn 0.9044 -0.4181 0.0847
vn 0.9024 -0.4166 0.1100
vn 0.8846 -0.4157 -0.2116
vn 0.8828 -0.4607 -0.0915
vn 0.8679 -0.4962 0.0233
vn 0.7921 -0.5478 0.2692
vn 0.8075 -0.5809 0.1025
vn 0.8075 -0.5875 0.0522
vn 0.7924 -0.5985 -0.1177
vn 0.8078 -0.5500 -0.2121
vn 0.8139 -0.4862 -0.3182
vn 0.7616 -0.4601 -0.4564
vn 0.8122 -0.4506 -0.3706
vn 0.7287 -0.4635 -0.5041
vn 0.5612 -0.4691 -0.6819
vn 0.4820 -0.4676 -0.7410
vn 0.3320 -0.4539 -0.8269
vn 0.8678 -0.4559 -0.1977
vn 0.8528 -0.4558 -0.2549
vn 0.8955 -0.4450 -0.0053
vn 0.3775 -0.8326 0.4054
vn 0.4178 -0.9045 0.0856
vn 0.4163 -0.9025 0.1108
vn 0.4151 -0.8852 -0.2098
vn 0.4153 -0.8851 -0.2099
vn 0.4602 -0.8832 -0.0900
vn 0.4957 -0.8682 0.0242
vn 0.5473 -0.7925 0.2692
vn 0.5812 -0.8072 0.1030
vn 0.5881 -0.8071 0.0527
vn 0.5999 -0.7915 -0.1167
vn 0.5510 -0.8071 -0.2122
vn 0.4862 -0.8133 -0.3196
vn 0.4600 -0.7610 -0.4575
vn 0.4504 -0.8115 -0.3723
vn 0.4634 -0.7283 -0.5048
vn 0.4691 -0.5612 -0.6819
vn 0.4676 -0.4820 -0.7410
vn 0.4539 -0.3320 -0.8269
vn 0.4559 -0.8676 -0.1985
vn 0.4558 -0.8525 -0.2559
vn 0.4449 -0.8956 -0.0052
vn -0.5348 -0.4502 0.7151
vn -0.6147 -0.5476 0.5676
vn -0.5431 -0.4600 0.7025
vn -0.4457 -0.3481 0.8247
vn -0.4457 -0.3481 0.8248
vn -0.6697 -0.6217 0.4062
vn -0.7094 -0.6975 0.1010
vn -0.5275 -0.5988 -0.6026
vn -0.5416 -0.6100 -0.5785
vn 0.0491 -0.0687 -0.9964
vn 0.0719 -0.0460 -0.9964
vn 0.5995 0.5284 -0.6012
vn 0.6090 0.5403 -0.5807
vn 0.6949 0.7091 0.1201
vn 0.6260 0.6727 0.3945
vn 0.3481 0.4457 0.8247
vn 0.4499 0.5345 0.7154
vn 0.4603 0.5433 0.7020
vn 0.5476 0.6147 0.5677
vn 0.2796 0.1678 -0.9453
vn -0.1703 -0.2820 -0.9442
vn 0.0112 -0.1064 -0.9943
vn -0.4338 -0.5208 -0.7352
vn 0.3206 0.2114 -0.9233
vn -0.6307 -0.6758 -0.3815
vn 0.3376 0.2296 -0.9129
vn -0.6379 -0.6805 -0.3605
vn 0.3762 0.2714 -0.8859
vn -0.7095 -0.7006 0.0758
vn 0.5164 0.4288 -0.7412
vn -0.6325 -0.5705 0.5239
vn 0.5873 0.5133 -0.6258
vn -0.6475 -0.5905 0.4818
vn 0.6694 0.6991 0.2514
vn -0.4472 -0.3498 0.8232
vn 0.6734 0.7011 0.2345
vn 0.4171 0.5064 0.7547
vn 0.2259 0.3341 0.9151
vn 0.4281 0.5157 0.7422
vn -0.0396 0.0782 0.9962
vn 0.4523 0.5366 0.7124
vn 0.6147 0.6649 0.4243
vn 0.5242 0.5961 0.6082
vn 0.5594 0.6239 0.5457
vt 0.000000 0.000000
s 1
f 162/2/146 163/2/147 164/2/148
f 165/2/149 164/2/148 163/2/147
f 162/2/146 166/2/150 163/2/147
f 167/2/151 164/2/148 165/2/149
f 166/2/150 162/2/146 168/2/152
f 164/2/148 167/2/151 169/2/153
f 168/2/152 170/2/154 166/2/150
f 170/2/154 168/2/152 171/2/155
f 170/2/154 171/2/155 172/2/156
f 167/2/151 173/2/157 169/2/153
f 173/2/157 167/2/151 174/2/158
f 174/2/158 175/2/159 173/2/157
f 175/2/159 174/2/158 176/2/159
f 177/2/160 178/2/161 179/2/161
f 178/2/161 177/2/160 180/2/162
f 180/2/162 177/2/160 181/2/163
f 180/2/162 181/2/163 182/2/164
f 182/2/164 181/2/163 183/2/165
f 181/2/163 184/2/166 183/2/165
f 185/2/167 183/2/165 184/2/166
f 183/2/165 185/2/167 186/2/168
f 185/2/167 187/2/169 186/2/168
f 186/2/168 187/2/169 188/2/170
f 188/2/170 187/2/169 189/2/171
f 190/2/172 188/2/170 189/2/171
f 190/2/172 189/2/171 191/2/173
f 192/2/174 193/2/174 194/2/175
f 194/2/175 193/2/174 195/2/176
f 196/2/174 193/2/174 192/2/174
f 193/2/174 196/2/174 197/2/177
f 192/2/174 198/2/178 196/2/174
f 199/2/179 200/2/179 201/2/179
f 202/2/179 199/2/179 201/2/179
f 199/2/179 202/2/179 203/2/179
f 203/2/179 204/2/179 199/2/179
f 201/2/179 205/2/179 206/2/179
f 201/2/179 200/2/179 205/2/179
f 205/2/179 200/2/179 207/2/179
f 207/2/179 200/2/179 208/2/179
f 200/2/179 209/2/179 208/2/179
f 200/2/179 199/2/179 210/2/179
f 199/2/179 211/2/179 210/2/179
f 200/2/179 210/2/179 212/2/179
f 212/2/179 213/2/180 200/2/179
f 214/2/181 215/2/182 216/2/183
f 217/2/184 216/2/183 215/2/182
f 216/2/183 218/2/181 214/2/181
f 216/2/183 217/2/184 219/2/184
f 220/2/185 214/2/181 218/2/181
f 221/2/186 219/2/184 217/2/184
f 214/2/181 220/2/185 222/2/187
f 219/2/184 221/2/186 223/2/188
f 220/2/185 224/2/189 222/2/187
f 225/2/190 223/2/188 221/2/186
f 226/2/189 224/2/189 220/2/185
f 223/2/188 225/2/190 227/2/190
f 226/2/189 228/2/191 224/2/189
f 229/2/192 227/2/190 225/2/190
f 230/2/193 228/2/191 226/2/189
f 227/2/190 229/2/192 231/2/194
f 230/2/193 232/2/195 228/2/191
f 233/2/196 231/2/194 229/2/192
f 234/2/195 232/2/195 230/2/193
f 231/2/194 233/2/196 235/2/197
f 234/2/195 236/2/195 232/2/195
f 237/2/198 235/2/197 233/2/196
f 236/2/195 234/2/195 238/2/195
f 235/2/197 237/2/198 239/2/199
f 238/2/195 240/2/200 236/2/195
f 241/2/201 239/2/199 237/2/198
f 240/2/200 238/2/195 242/2/202
f 239/2/199 241/2/201 243/2/203
f 242/2/202 244/2/204 240/2/200
f 243/2/203 241/2/201 245/2/205
f 244/2/204 242/2/202 246/2/204
f 245/2/205 241/2/201 247/2/206
f 246/2/204 247/2/206 244/2/204
f 247/2/206 246/2/204 245/2/205
f 248/2/207 249/2/208 250/2/209
f 249/2/208 248/2/207 251/2/210
f 252/2/211 249/2/208 251/2/210
f 249/2/208 252/2/211 253/2/212
f 253/2/212 252/2/211 254/2/213
f 250/2/209 255/2/214 248/2/207
f 255/2/214 250/2/209 256/2/214
f 248/2/207 255/2/214 257/2/215
f 258/2/216 248/2/207 257/2/215
f 258/2/216 257/2/215 259/2/217
f 258/2/216 259/2/217 260/2/218
f 260/2/218 261/2/219 258/2/216
f 261/2/219 260/2/218 262/2/217
f 263/2/220 261/2/219 262/2/217
f 263/2/220 264/2/221 261/2/219
f 264/2/221 263/2/220 265/2/221
f 265/2/221 263/2/220 266/2/222
f 266/2/222 263/2/220 267/2/221
f 267/2/221 268/2/223 266/2/222
f 268/2/223 267/2/221 269/2/224
f 266/2/222 268/2/223 270/2/225
f 271/2/226 270/2/225 268/2/223
f 270/2/225 271/2/226 272/2/225
f 272/2/225 271/2/226 273/2/225
f 271/2/226 274/2/225 273/2/225
f 275/2/227 276/2/227 277/2/227
f 278/2/227 275/2/227 277/2/227
f 275/2/227 278/2/227 279/2/227
f 276/2/227 275/2/227 280/2/228
f 280/2/228 281/2/229 276/2/227
f 280/2/228 282/2/230 281/2/229
f 282/2/230 280/2/228 283/2/231
f 284/2/232 281/2/229 282/2/230
f 281/2/229 284/2/232 285/2/230
f 284/2/232 286/2/230 285/2/230
f 286/2/230 284/2/232 287/2/233
f 287/2/233 284/2/232 288/2/234
f 289/2/234 287/2/233 288/2/234
f 287/2/233 289/2/234 290/2/235
f 290/2/235 289/2/234 291/2/234
f 290/2/235 291/2/234 292/2/236
f 292/2/236 293/2/237 290/2/235
f 294/2/238 293/2/237 292/2/236
f 293/2/237 294/2/238 295/2/239
f 295/2/239 294/2/238 296/2/238
f 295/2/239 297/2/240 293/2/237
f 293/2/237 297/2/240 298/2/241
f 297/2/240 299/2/242 298/2/241
f 299/2/242 297/2/240 300/2/243
f 299/2/242 300/2/243 301/2/244
f 302/2/245 303/2/245 304/2/246
f 304/2/246 305/2/247 302/2/245
f 305/2/247 304/2/246 306/2/248
f 307/2/248 306/2/248 304/2/246
f 308/2/249 305/2/247 306/2/248
f 305/2/247 308/2/249 309/2/250
f 309/2/250 308/2/249 310/2/251
f 311/2/252 309/2/250 310/2/251
f 309/2/250 311/2/252 312/2/253
f 313/2/254 312/2/253 311/2/252
f 312/2/253 313/2/254 314/2/255
f 313/2/254 315/2/256 314/2/255
f 315/2/256 316/2/257 314/2/255
f 316/2/257 315/2/256 317/2/258
f 316/2/257 317/2/258 318/2/259
f 318/2/259 319/2/260 316/2/257
f 319/2/260 318/2/259 320/2/261
f 319/2/260 320/2/261 321/2/262
f 317/2/258 322/2/263 318/2/259
f 322/2/263 317/2/258 323/2/264
f 323/2/264 324/2/265 322/2/263
f 325/2/266 326/2/267 327/2/266
f 326/2/267 325/2/266 328/2/268
f 326/2/267 328/2/268 329/2/269
f 326/2/267 329/2/269 330/2/270
f 329/2/269 328/2/268 331/2/271
f 328/2/268 332/2/272 331/2/271
f 331/2/271 332/2/272 333/2/273
f 333/2/273 332/2/272 334/2/274
f 332/2/272 335/2/275 334/2/274
f 334/2/274 335/2/275 336/2/276
f 337/2/277 336/2/276 335/2/275
f 336/2/276 337/2/277 338/2/278
f 338/2/278 337/2/277 339/2/279
f 340/2/280 338/2/278 339/2/279
f 340/2/280 339/2/279 341/2/281
f 342/2/282 341/2/281 339/2/279
f 341/2/281 342/2/282 343/2/283
f 343/2/283 342/2/282 344/2/284
f 341/2/281 345/2/285 340/2/280
f 346/2/286 340/2/280 345/2/285
f 347/2/287 346/2/286 345/2/285
f 348/2/288 349/2/289 350/2/290
f 349/2/289 348/2/288 351/2/289
f 352/2/291 348/2/288 350/2/290
f 348/2/288 352/2/291 353/2/292
f 354/2/293 353/2/292 352/2/291
f 353/2/292 354/2/293 355/2/294
f 356/2/295 355/2/294 354/2/293
f 355/2/294 356/2/295 357/2/296
f 358/2/297 357/2/296 356/2/295
f 358/2/297 356/2/295 359/2/298
f 360/2/299 358/2/297 359/2/298
f 358/2/297 360/2/299 361/2/300
f 361/2/300 360/2/299 362/2/301
f 360/2/299 363/2/302 362/2/301
f 362/2/301 363/2/302 364/2/303
f 365/2/303 364/2/303 363/2/302
f 365/2/303 366/2/304 364/2/303
f 367/2/305 366/2/304 365/2/303
f 368/2/306 366/2/304 367/2/305
f 366/2/304 368/2/306 369/2/306
f 370/2/307 371/2/308 372/2/309
f 371/2/308 373/2/310 372/2/309
f 370/2/307 372/2/309 374/2/307
f 371/2/308 375/2/310 373/2/310
f 376/2/311 370/2/307 374/2/307
f 375/2/310 377/2/312 373/2/310
f 376/2/311 374/2/307 378/2/313
f 379/2/314 377/2/312 375/2/310
f 380/2/315 376/2/311 378/2/313
f 381/2/316 377/2/312 379/2/314
f 380/2/315 378/2/313 382/2/315
f 377/2/312 381/2/316 383/2/316
f 384/2/317 380/2/315 382/2/315
f 381/2/316 385/2/318 383/2/316
f 384/2/317 382/2/315 386/2/319
f 385/2/318 381/2/316 387/2/320
f 384/2/317 386/2/319 388/2/321
f 389/2/322 385/2/318 387/2/320
f 386/2/319 390/2/323 388/2/321
f 385/2/318 389/2/322 391/2/322
f 392/2/324 388/2/321 390/2/323
f 391/2/322 389/2/322 393/2/325
f 388/2/321 392/2/324 394/2/326
f 393/2/325 389/2/322 395/2/327
f 396/2/328 394/2/326 392/2/324
f 397/2/329 393/2/325 395/2/327
f 394/2/326 396/2/328 398/2/328
f 393/2/325 397/2/329 399/2/329
f 400/2/330 398/2/328 396/2/328
f 401/2/329 399/2/329 397/2/329
f 398/2/328 400/2/330 402/2/331
f 399/2/329 401/2/329 403/2/329
f 403/2/329 402/2/331 400/2/330
f 402/2/331 403/2/329 401/2/329
o 124210252259880
v -0.394270 0.304071 0.106895
v -0.394270 -0.304071 0.106895
v -0.394270 -0.304071 0.267805
v -0.394270 0.304071 0.267805
v -0.304071 -0.394270 0.106895
v -0.304071 -0.394270 0.267805
v 0.394270 -0.304071 0.106895
v 0.394270 0.304071 0.106895
v 0.394270 0.304071 0.267805
v 0.304071 0.394270 0.106895
v 0.394270 -0.304071 0.267805
v 0.304071 0.394270 0.267805
v 0.304071 -0.394270 0.267805
v -0.304071 0.394270 0.267805
v 0.304071 -0.394270 0.106895
v -0.304071 -0.394270 0.106895
v -0.304071 -0.394270 0.267805
v -0.304071 0.394270 0.106895
v -0.394270 0.304071 0.106895
v -0.394270 0.304071 0.267805
v 0.304071 0.394270 0.106895
v -0.243257 0.315416 0.106895
v -0.304071 0.394270 0.106895
v -0.394270 0.304071 0.106895
v -0.315416 0.243257 0.106895
v 0.243257 0.315416 0.106895
v 0.394270 0.304071 0.106895
v 0.315416 0.243257 0.106895
v 0.315416 -0.243257 0.106895
v 0.394270 -0.304071 0.106895
v 0.243257 -0.315416 0.106895
v 0.304071 -0.394270 0.106895
v -0.304071 -0.394270 0.106895
v -0.243257 -0.315416 0.106895
v 0.243257 0.315416 0.267805
v 0.315416 0.243257 0.267805
v 0.394270 0.304071 0.267805
v 0.304071 0.394270 0.267805
v 0.394270 -0.304071 0.267805
v -0.304071 0.394270 0.267805
v 0.315416 -0.243257 0.267805
v -0.243257 0.315416 0.267805
v -0.394270 0.304071 0.267805
v -0.315416 0.243257 0.267805
v 0.243257 -0.315416 0.267805
v 0.304071 -0.394270 0.267805
v -0.243257 -0.315416 0.267805
v -0.304071 -0.394270 0.267805
v -0.315416 0.243257 0.106895
v -0.315416 -0.243257 0.106895
v -0.394270 -0.304071 0.106895
v -0.394270 0.304071 0.106895
v -0.243257 -0.315416 0.106895
v -0.304071 -0.394270 0.106895
v -0.315416 -0.243257 0.267805
v -0.315416 0.243257 0.267805
v -0.394270 0.304071 0.267805
v -0.394270 -0.304071 0.267805
v -0.243257 -0.315416 0.267805
v -0.304071 -0.394270 0.267805
v -0.243257 0.315416 0.106895
v 0.243257 0.315416 0.106895
v 0.243257 0.315416 0.267805
v 0.315416 0.243257 0.267805
v -0.243257 0.315416 0.267805
v -0.315416 0.243257 0.106895
v -0.315416 0.243257 0.267805
v 0.315416 0.243257 0.106895
v 0.315416 -0.243257 0.267805
v 0.315416 -0.243257 0.106895
v 0.243257 -0.315416 0.267805
v 0.243257 -0.315416 0.106895
v -0.243257 -0.315416 0.267805
v -0.243257 -0.315416 0.106895
v -0.315416 -0.243257 0.267805
v -0.243257 -0.315416 0.106895
v -0.315416 -0.243257 0.106895
v -0.243257 -0.315416 0.267805
v -0.315416 0.243257 0.267805
v -0.315416 0.243257 0.106895
vn -0.9239 0.3827 -0.0000
vn -0.9239 -0.3827 -0.0000
vn -0.3827 -0.9239 -0.0000
vn -0.3827 -0.9239 -0.0001
vn 0.9239 -0.3827 -0.0000
vn 0.9239 0.3827 -0.0000
vn 0.3827 0.9239 -0.0000
vn 0.3827 -0.9239 -0.0000
vn -0.3827 0.9239 -0.0000
vn -0.9239 0.3827 -0.0002
vn -0.0000 -0.0000 -1.0000
vn -0.0000 -0.0000 1.0000
vt 0.403597 0.000000
vt 0.596403 0.000000
vt 0.596403 0.250000
vt 0.403597 0.250000
vt 0.625000 0.000000
vt 0.625000 0.250000
vt 0.596403 0.750000
vt 0.403597 0.750000
vt 0.403597 0.500000
vt 0.346403 0.750000
vt 0.596403 0.500000
vt 0.346403 0.500000
vt 0.653597 0.500000
vt 0.153597 0.500000
vt 0.653597 0.750000
vt 0.846403 0.750000
vt 0.846403 0.500000
vt 0.153597 0.750000
vt 0.125000 0.750000
vt 0.125000 0.500000
s 1
f 404/3/332 405/4/333 406/5/333
f 404/3/332 406/5/333 407/6/332
f 406/5/333 405/4/333 408/7/334
f 408/7/334 409/8/335 406/5/333
f 410/9/336 411/10/337 412/11/337
f 412/11/337 411/10/337 413/12/338
f 410/9/336 412/11/337 414/13/336
f 413/12/338 415/14/338 412/11/337
f 416/15/339 410/9/336 414/13/336
f 413/12/338 417/16/340 415/14/338
f 410/9/336 416/15/339 418/17/339
f 419/18/334 418/17/339 416/15/339
f 419/18/334 416/15/339 420/19/334
f 413/12/338 421/20/340 417/16/340
f 422/21/332 417/16/340 421/20/340
f 417/16/340 422/21/332 423/22/341
f 424/12/342 425/20/342 426/20/342
f 425/20/342 427/21/342 426/20/342
f 427/21/342 425/20/342 428/21/342
f 425/20/342 424/12/342 429/12/342
f 430/10/342 429/12/342 424/12/342
f 429/12/342 430/10/342 431/10/342
f 430/10/342 432/9/342 431/10/342
f 432/9/342 430/10/342 433/9/342
f 434/17/342 432/9/342 433/9/342
f 433/9/342 435/17/342 434/17/342
f 436/18/342 434/17/342 435/17/342
f 434/17/342 436/18/342 437/18/342
f 438/14/343 439/11/343 440/11/343
f 440/11/343 441/14/343 438/14/343
f 439/11/343 442/13/343 440/11/343
f 443/16/343 438/14/343 441/14/343
f 442/13/343 439/11/343 444/13/343
f 438/14/343 443/16/343 445/16/343
f 446/22/343 445/16/343 443/16/343
f 445/16/343 446/22/343 447/22/343
f 448/15/343 442/13/343 444/13/343
f 442/13/343 448/15/343 449/15/343
f 450/19/343 449/15/343 448/15/343
f 449/15/343 450/19/343 451/19/343
f 452/3/342 453/4/342 454/4/342
f 454/4/342 455/3/342 452/3/342
f 456/7/342 454/4/342 453/4/342
f 454/4/342 456/7/342 457/7/342
f 458/5/343 459/6/343 460/6/343
f 460/6/343 461/5/343 458/5/343
f 461/5/343 462/8/343 458/5/343
f 462/8/343 461/5/343 463/8/343
f 464/20/339 465/12/334 466/14/334
f 465/12/334 467/11/333 466/14/334
f 464/20/339 466/14/334 468/16/339
f 464/20/339 468/16/339 469/21/336
f 469/21/336 468/16/339 470/22/336
f 471/10/333 467/11/333 465/12/334
f 471/10/333 472/13/332 467/11/333
f 472/13/332 471/10/333 473/9/332
f 473/9/332 474/15/340 472/13/332
f 475/17/340 474/15/340 473/9/332
f 475/17/340 476/19/338 474/15/340
f 475/17/340 477/18/338 476/19/338
f 478/5/337 479/7/338 480/4/337
f 479/7/338 478/5/337 481/8/338
f 480/4/337 482/6/336 478/5/337
f 482/6/336 480/4/337 483/3/336
o 86082044456407
v 0.445414 -0.405057 0.486044
v 0.482252 -0.441895 0.337438
v 0.473250 -0.355313 0.436004
v 0.398745 -0.435970 0.436366
v 0.503187 -0.383556 0.329646
v 0.508441 -0.336878 0.352190
v 0.500110 -0.388936 0.325713
v 0.468211 -0.427854 0.253623
v 0.429340 -0.459799 0.325719
v 0.423914 -0.462830 0.329646
v 0.378798 -0.469646 0.352375
v 0.579895 -0.219926 0.094562
v 0.644898 -0.088013 0.009402
v 0.647582 -0.081921 0.090800
v 0.612029 -0.153682 -0.036362
v 0.626805 -0.072403 0.222005
v 0.636679 -0.058384 0.206249
v 0.580135 -0.217956 -0.030778
v 0.576063 -0.188669 -0.070772
v 0.576350 -0.225785 -0.013025
v 0.574015 -0.233010 0.001679
v 0.539931 -0.333844 0.099259
v 0.559769 -0.210689 0.217566
v 0.605118 -0.155281 0.293512
v 0.575428 -0.208993 0.275195
v 0.539041 -0.287399 0.250511
v 0.532187 -0.348184 0.114975
v 0.518135 -0.327650 0.229299
v 0.506514 -0.372625 0.210583
v 0.504969 -0.402706 0.162349
v 0.388430 -0.491720 0.114962
v 0.368008 -0.477778 0.229299
v 0.251047 -0.519412 0.217566
v 0.412805 -0.465981 0.210562
v 0.442881 -0.464429 0.162325
v 0.327206 -0.498133 0.250446
v 0.249350 -0.535071 0.275195
v 0.195944 -0.565069 0.293548
v 0.374201 -0.499573 0.099259
v 0.112760 -0.586448 0.222005
v 0.260282 -0.539539 0.094563
v 0.273401 -0.533693 0.001683
v 0.266143 -0.535993 -0.013024
v 0.122278 -0.607225 0.090800
v 0.098855 -0.596436 0.206261
v 0.128032 -0.604204 0.009362
v 0.194039 -0.571672 -0.036362
v 0.258313 -0.539779 -0.030778
v 0.230095 -0.536774 -0.070644
vn 0.6809 -0.6484 0.3404
vn 0.7115 -0.6988 0.0744
vn 0.9167 -0.2532 0.3092
vn 0.2872 -0.9107 0.2969
vn 0.9389 -0.2832 0.1958
vn 0.9107 -0.3541 -0.2127
vn 0.6885 -0.6876 -0.2305
vn 0.3551 -0.9105 -0.2121
vn 0.3097 -0.9324 0.1863
vn 0.9195 -0.3841 0.0833
vn 0.8964 -0.4432 -0.0022
vn 0.8939 -0.4390 0.0908
vn 0.8885 -0.4481 -0.0987
vn 0.8972 -0.4350 0.0769
vn 0.8850 -0.4319 0.1741
vn 0.8835 -0.4489 -0.1341
vn 0.8064 -0.4350 -0.4006
vn 0.9050 -0.4253 -0.0040
vn 0.9434 -0.3314 -0.0130
vn 0.9380 -0.3212 0.1302
vn 0.9227 -0.3850 -0.0201
vn 0.8812 -0.4178 -0.2213
vn 0.8915 -0.3921 -0.2271
vn 0.9076 -0.3468 -0.2365
vn 0.9326 -0.3167 0.1729
vn 0.9399 -0.3261 0.1014
vn 0.3181 -0.9322 0.1727
vn 0.3275 -0.9391 0.1038
vn 0.3867 -0.9220 -0.0182
vn 0.3177 -0.9323 0.1728
vn 0.3514 -0.9086 -0.2259
vn 0.3943 -0.8909 -0.2255
vn 0.4185 -0.8798 -0.2252
vn 0.3219 -0.9378 0.1301
vn 0.4355 -0.8970 0.0761
vn 0.3841 -0.9195 0.0835
vn 0.3311 -0.9435 -0.0126
vn 0.4240 -0.9056 -0.0048
vn 0.4384 -0.8942 0.0902
vn 0.4324 -0.8847 0.1741
vn 0.4416 -0.8972 -0.0032
vn 0.4466 -0.8901 -0.0910
vn 0.4478 -0.8854 -0.1250
vn 0.4383 -0.8182 -0.3719
vt 0.000000 0.000000
s 1
f 484/23/344 485/23/345 486/23/346
f 487/23/347 485/23/345 484/23/344
f 486/23/346 488/23/348 489/23/346
f 488/23/348 486/23/346 485/23/345
f 488/23/348 485/23/345 490/23/349
f 490/23/349 485/23/345 491/23/350
f 485/23/345 492/23/351 491/23/350
f 485/23/345 493/23/352 492/23/351
f 485/23/345 487/23/347 493/23/352
f 493/23/352 487/23/347 494/23/347
f 495/23/353 496/23/354 497/23/355
f 496/23/354 495/23/353 498/23/356
f 499/23/357 497/23/355 500/23/358
f 497/23/355 499/23/357 495/23/353
f 501/23/359 502/23/360 498/23/356
f 498/23/356 503/23/361 501/23/359
f 498/23/356 495/23/353 503/23/361
f 503/23/361 495/23/353 504/23/362
f 495/23/353 505/23/363 504/23/362
f 495/23/353 499/23/357 506/23/364
f 506/23/364 505/23/363 495/23/353
f 506/23/364 499/23/357 507/23/365
f 506/23/364 507/23/365 508/23/366
f 508/23/366 509/23/367 506/23/364
f 505/23/363 506/23/364 510/23/368
f 511/23/369 506/23/364 509/23/367
f 510/23/368 506/23/364 511/23/369
f 512/23/368 510/23/368 511/23/369
f 510/23/368 512/23/368 513/23/368
f 514/23/370 515/23/371 516/23/372
f 515/23/371 514/23/370 517/23/373
f 517/23/373 514/23/370 518/23/373
f 516/23/372 515/23/371 519/23/374
f 519/23/374 520/23/375 516/23/372
f 521/23/376 516/23/372 520/23/375
f 514/23/370 516/23/372 522/23/377
f 516/23/372 521/23/376 523/23/378
f 522/23/377 516/23/372 524/23/379
f 516/23/372 523/23/378 524/23/379
f 525/23/380 522/23/377 524/23/379
f 524/23/379 526/23/381 525/23/380
f 523/23/378 527/23/382 524/23/379
f 527/23/382 523/23/378 528/23/383
f 529/23/384 524/23/379 527/23/382
f 530/23/385 524/23/379 529/23/384
f 530/23/385 526/23/381 524/23/379
f 526/23/381 530/23/385 531/23/386
f 530/23/385 532/23/387 531/23/386
